<?xml version="1.0" encoding="utf-8"?>
<!-- Generator: Adobe Illustrator 21.0.2, SVG Export Plug-In . SVG Version: 6.00 Build 0)  -->
<svg version="1.1" id="Camada_1" xmlns="http://www.w3.org/2000/svg" xmlns:xlink="http://www.w3.org/1999/xlink" x="0px" y="0px"
	 viewBox="0 0 69.5 69.5" style="enable-background:new 0 0 69.5 69.5;" xml:space="preserve">
<style type="text/css">
	.st0{fill:#FFDD67;}
	.st1{fill:#EBA352;}
</style>
<g>
	<path class="st0" d="M51.3,35.6l-6.6,4.7c0,0-3.3-9.2-5.8-15.1c-1-2.4-4.2-3.2-5.7-6.6c-2.6-5.8,0.5-10.8,3.5-7.2
		c3.5,4.2,8.7,7.3,9.8,9.7C48.2,25.1,51.3,35.6,51.3,35.6z"/>
	<path class="st0" d="M56.6,39.4c0.5,3.2,0.1,8.1-2.7,13.9c0,0-5.7-6.8-6.4-10c0,0-1.6-11.9-3.3-19.5c-0.7-3.1-4.3-4.9-5.2-9.3
		c-1.6-7.6,3.2-12.9,6-7.8c3.2,5.9,8.6,10.9,9.3,14C55.5,26,55.9,34.8,56.6,39.4z"/>
	<path class="st1" d="M48.1,33.4c0,0-0.5-4.5-2.2-12.1c-0.7-3.1-4.3-4.9-5.2-9.3c-0.6-2.6-0.4-5,0.3-6.7c-1.7,1.3-3.1,4.9-2.2,9.3
		c0.9,4.4,4.6,6.2,5.2,9.3c0.5,2.2,0.9,4.4,1.3,6.7l-5-1.9C40.4,28.7,48.1,33.4,48.1,33.4z"/>
	<path class="st0" d="M54.2,38.2c-6.6-6-14-9.7-18.8-12c-7.1-3.5-5.2,1.3-17.3,4.5c-1.6,0.4-3.5,1.6-2,4.6c1.4,2.9,12.8,0.7,14.6-1
		c0,0,4.8,5.9,9.6,5.7c0,0-0.8,3.9,0.3,5.8c0,0-6.8,3.5-9.7,6.6l-8-5.4c-0.6-8.3-2.1-10.8-6.2-10.4c-3.8,0.4-3.4,4-3.3,6.9
		c0.1,5.3-1.3,6.2,0,8.3c5,8.1,11.2,13.1,22.8,13.1c4.3,0,7.1-0.1,9.8-1.4C50.4,61.1,61.5,44.9,54.2,38.2z"/>
	<path class="st1" d="M55.5,39.8c2.5,7.6-6.4,20.1-10.3,22c-2.7,1.3-5.4,1.4-9.8,1.4c-11.5,0-17.7-4.9-22.6-12.8
		c0.1,0.4,0.3,0.9,0.5,1.3c5,8.1,11.2,13.1,22.8,13.1c4.3,0,7.1-0.1,9.8-1.4C50,61.3,59.9,47.2,55.5,39.8z"/>
	<path class="st1" d="M21.4,47.2c0,0,7.5,4.8,9.3,5.1L22.8,47c0.3-8.4-2.1-11.1-6.2-10.4c-0.3,0.1-0.6,0.1-0.9,0.2
		C19.7,36.3,21.7,39,21.4,47.2z"/>
	<path class="st1" d="M30.6,34.3c0,0,4.8,5.9,9.6,5.7v-1.1c-4.8,0.1-9.6-5.7-9.6-5.7c-1.8,1.8-13.2,4-14.6,1
		c-0.2-0.4-0.4-0.9-0.5-1.4c-0.1,0.6,0,1.4,0.5,2.5C17.4,38.2,28.8,36,30.6,34.3z"/>
</g>
</svg>
