<svg id="Camada_1" data-name="Camada 1" xmlns="http://www.w3.org/2000/svg" viewBox="0 0 77.67 77.67">
  <defs>
    <style>
      .cls-1 {
        fill: #fffff6;
      }

      .cls-2 {
        fill: #ffffc3;
      }

      .cls-3 {
        fill: #00ce8c;
      }

      .cls-4 {
        fill: #f38290;
      }

      .cls-5 {
        fill: #404040;
      }
    </style>
  </defs>
  <title>Prancheta 4</title>
  <g>
    <polygon class="cls-1" points="58.45 12.39 58.45 10.17 51.42 10.17 51.42 12.39 15.01 12.39 15.01 67.5 62.66 67.5 62.66 12.39 58.45 12.39"/>
    <rect class="cls-2" x="15.01" y="12.39" width="13.77" height="55.11"/>
    <rect class="cls-3" x="21.39" y="12.39" width="38.96" height="55.11"/>
    <path class="cls-4" d="M39,50.24a1,1,0,0,1-1-1v-4.9h-4.9a1,1,0,0,1-1-1v-6a1,1,0,0,1,1-1H38v-4.9a1,1,0,0,1,1-1h6a1,1,0,0,1,1,1v4.9h4.9a1,1,0,0,1,1,1v6a1,1,0,0,1-1,1H46v4.9a1,1,0,0,1-1,1Z"/>
    <path class="cls-4" d="M51.38,27.91a1,1,0,0,1-1-1V10.17a1,1,0,0,1,1-1h7.07a1,1,0,0,1,1,1V26.91a1,1,0,0,1-.5.87,1,1,0,0,1-.5.13,1,1,0,0,1-.5-.14L55.07,26.1,51.84,27.8A1,1,0,0,1,51.38,27.91Z"/>
    <g>
      <path class="cls-5" d="M50.93,35.34H47v-3.9a2,2,0,0,0-2-2H39a2,2,0,0,0-2,2v3.9h-3.9a2,2,0,0,0-2,2v6a2,2,0,0,0,2,2H37v3.9a2,2,0,0,0,2,2h6a2,2,0,0,0,2-2v-3.9h3.9a2,2,0,0,0,2-2v-6A2,2,0,0,0,50.93,35.34Zm0,8H45v5.91H39V43.33h-5.9v-6H39V31.44h6v5.9h5.9Z"/>
      <path class="cls-5" d="M62.66,9.05H61.6a3.34,3.34,0,0,0-3.14-2.22h-7a3.34,3.34,0,0,0-3.15,2.22H15a3.34,3.34,0,0,0-3.34,3.34V67.5A3.34,3.34,0,0,0,15,70.83H62.66A3.34,3.34,0,0,0,66,67.5V12.39A3.34,3.34,0,0,0,62.66,9.05ZM51.38,12.39h0V10.17h7V26.91L55.09,25l-3.71,1.95ZM62.66,67.5H22.51V22.75a1,1,0,0,0-2,0V67.5H15V12.39h5.5v6.17a1,1,0,0,0,2,0V12.39H49.37V26.91a2,2,0,0,0,2.93,1.77L55,27.25l2.39,1.39a2,2,0,0,0,3-1.73V12.39h2.21Z"/>
      <path class="cls-5" d="M43.86,61.75H40.07a1,1,0,0,0,0,2h3.79a1,1,0,0,0,0-2Z"/>
      <path class="cls-5" d="M48.12,58.38H35.82a1,1,0,0,0,0,2h12.3a1,1,0,0,0,0-2Z"/>
      <path class="cls-5" d="M17.67,60.73a1,1,0,0,0-1,1v2a1,1,0,1,0,2,0v-2A1,1,0,0,0,17.67,60.73Z"/>
      <path class="cls-5" d="M17.67,14a1,1,0,0,0-1,1v1.41a1,1,0,0,0,2,0V15A1,1,0,0,0,17.67,14Z"/>
      <path class="cls-5" d="M17.67,49.54a1,1,0,0,0-1,1v7.62a1,1,0,0,0,2,0V50.54A1,1,0,0,0,17.67,49.54Z"/>
    </g>
  </g>
</svg>
