<svg xmlns="http://www.w3.org/2000/svg" viewBox="0 0 93 93.99">
  <defs>
    <style>
      .cls-1 {
        fill: #fffff6;
      }

      .cls-2 {
        fill: #00ce8c;
      }

      .cls-3 {
        fill: #ffffc3;
      }

      .cls-4 {
        fill: #64375a;
      }

      .cls-5 {
        opacity: 0.6;
      }

      .cls-6 {
        fill: #ff3246;
      }
    </style>
  </defs>
  <title>Prancheta 6 cópia 26</title>
  <g id="icons">
    <g>
      <rect class="cls-1" x="16" y="36.96" width="60.99" height="20.08" transform="translate(-19.61 46.64) rotate(-45)"/>
      <rect class="cls-2" x="16.61" y="41.27" width="60.99" height="12.68" transform="translate(-19.87 47.25) rotate(-45)"/>
      <rect class="cls-3" x="10.51" y="39.22" width="60.99" height="4.58" transform="translate(-17.34 41.15) rotate(-45)"/>
      <path class="cls-1" d="M61,77.33a1.67,1.67,0,0,1-1.18-.49L16.66,33.71a1.67,1.67,0,0,1,0-2.36l14.2-14.2a1.67,1.67,0,0,1,2.36,0L76.34,60.28a1.67,1.67,0,0,1,0,2.36l-14.2,14.2A1.66,1.66,0,0,1,61,77.33Z"/>
      <rect class="cls-2" x="40.78" y="15.87" width="12.68" height="60.99" transform="translate(-18.98 46.9) rotate(-45)"/>
      <rect class="cls-3" x="38.73" y="21.98" width="4.59" height="60.99" transform="translate(-25.09 44.37) rotate(-45)"/>
      <g>
        <path class="cls-4" d="M65.42,47l12.1-12.1a3.34,3.34,0,0,0,0-4.72L63.32,16a3.34,3.34,0,0,0-4.72,0L46.5,28.08,34.39,16a3.34,3.34,0,0,0-4.72,0l-14.2,14.2a3.34,3.34,0,0,0,0,4.72L27.58,47,15.48,59.1a3.34,3.34,0,0,0,0,4.72L29.67,78a3.34,3.34,0,0,0,4.72,0l12.1-12.1L58.6,78a3.34,3.34,0,0,0,4.72,0l14.2-14.2a3.34,3.34,0,0,0,0-4.72ZM61,18.33l14.2,14.2-12.1,12.1-14.2-14.2ZM32,75.66l-14.2-14.2,12.1-12.1,14.2,14.2Zm28.93,0L17.84,32.53,32,18.33,75.16,61.46Z"/>
        <path class="cls-4" d="M49.53,61.62a1,1,0,0,0,.71-.29L60.75,50.82a1,1,0,1,0-1.42-1.42L48.82,59.91a1,1,0,0,0,.71,1.71Z"/>
        <path class="cls-4" d="M32,44.48a1,1,0,0,0,1.42,0L43.9,34a1,1,0,0,0-1.42-1.42L32,43.06A1,1,0,0,0,32,44.48Z"/>
      </g>
      <g>
        <g>
          <g class="cls-5">
            <circle class="cls-6" cx="37.71" cy="45.44" r="1.47"/>
          </g>
          <g class="cls-5">
            <circle class="cls-6" cx="41.21" cy="41.94" r="1.47"/>
          </g>
          <g class="cls-5">
            <circle class="cls-6" cx="44.72" cy="38.43" r="1.47"/>
          </g>
        </g>
        <g>
          <g class="cls-5">
            <circle class="cls-6" cx="41.05" cy="48.78" r="1.47"/>
          </g>
          <g class="cls-5">
            <circle class="cls-6" cx="44.55" cy="45.27" r="1.47"/>
          </g>
          <g class="cls-5">
            <circle class="cls-6" cx="48.05" cy="41.77" r="1.47"/>
          </g>
        </g>
        <g>
          <g class="cls-5">
            <circle class="cls-6" cx="44.38" cy="52.11" r="1.47"/>
          </g>
          <g class="cls-5">
            <circle class="cls-6" cx="47.89" cy="48.61" r="1.47"/>
          </g>
          <g class="cls-5">
            <circle class="cls-6" cx="51.39" cy="45.11" r="1.47"/>
          </g>
        </g>
        <g>
          <g class="cls-5">
            <circle class="cls-6" cx="47.72" cy="55.45" r="1.47"/>
          </g>
          <g class="cls-5">
            <circle class="cls-6" cx="51.22" cy="51.95" r="1.47"/>
          </g>
          <g class="cls-5">
            <circle class="cls-6" cx="54.73" cy="48.44" r="1.47"/>
          </g>
        </g>
      </g>
    </g>
  </g>
</svg>
