<svg xmlns="http://www.w3.org/2000/svg" viewBox="0 0 93 93.99">
  <defs>
    <style>
      .cls-1 {
        fill: #fffff6;
      }

      .cls-2 {
        fill: #ffffc3;
      }

      .cls-3 {
        fill: #00ce8c;
      }

      .cls-4 {
        fill: #f38290;
      }

      .cls-5 {
        fill: #64375a;
      }
    </style>
  </defs>
  <title>Prancheta 6</title>
  <g id="icons">
    <g>
      <circle class="cls-1" cx="46.5" cy="47" r="30.33"/>
      <path class="cls-2" d="M46.5,15a32,32,0,0,0,0,64Z"/>
      <ellipse class="cls-3" cx="47.41" cy="47" rx="24.71" ry="32"/>
      <path class="cls-4" d="M41.36,63.27a1,1,0,0,1-1-1V53.14H31.23a1,1,0,0,1-1-1V41.85a1,1,0,0,1,1-1h9.13V31.72a1,1,0,0,1,1-1H51.64a1,1,0,0,1,1,1v9.13h9.13a1,1,0,0,1,1,1V52.14a1,1,0,0,1-1,1H52.64v9.13a1,1,0,0,1-1,1Z"/>
      <g>
        <path class="cls-5" d="M46.5,15a32,32,0,1,0,32,32A32,32,0,0,0,46.5,15Zm0,60.67A28.67,28.67,0,1,1,75.16,47,28.7,28.7,0,0,1,46.5,75.66Z"/>
        <path class="cls-5" d="M61.77,39.85H53.64V31.72a2,2,0,0,0-2-2H41.36a2,2,0,0,0-2,2v8.13H31.23a2,2,0,0,0-2,2V52.14a2,2,0,0,0,2,2h8.13v8.13a2,2,0,0,0,2,2H51.64a2,2,0,0,0,2-2V54.14h8.13a2,2,0,0,0,2-2V41.85A2,2,0,0,0,61.77,39.85Zm0,12.28H51.64V62.27H41.36V52.14H31.23V41.85H41.36V31.72H51.64V41.85H61.77Z"/>
      </g>
    </g>
  </g>
</svg>
