<?xml version="1.0" encoding="utf-8"?>
<!-- Generator: Adobe Illustrator 21.0.2, SVG Export Plug-In . SVG Version: 6.00 Build 0)  -->
<svg version="1.1" id="Camada_1" xmlns="http://www.w3.org/2000/svg" xmlns:xlink="http://www.w3.org/1999/xlink" x="0px" y="0px"
	 viewBox="0 0 400 200" style="enable-background:new 0 0 400 200;" xml:space="preserve">
<style type="text/css">
	.st0{opacity:0.48;fill:none;stroke:#FFFFFF;stroke-miterlimit:10;enable-background:new    ;}
	.st1{opacity:0.18;fill:none;stroke:#FFFFFF;stroke-miterlimit:10;enable-background:new    ;}
	.st2{opacity:0.13;fill:none;stroke:#FFFFFF;stroke-miterlimit:10;enable-background:new    ;}
	.st3{opacity:0.49;fill:none;stroke:#FFFFFF;stroke-miterlimit:10;enable-background:new    ;}
	.st4{opacity:0.31;fill:none;stroke:#FFFFFF;stroke-miterlimit:10;enable-background:new    ;}
	.st5{opacity:0.17;fill:none;stroke:#FFFFFF;stroke-miterlimit:10;enable-background:new    ;}
	.st6{opacity:0.29;fill:none;stroke:#FFFFFF;stroke-miterlimit:10;enable-background:new    ;}
	.st7{opacity:7.000000e-02;fill:none;stroke:#FFFFFF;stroke-miterlimit:10;enable-background:new    ;}
	.st8{opacity:0.32;fill:none;stroke:#FFFFFF;stroke-miterlimit:10;enable-background:new    ;}
	.st9{opacity:0.44;fill:none;stroke:#FFFFFF;stroke-miterlimit:10;enable-background:new    ;}
	.st10{opacity:8.000000e-02;fill:none;stroke:#FFFFFF;stroke-miterlimit:10;enable-background:new    ;}
	.st11{opacity:0.22;fill:none;stroke:#FFFFFF;stroke-miterlimit:10;enable-background:new    ;}
</style>
<g>
	<polygon class="st0" points="7.4,59.2 6.8,50.6 13.9,55.5 	"/>
	<rect x="20.6" y="37.4" transform="matrix(0.239 -0.971 0.971 0.239 -21.2673 53.7616)" class="st1" width="6.2" height="6.2"/>
	<ellipse transform="matrix(0.1805 -0.9836 0.9836 0.1805 4.5216 63.3345)" class="st2" cx="40.3" cy="29" rx="3.8" ry="3.8"/>
	<ellipse transform="matrix(0.1805 -0.9836 0.9836 0.1805 -18.7123 82.3532)" class="st3" cx="40.1" cy="52.4" rx="2.3" ry="2.3"/>
	<ellipse transform="matrix(0.1805 -0.9836 0.9836 0.1805 -21.783 28.6616)" class="st4" cx="6.3" cy="27.4" rx="2.3" ry="2.3"/>
	<polygon class="st2" points="23.4,66.8 26.3,62.1 31,65 	"/>
	<rect x="5.1" y="74.4" transform="matrix(0.424 -0.9057 0.9057 0.424 -65.0071 50.0129)" class="st5" width="3.5" height="3.5"/>
	<ellipse transform="matrix(0.1805 -0.9836 0.9836 0.1805 -58.3667 93.5194)" class="st6" cx="26.9" cy="81.8" rx="1.8" ry="1.8"/>
	<rect x="29.8" y="92.2" transform="matrix(0.866 -0.5 0.5 0.866 -44.0043 30.5184)" class="st7" width="10.3" height="10.3"/>
	<polygon class="st8" points="8.3,98.6 13,94.1 13.6,100.5 	"/>
	<polygon class="st9" points="22.4,129.7 28.9,127.2 31.4,133.6 	"/>
	<polygon class="st0" points="7.4,162.8 6.8,154.2 13.9,159.1 	"/>
	<rect x="20.6" y="141" transform="matrix(0.239 -0.971 0.971 0.239 -121.8728 132.6069)" class="st1" width="6.2" height="6.2"/>
	<ellipse transform="matrix(0.1805 -0.9836 0.9836 0.1805 -85.005 140.7237)" class="st2" cx="41.9" cy="121.4" rx="3.8" ry="3.8"/>
	<ellipse transform="matrix(0.1805 -0.9836 0.9836 0.1805 -120.6188 167.2606)" class="st3" cx="40.1" cy="156" rx="2.3" ry="2.3"/>
	<ellipse transform="matrix(0.1805 -0.9836 0.9836 0.1805 -123.6895 113.569)" class="st4" cx="6.3" cy="131" rx="2.3" ry="2.3"/>
	<polygon class="st2" points="23.4,170.4 26.3,165.7 31,168.6 	"/>
	<rect x="5.1" y="178" transform="matrix(0.424 -0.9057 0.9057 0.424 -158.84 109.6887)" class="st5" width="3.5" height="3.5"/>
	
		<ellipse transform="matrix(0.1805 -0.9836 0.9836 0.1805 -160.2733 178.4268)" class="st6" cx="26.9" cy="185.4" rx="1.8" ry="1.8"/>
	<rect x="36.8" y="182.1" transform="matrix(0.866 -0.5 0.5 0.866 -87.9856 46.0558)" class="st7" width="10.3" height="10.3"/>
	
		<rect x="6.9" y="107.3" transform="matrix(0.9401 -0.3409 0.3409 0.9401 -36.6683 9.4963)" class="st10" width="3.5" height="3.5"/>
	<polygon class="st11" points="27.9,107.8 24.2,109.7 22.3,106 	"/>
	<polygon class="st8" points="8.3,195.5 13,191 13.6,197.4 	"/>
</g>
<polygon class="st0" points="393.8,163.3 394.5,171.9 387.4,167 "/>
<rect x="374.5" y="179" transform="matrix(0.239 -0.971 0.971 0.239 110.5627 505.2136)" class="st1" width="6.2" height="6.2"/>
<ellipse transform="matrix(0.1805 -0.9836 0.9836 0.1805 105.4574 513.6988)" class="st2" cx="361" cy="193.6" rx="3.8" ry="3.8"/>
<ellipse transform="matrix(0.1805 -0.9836 0.9836 0.1805 128.6913 494.6801)" class="st3" cx="361.2" cy="170.1" rx="2.3" ry="2.3"/>
<ellipse transform="matrix(0.1805 -0.9836 0.9836 0.1805 131.762 548.3716)" class="st4" cx="395" cy="195.1" rx="2.3" ry="2.3"/>
<polygon class="st2" points="377.9,155.7 375,160.5 370.3,157.5 "/>
<rect x="392.7" y="144.7" transform="matrix(0.424 -0.9057 0.9057 0.424 94.6053 441.5622)" class="st5" width="3.5" height="3.5"/>
<ellipse transform="matrix(0.1805 -0.9836 0.9836 0.1805 168.3458 483.5139)" class="st6" cx="374.3" cy="140.7" rx="1.8" ry="1.8"/>
<rect x="361.2" y="120" transform="matrix(0.866 -0.5 0.5 0.866 -13.4945 199.9339)" class="st7" width="10.3" height="10.3"/>
<polygon class="st8" points="393,124 388.3,128.5 387.6,122 "/>
<polygon class="st9" points="378.8,92.8 372.3,95.3 369.8,88.9 "/>
<polygon class="st0" points="393.8,59.7 394.5,68.3 387.4,63.4 "/>
<rect x="374.5" y="75.4" transform="matrix(0.239 -0.971 0.971 0.239 211.1682 426.3682)" class="st1" width="6.2" height="6.2"/>
<ellipse transform="matrix(0.1805 -0.9836 0.9836 0.1805 194.9841 436.3096)" class="st2" cx="359.3" cy="101.1" rx="3.8" ry="3.8"/>
<ellipse transform="matrix(0.1805 -0.9836 0.9836 0.1805 230.5979 409.7727)" class="st3" cx="361.2" cy="66.5" rx="2.3" ry="2.3"/>
<ellipse transform="matrix(0.1805 -0.9836 0.9836 0.1805 233.6685 463.4643)" class="st4" cx="395" cy="91.5" rx="2.3" ry="2.3"/>
<polygon class="st2" points="377.9,52.1 375,56.9 370.3,53.9 "/>
<rect x="392.7" y="41" transform="matrix(0.424 -0.9057 0.9057 0.424 188.4382 381.8863)" class="st5" width="3.5" height="3.5"/>
<ellipse transform="matrix(0.1805 -0.9836 0.9836 0.1805 270.2523 398.6065)" class="st6" cx="374.3" cy="37.1" rx="1.8" ry="1.8"/>
<rect x="354.2" y="30.2" transform="matrix(0.866 -0.5 0.5 0.866 30.4868 184.3965)" class="st7" width="10.3" height="10.3"/>
<rect x="390.8" y="111.7" transform="matrix(0.9401 -0.3409 0.3409 0.9401 -15.1518 140.6253)" class="st10" width="3.5" height="3.5"/>
<polygon class="st11" points="373.4,114.7 377.1,112.9 378.9,116.5 "/>
<polygon class="st8" points="393,27 388.3,31.5 387.6,25.1 "/>
</svg>
