<svg id="Camada_1" data-name="Camada 1" xmlns="http://www.w3.org/2000/svg" viewBox="0 0 75.33 75.33">
  <defs>
    <style>
      .cls-1 {
        fill: #fff;
      }

      .cls-2 {
        fill: #ffffc3;
      }

      .cls-3 {
        fill: #00ce8c;
      }

      .cls-4 {
        fill: #f38290;
      }

      .cls-5 {
        fill: #64375a;
      }
    </style>
  </defs>
  <title>Prancheta 8</title>
  <g>
    <path class="cls-1" d="M46.6,39.61a50,50,0,0,1-8.93,6.84,63.8,63.8,0,0,1-8.93-6.84,29.82,29.82,0,0,0-16.84,13.5,29.76,29.76,0,0,0,51.55,0A29.83,29.83,0,0,0,46.6,39.61Z"/>
    <path class="cls-1" d="M49.19,18.86a11.52,11.52,0,0,0-23,0v6.57a11.52,11.52,0,1,0,23,0Z"/>
    <path class="cls-2" d="M39.76,7.33c-7.52,0-13.62,5.16-13.62,11.52v6.57c0,6.36,6.1,11.52,13.62,11.52Z"/>
    <path class="cls-3" d="M45.16,19.14c0-5.5-2.72-10-6.07-10S33,13.64,33,19.14v6c0,5.5,2.72,10,6.07,10s6.07-4.46,6.07-10Z"/>
    <path class="cls-2" d="M37.67,46.46a63.8,63.8,0,0,1-8.93-6.84,29.82,29.82,0,0,0-16.84,13.5A29.75,29.75,0,0,0,37.67,68Z"/>
    <path class="cls-3" d="M46.38,40.4a62,62,0,0,1-7.61,6.93,71.78,71.78,0,0,1-7.84-6.93c-5.56,2-9.77,6.19-12.64,11.81,3.5,8.17,11.92,14.1,20.49,14.1s16-5.28,20-13.11C55.93,47.57,51.94,42.39,46.38,40.4Z"/>
    <path class="cls-4" d="M45.51,60.3a1,1,0,0,1-1-1v-2h-2a1,1,0,0,1-1-1V53.18a1,1,0,0,1,1-1h2v-2a1,1,0,0,1,1-1h3.08a1,1,0,0,1,1,1v2h2a1,1,0,0,1,1,1v3.08a1,1,0,0,1-1,1h-2v2a1,1,0,0,1-1,1Z"/>
    <ellipse class="cls-4" cx="30.27" cy="15.63" rx="6.33" ry="6.45"/>
    <g>
      <path class="cls-5" d="M64.89,52.28A31.38,31.38,0,0,0,47.1,38a1.67,1.67,0,0,0-1.68.41l-.41.39-.11.1a48.94,48.94,0,0,1-7.21,5.56,61.29,61.29,0,0,1-7.27-5.57l-.09-.08-.42-.4A1.67,1.67,0,0,0,28.23,38,31.38,31.38,0,0,0,10.45,52.28a1.67,1.67,0,0,0,0,1.67,31.43,31.43,0,0,0,54.44,0A1.67,1.67,0,0,0,64.89,52.28ZM15.15,55c-.46-.62-.91-1.24-1.32-1.9a28.07,28.07,0,0,1,7.34-7.84,38.52,38.52,0,0,0-4.79,7.17C16,53.27,15.55,54.14,15.15,55ZM38.67,66.3v-11a1,1,0,0,0-2,0v11a28.19,28.19,0,0,1-20.08-9.53c.49-1.17,1-2.32,1.58-3.4A30.42,30.42,0,0,1,28.34,41.55a68.79,68.79,0,0,0,8.32,6.25v3a1,1,0,0,0,2,0v-3A52.25,52.25,0,0,0,47,41.55c4,2.54,7.53,6.67,10.3,12.06.52,1,1,2.07,1.46,3.16A28.19,28.19,0,0,1,38.67,66.3ZM60.18,55c-.35-.79-.72-1.57-1.1-2.32a38.64,38.64,0,0,0-4.92-7.42,28.09,28.09,0,0,1,7.34,7.84C61.09,53.77,60.64,54.4,60.18,55Z"/>
      <path class="cls-5" d="M51.62,51.18h-1v-1a2,2,0,0,0-2-2H45.51a2,2,0,0,0-2,2v1h-1a2,2,0,0,0-2,2v3.08a2,2,0,0,0,2,2h1v1a2,2,0,0,0,2,2h3.08a2,2,0,0,0,2-2v-1h1a2,2,0,0,0,2-2V53.18A2,2,0,0,0,51.62,51.18Zm0,5.08h-3v3H45.51v-3h-3V53.18h3v-3h3.08v3h3Z"/>
      <path class="cls-5" d="M24.48,25.43a13.19,13.19,0,1,0,26.38,0V18.86A13.17,13.17,0,0,0,29.92,8.2a7.4,7.4,0,0,0-7,7.43,7.48,7.48,0,0,0,1.54,4.55Zm23-6.57v6.57a9.85,9.85,0,1,1-19.71,0V22.64a7.18,7.18,0,0,0,2.46.44,7.34,7.34,0,0,0,6.81-4.71H47.5C47.5,18.53,47.52,18.69,47.52,18.86ZM37.67,9a9.86,9.86,0,0,1,9.52,7.36H37.56c0-.24,0-.49,0-.73s0-.49,0-.73h5.65a1,1,0,0,0,0-2H37.08a7.46,7.46,0,0,0-2.61-3.36A9.73,9.73,0,0,1,37.67,9Zm-7.4,1.18a5.45,5.45,0,1,1-5.33,5.45A5.4,5.4,0,0,1,30.27,10.18Z"/>
      <ellipse class="cls-5" cx="30.27" cy="15.63" rx="1.92" ry="1.96"/>
    </g>
  </g>
</svg>
