<svg id="Camada_1" data-name="Camada 1" xmlns="http://www.w3.org/2000/svg" viewBox="0 0 75.67 75.67">
  <defs>
    <style>
      .cls-1 {
        fill: #fffff6;
      }

      .cls-2 {
        fill: #f38290;
      }

      .cls-3 {
        fill: #ffffc3;
      }

      .cls-4 {
        fill: #00ce8c;
      }

      .cls-5 {
        fill: #64375a;
      }
    </style>
  </defs>
  <title>Prancheta 3</title>
  <g>
    <rect class="cls-1" x="13.64" y="24.52" width="48.4" height="41.66"/>
    <polygon class="cls-1" points="41.46 8.96 41.46 14.12 34.16 14.12 34.16 8.96 29.77 8.96 29.77 23.67 34.16 23.67 34.16 18.51 41.46 18.51 41.46 23.67 45.85 23.67 45.85 8.96 41.46 8.96"/>
    <path class="cls-2" d="M41.46,25.52a1,1,0,0,1-1-1V20.36H35.15v4.16a1,1,0,0,1-1,1H29.76a1,1,0,0,1-1-1V9.82a1,1,0,0,1,1-1h4.39a1,1,0,0,1,1,1V14h5.31V9.82a1,1,0,0,1,1-1h4.39a1,1,0,0,1,1,1V24.52a1,1,0,0,1-1,1Z"/>
    <rect class="cls-3" x="14.54" y="24.52" width="7.54" height="41.66"/>
    <rect class="cls-4" x="22.07" y="24.52" width="36.08" height="41.66"/>
    <rect class="cls-1" x="18.5" y="29.31" width="7.14" height="7.14"/>
    <rect class="cls-1" x="29.01" y="29.31" width="7.14" height="7.14"/>
    <rect class="cls-1" x="39.52" y="29.31" width="7.14" height="7.14"/>
    <rect class="cls-1" x="50.02" y="29.31" width="7.14" height="7.14"/>
    <rect class="cls-1" x="18.5" y="40.2" width="7.14" height="7.14"/>
    <rect class="cls-1" x="29.01" y="40.2" width="7.14" height="7.14"/>
    <rect class="cls-1" x="39.52" y="40.2" width="7.14" height="7.14"/>
    <rect class="cls-1" x="50.02" y="40.2" width="7.14" height="7.14"/>
    <rect class="cls-1" x="18.5" y="51.09" width="7.14" height="7.14"/>
    <rect class="cls-2" x="29.01" y="51.09" width="17.65" height="15.09"/>
    <rect class="cls-1" x="50.02" y="51.09" width="7.14" height="7.14"/>
    <g>
      <path class="cls-5" d="M18.5,37.45h7.14a1,1,0,0,0,1-1V29.31a1,1,0,0,0-1-1H18.5a1,1,0,0,0-1,1v7.14A1,1,0,0,0,18.5,37.45Zm1-7.14h5.15v5.15H19.5Z"/>
      <path class="cls-5" d="M29,37.45h7.14a1,1,0,0,0,1-1V29.31a1,1,0,0,0-1-1H29a1,1,0,0,0-1,1v7.14A1,1,0,0,0,29,37.45Zm1-7.14h5.15v5.15H30Z"/>
      <path class="cls-5" d="M39.52,37.45h7.14a1,1,0,0,0,1-1V29.31a1,1,0,0,0-1-1H39.52a1,1,0,0,0-1,1v7.14A1,1,0,0,0,39.52,37.45Zm1-7.14h5.15v5.15H40.51Z"/>
      <path class="cls-5" d="M50,37.45h7.14a1,1,0,0,0,1-1V29.31a1,1,0,0,0-1-1H50a1,1,0,0,0-1,1v7.14A1,1,0,0,0,50,37.45Zm1-7.14h5.15v5.15H51Z"/>
      <path class="cls-5" d="M18.5,48.34h7.14a1,1,0,0,0,1-1V40.2a1,1,0,0,0-1-1H18.5a1,1,0,0,0-1,1v7.14A1,1,0,0,0,18.5,48.34Zm1-7.14h5.15v5.15H19.5Z"/>
      <path class="cls-5" d="M29,48.34h7.14a1,1,0,0,0,1-1V40.2a1,1,0,0,0-1-1H29a1,1,0,0,0-1,1v7.14A1,1,0,0,0,29,48.34Zm1-7.14h5.15v5.15H30Z"/>
      <path class="cls-5" d="M39.52,48.34h7.14a1,1,0,0,0,1-1V40.2a1,1,0,0,0-1-1H39.52a1,1,0,0,0-1,1v7.14A1,1,0,0,0,39.52,48.34Zm1-7.14h5.15v5.15H40.51Z"/>
      <path class="cls-5" d="M50,48.34h7.14a1,1,0,0,0,1-1V40.2a1,1,0,0,0-1-1H50a1,1,0,0,0-1,1v7.14A1,1,0,0,0,50,48.34Zm1-7.14h5.15v5.15H51Z"/>
      <path class="cls-5" d="M18.5,59.23h7.14a1,1,0,0,0,1-1V51.09a1,1,0,0,0-1-1H18.5a1,1,0,0,0-1,1v7.14A1,1,0,0,0,18.5,59.23Zm1-7.14h5.15v5.15H19.5Z"/>
      <path class="cls-5" d="M50,59.23h7.14a1,1,0,0,0,1-1V51.09a1,1,0,0,0-1-1H50a1,1,0,0,0-1,1v7.14A1,1,0,0,0,50,59.23Zm1-7.14h5.15v5.15H51Z"/>
      <path class="cls-5" d="M68.17,64.52H63.69v-40A1.66,1.66,0,0,0,62,22.86H47.84v-13a2,2,0,0,0-2-2H41.46a2,2,0,0,0-2,2V13H36.15V9.82a2,2,0,0,0-2-2H29.76a2,2,0,0,0-2,2v13H13.64A1.66,1.66,0,0,0,12,24.52v40H7.49a1.66,1.66,0,0,0,0,3.32H68.17a1.66,1.66,0,1,0,0-3.32ZM29.76,9.82h4.39V15h7.3V9.82h4.39v13H41.46v-3.5h-7.3v3.5H29.76Zm9.7,11.54v1.5H36.15v-1.5Zm20.91,4.83V60.94H47.65V51.09a1,1,0,0,0-1-1H29a1,1,0,0,0-1,1v9.86H15.3V26.18ZM38.83,64.52v-6.9a1,1,0,1,0-2,0v6.9H30V52.08h6.83V54a1,1,0,1,0,2,0V52.08h6.83V64.52ZM15.3,62.94H28v1.58H15.3Zm32.36,1.58V62.94H60.37v1.58Z"/>
    </g>
  </g>
</svg>
