<svg xmlns="http://www.w3.org/2000/svg" viewBox="0 0 93 93.99">
  <defs>
    <style>
      .cls-1 {
        fill: #fffff6;
      }

      .cls-2 {
        fill: #ffffc3;
      }

      .cls-3 {
        fill: #00ce8c;
      }

      .cls-4 {
        fill: #f38290;
      }

      .cls-5 {
        fill: #64375a;
      }
    </style>
  </defs>
  <title>Prancheta 6 cópia 59</title>
  <g id="icons">
    <g>
      <rect class="cls-1" x="17.82" y="21.57" width="57.35" height="41.8" rx="3.32" ry="3.32"/>
      <rect class="cls-1" x="35.44" y="65.06" width="22.12" height="9.02"/>
      <rect class="cls-2" x="36.51" y="65.67" width="4.76" height="9.79"/>
      <rect class="cls-2" x="17.82" y="54.95" width="4.76" height="9.79"/>
      <rect class="cls-3" x="22.58" y="54.95" width="50.04" height="9.79"/>
      <rect class="cls-2" x="17.82" y="19.41" width="4.76" height="4.89"/>
      <rect class="cls-3" x="22.58" y="19.41" width="50.04" height="4.89"/>
      <rect class="cls-3" x="41.16" y="64.3" width="12.95" height="9.79"/>
      <path class="cls-4" d="M44.15,47.95a1,1,0,0,1-1-1V43.33H39.53a1,1,0,0,1-1-1V37.64a1,1,0,0,1,1-1h3.62V33a1,1,0,0,1,1-1h4.69a1,1,0,0,1,1,1v3.62h3.62a1,1,0,0,1,1,1v4.69a1,1,0,0,1-1,1H49.84v3.62a1,1,0,0,1-1,1Z"/>
      <g>
        <path class="cls-5" d="M53.46,35.64H50.84V33a2,2,0,0,0-2-2H44.15a2,2,0,0,0-2,2v2.63H39.53a2,2,0,0,0-2,2v4.69a2,2,0,0,0,2,2h2.63v2.63a2,2,0,0,0,2,2h4.69a2,2,0,0,0,2-2V44.32h2.63a2,2,0,0,0,2-2V37.64A2,2,0,0,0,53.46,35.64Zm0,6.69H48.84v4.62H44.15V42.33H39.53V37.64h4.62V33h4.69v4.62h4.62Z"/>
        <path class="cls-5" d="M71.85,18.25H21.15a6.66,6.66,0,0,0-6.65,6.65V60a6.66,6.66,0,0,0,6.65,6.65H33.78v5.72h-2.2a1.66,1.66,0,0,0,0,3.32H61.42a1.66,1.66,0,1,0,0-3.32h-2.2V66.7H71.85A6.66,6.66,0,0,0,78.5,60V24.89A6.66,6.66,0,0,0,71.85,18.25ZM37.1,72.42v-5.7H55.9v5.7ZM17.82,25.95H75.17V54H17.82Zm3.32-4.38h50.7A3.33,3.33,0,0,1,75,24H18A3.33,3.33,0,0,1,21.15,21.57Zm50.7,41.8H21.15A3.33,3.33,0,0,1,17.82,60V56H75.17V60A3.33,3.33,0,0,1,71.85,63.37Z"/>
        <path class="cls-5" d="M46.5,56.91a2.7,2.7,0,1,0,2.7,2.7A2.71,2.71,0,0,0,46.5,56.91Zm0,3.41a.71.71,0,1,1,.71-.71A.71.71,0,0,1,46.5,60.32Z"/>
      </g>
    </g>
  </g>
</svg>
