<?xml version="1.0" encoding="utf-8"?>
<!-- Generator: Adobe Illustrator 21.0.2, SVG Export Plug-In . SVG Version: 6.00 Build 0)  -->
<svg version="1.1" id="Camada_1" xmlns="http://www.w3.org/2000/svg" xmlns:xlink="http://www.w3.org/1999/xlink" x="0px" y="0px"
	 viewBox="0 0 756.1 474.2" style="enable-background:new 0 0 756.1 474.2;" xml:space="preserve">
<style type="text/css">
	.st0{opacity:0.26;fill:#033560;}
	.st1{fill-rule:evenodd;clip-rule:evenodd;fill:#414141;}
	.st2{fill-rule:evenodd;clip-rule:evenodd;fill:#59595B;}
	.st3{fill-rule:evenodd;clip-rule:evenodd;fill:#888C8E;}
	.st4{fill-rule:evenodd;clip-rule:evenodd;fill:#EA7441;}
	.st5{fill-rule:evenodd;clip-rule:evenodd;fill:#E24658;}
	.st6{fill-rule:evenodd;clip-rule:evenodd;fill:#424245;}
	.st7{fill-rule:evenodd;clip-rule:evenodd;fill:#BA859E;}
	.st8{fill-rule:evenodd;clip-rule:evenodd;fill:#009D77;}
	.st9{fill-rule:evenodd;clip-rule:evenodd;fill:#F3B228;}
	.st10{fill-rule:evenodd;clip-rule:evenodd;fill:#80716D;}
	.st11{fill-rule:evenodd;clip-rule:evenodd;fill:#5A5B5D;}
	.st12{fill-rule:evenodd;clip-rule:evenodd;fill:#AF908C;}
	.st13{fill-rule:evenodd;clip-rule:evenodd;fill:#A86437;}
	.st14{fill-rule:evenodd;clip-rule:evenodd;fill:#886171;}
	.st15{fill-rule:evenodd;clip-rule:evenodd;fill:#19656E;}
	.st16{fill-rule:evenodd;clip-rule:evenodd;fill:#938481;}
	.st17{fill:#E24658;}
	.st18{fill:#C74252;}
	.st19{fill:#E76D6E;}
	.st20{fill:#033560;}
	.st21{fill:#F1A28E;}
	.st22{fill:#FFFFFF;}
	.st23{fill:#435D93;}
	.st24{fill:#D2D2D2;}
	.st25{fill:#CABBBB;}
	.st26{fill:#EFECE9;}
	.st27{fill:none;stroke:#6E6E71;stroke-linecap:round;stroke-linejoin:round;stroke-miterlimit:10;}
	.st28{fill:#6E6E71;}
	.st29{fill:none;stroke:#6E6E71;stroke-width:0.5;stroke-linecap:round;stroke-linejoin:round;stroke-miterlimit:10;}
	.st30{fill:#7A7A7A;}
	.st31{fill:#696969;}
	.st32{fill:#878787;}
	.st33{fill:#EA7441;}
	.st34{fill:#D96441;}
	.st35{fill:#A99E9E;}
	.st36{clip-path:url(#SVGID_2_);}
	.st37{fill:none;stroke:#9A8478;stroke-width:0.25;stroke-miterlimit:10;}
	.st38{clip-path:url(#SVGID_4_);}
	.st39{fill:#009D77;}
	.st40{fill:#78AC62;}
	.st41{fill:#70A05B;}
	.st42{fill:#8BBF6F;}
	.st43{fill:#47B3AC;}
	.st44{fill:#2AAAAA;}
</style>
<path class="st0" d="M437.3,405.7c-85,0-161.7,3.2-215.4,8.3l-5-0.6c0,0-187.5,8.6-192.1,20.2c-4.7,11.7,18.9,20.6,81.9,26.1
	c6.2,0.5,15.4,0.9,26.8,1c14.3,1.6,38.2,2.5,76,2.5c162.7,0,515.9-3.6,522.4-31.5C735.2,417.7,600,405.7,437.3,405.7z"/>
<g>
	<g id="XMLID_75_">
		<rect id="XMLID_62_" x="446.1" y="95.8" class="st1" width="6" height="18.5"/>
		<rect id="XMLID_61_" x="618.2" y="95.4" class="st1" width="6" height="18.5"/>
		<rect id="XMLID_59_" x="440.4" y="91.3" class="st2" width="189.5" height="6.4"/>
		<path id="XMLID_58_" class="st3" d="M516.2,90.1c0,0.7-0.5,1.2-1.1,1.2h-5.8c-0.6,0-1.1-0.5-1.1-1.2V47.2c0-0.7,0.5-1.2,1.1-1.2
			h5.8c0.6,0,1.1,0.5,1.1,1.2V90.1z"/>
		<path id="XMLID_57_" class="st4" d="M525.9,89.9c0,0.8-0.6,1.4-1.4,1.4h-6.9c-0.8,0-1.4-0.6-1.4-1.4V38.8c0-0.8,0.6-1.4,1.4-1.4
			h6.9c0.8,0,1.4,0.6,1.4,1.4V89.9z"/>
		<path id="XMLID_56_" class="st5" d="M536.4,90c0,0.7-0.7,1.3-1.5,1.3h-7.6c-0.8,0-1.5-0.6-1.5-1.3V43.8c0-0.7,0.7-1.3,1.5-1.3h7.6
			c0.8,0,1.5,0.6,1.5,1.3V90z"/>
		<path id="XMLID_55_" class="st6" d="M543,90.1c0,0.6-0.4,1.1-0.9,1.1h-4.7c-0.5,0-0.9-0.5-0.9-1.1v-41c0-0.6,0.4-1.1,0.9-1.1h4.7
			c0.5,0,0.9,0.5,0.9,1.1V90.1z"/>
		<path id="XMLID_54_" class="st7" d="M552.7,89.9c0,0.8-0.6,1.4-1.4,1.4h-6.9c-0.8,0-1.4-0.6-1.4-1.4V38.8c0-0.8,0.6-1.4,1.4-1.4
			h6.9c0.8,0,1.4,0.6,1.4,1.4V89.9z"/>
		<path id="XMLID_53_" class="st8" d="M563.2,90c0,0.7-0.7,1.3-1.5,1.3h-7.6c-0.8,0-1.5-0.6-1.5-1.3V43.8c0-0.7,0.7-1.3,1.5-1.3h7.6
			c0.8,0,1.5,0.6,1.5,1.3V90z"/>
		<path id="XMLID_52_" class="st9" d="M569.8,90.1c0,0.6-0.4,1.1-0.9,1.1h-4.7c-0.5,0-0.9-0.5-0.9-1.1v-41c0-0.6,0.4-1.1,0.9-1.1
			h4.7c0.5,0,0.9,0.5,0.9,1.1V90.1z"/>
		<path id="XMLID_51_" class="st10" d="M579.5,89.9c0,0.8-0.6,1.4-1.4,1.4h-6.9c-0.8,0-1.4-0.6-1.4-1.4V38.8c0-0.8,0.6-1.4,1.4-1.4
			h6.9c0.8,0,1.4,0.6,1.4,1.4V89.9z"/>
		<g id="XMLID_48_">
			<rect id="XMLID_50_" x="508.1" y="52.9" class="st11" width="8" height="9.5"/>
			<rect id="XMLID_49_" x="508.1" y="48.4" class="st11" width="8" height="2.1"/>
		</g>
		<g id="XMLID_42_">
			<rect id="XMLID_47_" x="525.9" y="44.7" class="st12" width="10.5" height="1.1"/>
			<rect id="XMLID_46_" x="525.9" y="46.2" class="st12" width="10.5" height="1.1"/>
			<rect id="XMLID_45_" x="525.9" y="47.7" class="st12" width="10.5" height="1.1"/>
			<rect id="XMLID_44_" x="528.4" y="86.6" class="st12" width="5.6" height="1.1"/>
			<rect id="XMLID_43_" x="528.4" y="88.1" class="st12" width="5.6" height="1.1"/>
		</g>
		<rect id="XMLID_41_" x="516.2" y="80.3" class="st13" width="9.7" height="2.2"/>
		<rect id="XMLID_40_" x="516.2" y="83.7" class="st13" width="9.7" height="2.2"/>
		<g id="XMLID_36_">
			<rect id="XMLID_39_" x="544.6" y="82.1" class="st14" width="1.3" height="7.5"/>
			<rect id="XMLID_38_" x="547.2" y="82.1" class="st14" width="1.3" height="7.5"/>
			<rect id="XMLID_37_" x="549.7" y="82.1" class="st14" width="1.3" height="7.5"/>
		</g>
		<rect id="XMLID_35_" x="554.4" y="76.7" class="st15" width="7.6" height="10.8"/>
		<rect id="XMLID_34_" x="552.7" y="44.4" class="st15" width="10.5" height="1.7"/>
		<g id="XMLID_31_">
			<rect id="XMLID_33_" x="571.5" y="40.2" class="st16" width="6.8" height="1.7"/>
			<rect id="XMLID_32_" x="571.5" y="44.6" class="st16" width="6.8" height="8"/>
		</g>
		<path id="XMLID_9_" class="st3" d="M587.6,90.1c0,0.7-0.5,1.2-1.1,1.2h-5.8c-0.6,0-1.1-0.5-1.1-1.2V47.2c0-0.7,0.5-1.2,1.1-1.2
			h5.8c0.6,0,1.1,0.5,1.1,1.2V90.1z"/>
		<g id="XMLID_6_">
			<rect id="XMLID_8_" x="579.5" y="52.9" class="st11" width="8" height="9.5"/>
			<rect id="XMLID_7_" x="579.5" y="48.4" class="st11" width="8" height="2.1"/>
		</g>
	</g>
	<g>
		<g>
			<path class="st17" d="M528.9,190.7c0,57.5-44.9,194.5-93.9,194.5c-51.9,0-93.9-137-93.9-194.5s45.6-24.2,97.4-24.2
				S528.9,133.2,528.9,190.7z"/>
			<path class="st18" d="M507.2,200.6c0,50.4-34.5,170.6-72.2,170.6c-39.9,0-72.2-120.2-72.2-170.6s35-21.2,74.9-21.2
				S507.2,150.2,507.2,200.6z"/>
		</g>
		<g>
			<g>
				<g>
					<path class="st19" d="M433.9,205L433.9,205c-3.9,0-7.1-3.2-7.1-7.1v-31.5c0-3.9,3.2-7.1,7.1-7.1h0c3.9,0,7.1,3.2,7.1,7.1v31.5
						C440.9,201.8,437.8,205,433.9,205z"/>
					<g>
						<ellipse class="st20" cx="461.3" cy="68.3" rx="27.4" ry="22.2"/>
						<path class="st20" d="M388.1,69.3v42.9c0,3.9,3.2,7.1,7.1,7.1l0,0c3.9,0,7.1-3.2,7.1-7.1V69.3
							C402.2,69.3,388.7,69.9,388.1,69.3z"/>
						<path class="st20" d="M466.6,69.3v42.9c0,3.9,3.2,7.1,7.1,7.1l0,0c3.9,0,7.1-3.2,7.1-7.1V69.3
							C480.7,69.3,467.2,69.9,466.6,69.3z"/>
						<path class="st21" d="M434.5,177.1L434.5,177.1c-21.1,0-38.4-17.3-38.4-38.4V88.2c0-21.1,17.3-38.4,38.4-38.4h0
							c21.1,0,38.4,17.3,38.4,38.4v50.6C472.9,159.9,455.6,177.1,434.5,177.1z"/>
						<ellipse class="st20" cx="455.8" cy="43.1" rx="31.1" ry="20.1"/>
						<path class="st20" d="M463.7,154.2c-6.1,6.1-8.4-7.7-8.4-7.7l0,0.1c-0.7-5.1-5.2-9.1-10.5-9.1h-20.7c-5.4,0-9.9,4.1-10.5,9.3
							c-0.4,2.1-2.8,12.9-8.3,7.3c-6.1-6.1-9.1-9.9-9.1-9.9v9.2c0,13,10.6,23.6,23.6,23.6h1.8c0.8,0.2,1.7,0.3,2.6,0.3h20.7
							c0.9,0,1.8-0.1,2.6-0.3h1.8c13,0,23.6-10.6,23.6-23.6v-9.2C472.9,144.3,469.8,148.1,463.7,154.2z"/>
						<path class="st19" d="M435.6,133.4h-2.2c-2.2,0-4-1.8-4-4v-20c0-2.2,1.8-4,4-4h2.2c2.2,0,4,1.8,4,4v20
							C439.6,131.6,437.8,133.4,435.6,133.4z"/>
						<g>
							<path class="st20" d="M430.6,109l-2.3-2.3c1.7-1.7,4-2.7,6.4-2.7c2.4,0,4.7,0.9,6.4,2.7l-2.3,2.3c-1.1-1.1-2.5-1.7-4.1-1.7
								C433.1,107.3,431.7,107.9,430.6,109z"/>
							<path class="st20" d="M425.2,123.6h-18.8c-3.4,0-6.2-2.8-6.2-6.2v-16.3c0-3.4,2.8-6.2,6.2-6.2h18.8c3.4,0,6.2,2.8,6.2,6.2
								v16.3C431.4,120.8,428.6,123.6,425.2,123.6z M406.4,98.2c-1.6,0-2.9,1.3-2.9,2.9v16.3c0,1.6,1.3,2.9,2.9,2.9h18.8
								c1.6,0,2.9-1.3,2.9-2.9v-16.3c0-1.6-1.3-2.9-2.9-2.9H406.4z"/>
							<path class="st20" d="M462.6,123.6h-18.8c-3.4,0-6.2-2.8-6.2-6.2v-16.3c0-3.4,2.8-6.2,6.2-6.2h18.8c3.4,0,6.2,2.8,6.2,6.2
								v16.3C468.8,120.8,466,123.6,462.6,123.6z M443.8,98.2c-1.6,0-2.9,1.3-2.9,2.9v16.3c0,1.6,1.3,2.9,2.9,2.9h18.8
								c1.6,0,2.9-1.3,2.9-2.9v-16.3c0-1.6-1.3-2.9-2.9-2.9H443.8z"/>
						</g>
						<path class="st20" d="M432,71.2h-37.1c-10.7,0-19.4-8.7-19.4-19.4v0c0-10.7,8.7-19.4,19.4-19.4H432c10.7,0,19.4,8.7,19.4,19.4
							v0C451.4,62.4,442.7,71.2,432,71.2z"/>
						<circle class="st20" cx="417.4" cy="109.6" r="3.5"/>
						<circle class="st20" cx="450.4" cy="109.6" r="3.5"/>
						<path class="st22" d="M445,147c0,4.6-4.7,8.3-10.4,8.3s-10.4-3.7-10.4-8.3"/>
					</g>
				</g>
				<g>
					<path class="st22" d="M371.9,219.8c0-21.3,28.4-38.5,63.4-38.5s63.4,17.2,63.4,38.5l7.8,58.6H363.3L371.9,219.8z"/>
					<polygon class="st23" points="462,280.5 405.6,280.5 421.4,182.1 434.4,180.9 446.6,181.7 					"/>
				</g>
			</g>
			<g>
				<path class="st24" d="M462.9,262.8c-0.6,0-1.1-0.5-1.2-1.1c-0.1-0.6,0.4-1.2,1.1-1.3l1.3-0.1c0.2,0,0.4-0.2,0.4-0.5l-0.5-21.9
					c0-0.6,0.5-1.2,1.1-1.2c0,0,0,0,0,0c0.6,0,1.2,0.5,1.2,1.1l0.5,21.9c0,1.4-1.1,2.7-2.5,2.8l-1.3,0.1
					C463,262.8,462.9,262.8,462.9,262.8z"/>
				<path class="st24" d="M446.6,262.8c0,0-0.1,0-0.1,0l-1.3-0.1c-1.4-0.1-2.5-1.4-2.5-2.8l0.5-21.9c0-0.6,0.5-1.1,1.2-1.1
					c0,0,0,0,0,0c0.6,0,1.2,0.5,1.1,1.2l-0.5,21.9c0,0.2,0.2,0.4,0.4,0.5l1.3,0.1c0.6,0.1,1.1,0.6,1.1,1.3
					C447.7,262.4,447.2,262.8,446.6,262.8z"/>
				<path class="st20" d="M456.7,227.6v-30.9l0-0.1c-0.4-15.6-9.3-27.8-22.3-27.8c-13,0-20.6,12.7-20.8,28.3v7.6
					c-3.8,1.9-6.5,5.9-6.5,11.4c0,7.2,3,13.9,8.6,13.9c5.6,0,8.6-5.9,8.6-13.1c0-5.7-2.8-10.5-6.7-12.3v-10.5
					c0.1-11.8,7.7-21.4,16.9-21.4c9,0,18.1,9.4,18.4,20.9v34c-5.5,1.6-11.1,7-11.2,13.4l5.4,0.1c0-4.7,3.5-8.5,7.7-8.5
					c4.2,0,7.6,3.7,7.7,8.4l5.4-0.1C467.8,234.4,462.2,229.2,456.7,227.6z"/>
			</g>
		</g>
	</g>
	<g id="mesa">
		<polygon class="st22" points="622.1,430.9 134.1,430.9 113,282.2 643.1,282.2 		"/>
		<rect x="86.3" y="271.9" class="st25" width="583.6" height="18.5"/>
	</g>
	<path class="st19" d="M442.7,181c0,2.9-3.7,5.5-8.5,5.5s-8.4-2.3-8.4-5.1c0-2.9,3.5-3.7,8.3-3.7S442.7,178.2,442.7,181z"/>
	<g>
		
			<ellipse transform="matrix(0.7071 -0.7071 0.7071 0.7071 26.3667 166.9239)" class="st20" cx="214.7" cy="51.6" rx="40.8" ry="40.8"/>
		
			<ellipse transform="matrix(0.7071 -0.7071 0.7071 0.7071 26.3667 166.9239)" class="st26" cx="214.7" cy="51.6" rx="35.7" ry="35.7"/>
		<g>
			<line class="st27" x1="238.4" y1="75.3" x2="236.4" y2="73.3"/>
			<line class="st27" x1="193" y1="29.9" x2="191" y2="27.9"/>
		</g>
		<g>
			<line class="st27" x1="191" y1="75.3" x2="193" y2="73.3"/>
			<line class="st27" x1="236.4" y1="29.9" x2="238.4" y2="27.9"/>
		</g>
		<g>
			<line class="st27" x1="238.4" y1="75.3" x2="236.4" y2="73.3"/>
			<line class="st27" x1="193" y1="29.9" x2="191" y2="27.9"/>
		</g>
		<g>
			<line class="st27" x1="191" y1="75.3" x2="193" y2="73.3"/>
			<line class="st27" x1="236.4" y1="29.9" x2="238.4" y2="27.9"/>
		</g>
		<g>
			<line class="st27" x1="224.1" y1="83.8" x2="223.3" y2="81.1"/>
			<line class="st27" x1="206.1" y1="22.2" x2="205.3" y2="19.4"/>
		</g>
		<g>
			<line class="st27" x1="182.5" y1="61" x2="185.2" y2="60.2"/>
			<line class="st27" x1="244.1" y1="43" x2="246.9" y2="42.2"/>
		</g>
		<g>
			<line class="st27" x1="207.5" y1="84.4" x2="208.1" y2="81.6"/>
			<line class="st27" x1="221.3" y1="21.7" x2="221.9" y2="18.9"/>
		</g>
		<g>
			<line class="st27" x1="181.9" y1="44.4" x2="184.7" y2="45"/>
			<line class="st27" x1="244.7" y1="58.2" x2="247.4" y2="58.8"/>
		</g>
		<g>
			<path class="st28" d="M235.8,48.3c-1.7,0.6-3.4,1.2-5.2,1.7c-0.4,0.1-0.9,0.3-1.3,0.3c-0.4,0-0.9,0.1-1.3,0.2l-2.6,0.4l-10.6,1.7
				c-0.3,0.1-0.6-0.1-0.9-0.3l-10-10l-5-5c-0.5-0.4-0.8-0.9-1.1-1.3l-1.1-1.4c-0.7-1-1.4-1.9-2.1-2.9c1,0.7,2,1.4,2.9,2.1l1.4,1.1
				c0.5,0.4,1,0.7,1.3,1.1l5,5l10,10l-0.9-0.3l10.6-1.7l2.6-0.4c0.4-0.1,0.9-0.1,1.3-0.2c0.4-0.1,0.9-0.1,1.3-0.1
				C232.2,48.3,234,48.3,235.8,48.3z"/>
		</g>
		<line class="st29" x1="214.7" y1="51.6" x2="211.9" y2="24.4"/>
	</g>
	<g>
		<polygon class="st30" points="590.3,261.8 586.7,260 608.2,218.7 565.1,190.5 567.3,187.1 613.4,217.4 		"/>
		
			<rect x="594" y="206.8" transform="matrix(0.9921 -0.1251 0.1251 0.9921 -23.4103 76.3422)" class="st30" width="4.1" height="35.5"/>
		<circle class="st31" cx="610.8" cy="218" r="5.3"/>
		<circle class="st32" cx="610.8" cy="218" r="2.8"/>
		<path class="st33" d="M609,272.1c-4.5-9.9-14.4-16.7-26-16.7c-11.5,0-21.5,6.8-26,16.7H609z"/>
		<path class="st33" d="M573,215.2c2.5-10.5-1-22.1-10.1-29.2c-9.1-7.1-21.1-7.9-30.7-2.9L573,215.2z"/>
		<g>
			<path class="st34" d="M568.8,212l4.2,3.3c1.8-7.5,0.5-15.5-3.6-22C571.3,199.4,571.1,206,568.8,212z"/>
		</g>
		
			<ellipse transform="matrix(0.6177 -0.7864 0.7864 0.6177 66.4572 513.2787)" class="st33" cx="561.1" cy="188.3" rx="10.8" ry="10.8"/>
		<path class="st34" d="M583,255.4c-1,0-2,0.1-3,0.2c6.6,0.7,12.5,3.6,16.9,8c-3.4,0.6-6,3.6-6,7.2c0,0.5,0,1,0.1,1.4H609
			C604.5,262.3,594.6,255.4,583,255.4z"/>
	</g>
	<g>
		<path class="st25" d="M206.3,242.5c0,4,3.2,7.2,7.2,7.2h115.8c4,0,7.2-3.2,7.2-7.2v-78.5c0-4-3.2-7.2-7.2-7.2H213.5
			c-4,0-7.2,3.2-7.2,7.2V242.5z"/>
		<path class="st22" d="M197.1,242.5c0,4,3.2,7.2,7.2,7.2h115.8c4,0,7.2-3.2,7.2-7.2v-78.5c0-4-3.2-7.2-7.2-7.2H204.3
			c-4,0-7.2,3.2-7.2,7.2V242.5z"/>
		<polygon class="st25" points="240.9,271.5 275.5,271.5 275.5,209.8 247.8,209.8 		"/>
		<rect x="228.2" y="263.8" class="st35" width="60.8" height="7.6"/>
		<circle class="st25" cx="313.4" cy="237.4" r="3.7"/>
	</g>
	<g>
		<path class="st22" d="M173.5,259c0,0-4.7,5.9,0,12.4h-41.3l-4.2-1.7l-2.3-4.5l2.2-4.4l4.5-1.2L173.5,259z"/>
		<g>
			<defs>
				<path id="SVGID_1_" d="M173.5,259c0,0-4.7,5.9,0,12.4h-41.3l-4.2-1.7l-2.3-4.5l2.2-4.4l4.5-1.2L173.5,259z"/>
			</defs>
			<clipPath id="SVGID_2_">
				<use xlink:href="#SVGID_1_"  style="overflow:visible;"/>
			</clipPath>
			<g class="st36">
				<line class="st37" x1="126.6" y1="262" x2="174.8" y2="262"/>
				<line class="st37" x1="126.6" y1="263" x2="174.8" y2="263"/>
				<line class="st37" x1="126.6" y1="264" x2="174.8" y2="264"/>
				<line class="st37" x1="126.6" y1="265" x2="174.8" y2="265"/>
				<line class="st37" x1="126.6" y1="266" x2="174.8" y2="266"/>
				<line class="st37" x1="126.6" y1="267" x2="174.8" y2="267"/>
				<line class="st37" x1="126.6" y1="268" x2="174.8" y2="268"/>
				<line class="st37" x1="126.6" y1="269" x2="174.8" y2="269"/>
			</g>
		</g>
		<path class="st17" d="M173.7,273H133c-3,0-8.6-1.5-8.6-7.2c0-5.6,5.6-7.6,8.5-7.8c0,0,0.1,0,0.1,0h40.8c0.8,0,1.5,0.7,1.5,1.5
			c0,0.8-0.7,1.5-1.5,1.5H133c-0.6,0.1-5.8,0.7-5.8,4.9c0,4.3,5.5,4.3,5.7,4.3h40.8c0.8,0,1.5,0.7,1.5,1.5
			C175.2,272.3,174.6,273,173.7,273z"/>
	</g>
	<g>
		<path class="st22" d="M181.1,244c0,0-4.7,5.9,0,12.4h-41.3l-4.2-1.7l-2.3-4.5l2.2-4.4l4.5-1.2L181.1,244z"/>
		<g>
			<defs>
				<path id="SVGID_3_" d="M181.1,244c0,0-4.7,5.9,0,12.4h-41.3l-4.2-1.7l-2.3-4.5l2.2-4.4l4.5-1.2L181.1,244z"/>
			</defs>
			<clipPath id="SVGID_4_">
				<use xlink:href="#SVGID_3_"  style="overflow:visible;"/>
			</clipPath>
			<g class="st38">
				<line class="st37" x1="134.3" y1="246.9" x2="182.5" y2="246.9"/>
				<line class="st37" x1="134.3" y1="247.9" x2="182.5" y2="247.9"/>
				<line class="st37" x1="134.3" y1="248.9" x2="182.5" y2="248.9"/>
				<line class="st37" x1="134.3" y1="249.9" x2="182.5" y2="249.9"/>
				<line class="st37" x1="134.3" y1="250.9" x2="182.5" y2="250.9"/>
				<line class="st37" x1="134.3" y1="251.9" x2="182.5" y2="251.9"/>
				<line class="st37" x1="134.3" y1="252.9" x2="182.5" y2="252.9"/>
				<line class="st37" x1="134.3" y1="253.9" x2="182.5" y2="253.9"/>
			</g>
		</g>
		<path class="st39" d="M181.4,257.9h-40.8c-3,0-8.6-1.5-8.6-7.2c0-5.6,5.6-7.6,8.5-7.8c0,0,0.1,0,0.1,0h40.8c0.8,0,1.5,0.7,1.5,1.5
			s-0.7,1.5-1.5,1.5h-40.7c-0.6,0.1-5.8,0.7-5.8,4.9c0,4.3,5.5,4.3,5.7,4.3h40.8c0.8,0,1.5,0.7,1.5,1.5
			C182.8,257.3,182.2,257.9,181.4,257.9z"/>
	</g>
	<g>
		<path class="st40" d="M635.4,227.9c0,2.6-1.2,4.9-3.2,6.3c-1.9-1.4-3.2-3.7-3.2-6.3c0-2.6,1.2-4.9,3.2-6.3
			C634.2,223,635.4,225.3,635.4,227.9z"/>
		<path class="st41" d="M633.7,230.2c2.8,2.8,3.9,6.5,3.4,10.1c-3.6,0.5-7.4-0.6-10.1-3.4s-3.9-6.5-3.4-10.1
			C627.2,226.3,631,227.4,633.7,230.2z"/>
		<path class="st42" d="M630.8,230.2c-2.8,2.8-3.9,6.5-3.4,10.1c3.6,0.5,7.4-0.6,10.1-3.4c2.8-2.8,3.9-6.5,3.4-10.1
			C637.3,226.3,633.5,227.4,630.8,230.2z"/>
		<path class="st41" d="M631.9,237.9c-3.4,3.4-4.8,8.2-4.2,12.6c4.5,0.7,9.2-0.7,12.6-4.2c3.4-3.4,4.8-8.2,4.2-12.6
			C640,233,635.3,234.4,631.9,237.9z"/>
		<path class="st42" d="M636.9,243.3c-2.9,2.9-4.1,6.9-3.5,10.6c3.8,0.6,7.7-0.6,10.6-3.5c2.9-2.9,4.1-6.9,3.5-10.6
			C643.8,239.3,639.8,240.4,636.9,243.3z"/>
		<path class="st40" d="M632.6,237.9c3.4,3.4,4.8,8.2,4.2,12.6c-4.5,0.7-9.2-0.7-12.6-4.2c-3.4-3.4-4.8-8.2-4.2-12.6
			C624.5,233,629.2,234.4,632.6,237.9z"/>
		<path class="st42" d="M627.6,243.3c2.9,2.9,4.1,6.9,3.5,10.6c-3.8,0.6-7.7-0.6-10.6-3.5c-2.9-2.9-4.1-6.9-3.5-10.6
			C620.7,239.3,624.7,240.4,627.6,243.3z"/>
		<rect x="614.8" y="248.7" class="st43" width="34.9" height="5.9"/>
		<polygon class="st43" points="642.5,272.1 622,272.1 619.1,254.6 645.4,254.6 		"/>
		<polygon class="st44" points="644.9,257.4 645.4,254.6 619.1,254.6 619.6,257.4 		"/>
	</g>
</g>
</svg>
