<?xml version="1.0" encoding="utf-8"?>
<!-- Generator: Adobe Illustrator 16.0.0, SVG Export Plug-In . SVG Version: 6.00 Build 0)  -->
<!DOCTYPE svg PUBLIC "-//W3C//DTD SVG 1.1//EN" "http://www.w3.org/Graphics/SVG/1.1/DTD/svg11.dtd">
<svg version="1.1" id="Layer_1" xmlns="http://www.w3.org/2000/svg" xmlns:xlink="http://www.w3.org/1999/xlink" x="0px" y="0px"
	 width="251.299px" height="107.902px" viewBox="0 0 251.299 107.902" enable-background="new 0 0 251.299 107.902"
	 xml:space="preserve">
<text transform="matrix(1 0 0 1 8.1987 71.3206)" display="none" fill="#5037E2" enable-background="new    " font-family="'Jenthill'" font-size="85.3516">clinify</text>
<g enable-background="new    ">
	<path fill="#3F79F0" d="M43.364,41.24c0.739,0.229,1.28,0.641,1.622,1.237c0.341,0.598,0.455,1.209,0.341,1.835
		c-0.057,0.171-0.356,1.097-0.896,2.773c-0.542,1.68-1.366,3.643-2.476,5.89c-1.109,2.248-2.547,4.538-4.31,6.871
		c-1.764,2.333-3.898,4.239-6.401,5.718c-2.334,1.422-4.681,2.232-7.042,2.434c-2.362,0.199-4.282,0.241-5.761,0.128h-0.512
		c-0.285-0.058-0.597-0.085-0.939-0.085l-0.085-0.171h-0.171h-0.427c-0.057,0-0.085-0.029-0.085-0.085h-0.085
		c-4.268-0.911-7.169-3.472-8.706-7.683c-0.796-2.162-1.266-4.28-1.408-6.358c-0.142-2.076-0.071-4.195,0.213-6.358
		c0-0.171,0.029-0.354,0.085-0.555c0.058-0.198,0.085-0.44,0.085-0.727c0.399-1.934,0.883-3.841,1.451-5.719
		c0.568-1.877,1.394-3.67,2.475-5.377c0.625-0.967,1.308-1.891,2.048-2.773c0.739-0.882,1.592-1.665,2.561-2.348
		c2.446-1.763,4.993-2.604,7.639-2.518c2.646,0.085,5.22,1.124,7.724,3.114c1.537,1.311,2.531,2.987,2.987,5.036
		c0.113,0.684,0.184,1.396,0.213,2.134c0.028,0.74,0.043,1.479,0.043,2.22c0,0.627-0.115,1.236-0.342,1.835
		c-0.228,0.598-0.597,1.124-1.109,1.579c-0.683,0.739-1.466,1.023-2.347,0.854c-0.883-0.171-1.551-0.711-2.006-1.622
		c-0.285-0.566-0.499-1.151-0.64-1.749c-0.143-0.598-0.299-1.209-0.469-1.835c-0.399-1.081-1.067-1.777-2.006-2.092
		c-0.939-0.312-1.893-0.155-2.859,0.47c-0.626,0.513-1.195,1.195-1.707,2.049c-1.48,2.73-2.518,5.591-3.115,8.577
		c-0.597,2.987-0.755,6.047-0.469,9.177c0.113,1.31,0.568,2.334,1.365,3.071c0.796,0.74,1.849,1.253,3.158,1.536
		c2.617,0.456,5.092-0.056,7.426-1.536c2.39-1.364,4.523-3.071,6.401-5.121c0.909-1.364,1.707-2.743,2.39-4.14
		c0.683-1.394,1.251-2.659,1.707-3.798c0.512-1.365,0.939-2.674,1.28-3.926c0.171-0.739,0.568-1.294,1.195-1.665
		C42.026,41.17,42.681,41.071,43.364,41.24z"/>
	<path fill="#3F79F0" d="M75.797,41.24c0.625,0.342,1.08,0.825,1.366,1.45c0.284,0.627,0.256,1.311-0.085,2.05
		c-0.512,1.252-0.996,2.36-1.451,3.327c-0.456,0.97-1.011,2.106-1.664,3.414c-0.655,1.311-1.353,2.646-2.091,4.013
		c-0.341,0.568-0.669,1.139-0.981,1.707c-0.313,0.568-0.64,1.139-0.981,1.707c-0.683,1.365-1.48,2.688-2.39,3.969
		c-0.911,1.28-1.85,2.519-2.816,3.713c-0.627,0.796-1.31,1.507-2.048,2.134c-0.74,0.626-1.508,1.195-2.305,1.707
		c-1.423,1.024-2.917,1.55-4.481,1.579c-1.565,0.028-3.115-0.356-4.651-1.152c-2.277-1.193-4.097-2.815-5.463-4.864
		c-0.854-1.138-1.551-2.317-2.091-3.542c-0.542-1.224-1.039-2.488-1.494-3.799c-1.651-4.664-2.604-9.389-2.859-14.168
		c-0.256-4.779,0.015-9.615,0.811-14.51c0.397-2.446,0.896-4.836,1.494-7.17c0.597-2.333,1.379-4.637,2.347-6.913
		c0.568-1.422,1.237-2.788,2.005-4.098c0.769-1.309,1.721-2.531,2.859-3.67c0.455-0.513,0.952-0.995,1.494-1.451
		c0.54-0.454,1.095-0.881,1.665-1.28c1.138-0.683,2.318-1.095,3.542-1.236c1.223-0.143,2.375-0.015,3.457,0.384
		c1.081,0.398,2.049,1.039,2.902,1.921c0.854,0.883,1.536,1.949,2.048,3.2c0.455,1.194,0.753,2.462,0.896,3.799
		c0.142,1.337,0.213,2.66,0.213,3.969c-0.285,4.495-1.082,8.82-2.39,12.974c-2.504,7.568-5.975,14.737-10.413,21.509
		c-0.115,0.286-0.243,0.585-0.384,0.896c-0.143,0.313-0.186,0.612-0.128,0.896c0.114,1.31,0.327,2.646,0.64,4.012
		c0.312,1.365,0.867,2.617,1.665,3.755c0.512,0.798,0.952,1.381,1.323,1.75c0.37,0.371,0.754,0.584,1.152,0.64
		c0.397,0.059,0.811-0.056,1.238-0.341c0.427-0.284,0.952-0.652,1.579-1.108c1.08-0.854,2.048-1.807,2.902-2.859
		s1.622-2.147,2.304-3.286c1.251-1.991,2.461-3.981,3.627-5.975c1.166-1.991,2.318-3.982,3.457-5.976
		c0.056-0.112,0.113-0.198,0.17-0.256c0.056-0.057,0.085-0.142,0.085-0.257c0.113-0.17,0.199-0.354,0.256-0.555
		c0.056-0.198,0.141-0.384,0.256-0.556c0.284-0.625,0.753-1.095,1.408-1.407C74.445,40.972,75.114,40.957,75.797,41.24z
		 M52.154,22.036c-0.285,2.96-0.526,5.89-0.725,8.792c-0.2,2.9-0.384,5.833-0.555,8.791l0.256,0.768
		c0.397-0.854,0.753-1.635,1.067-2.347c0.312-0.711,0.668-1.438,1.067-2.178c1.138-2.331,2.147-4.68,3.03-7.04
		c0.882-2.36,1.55-4.822,2.006-7.384c0.341-1.935,0.512-3.812,0.512-5.634c0-0.625-0.085-1.266-0.256-1.92
		c-0.17-0.653-0.341-1.294-0.512-1.921c-0.286-0.796-0.64-1.223-1.067-1.28c-0.427-0.056-0.896,0.285-1.409,1.024
		c-0.285,0.285-0.512,0.611-0.683,0.98c-0.171,0.371-0.371,0.755-0.598,1.152c-0.569,1.365-1.039,2.718-1.408,4.054
		C52.509,19.235,52.268,20.615,52.154,22.036z"/>
	<path fill="#3F79F0" d="M100.89,41.411c0.625,0.284,1.067,0.782,1.323,1.494s0.241,1.38-0.043,2.006
		c-0.057,0.057-0.271,0.469-0.64,1.236c-0.371,0.769-0.883,1.766-1.536,2.987c-0.655,1.225-1.408,2.604-2.262,4.14
		c-0.854,1.536-1.765,3.103-2.732,4.695c-0.456,0.854-0.939,1.565-1.451,2.134c-1.31,2.105-2.789,4.211-4.438,6.315
		c-0.627,0.797-1.323,1.55-2.091,2.263c-0.768,0.71-1.608,1.322-2.518,1.835c-3.358,1.82-6.26,1.336-8.706-1.451
		c-0.854-0.969-1.536-1.991-2.048-3.072c-0.512-1.08-0.911-2.189-1.195-3.328c-0.796-3.243-1.251-6.516-1.366-9.815
		c-0.113-3.3,0.143-6.628,0.768-9.985c0.058-0.513,0.171-1.053,0.341-1.622c0.171-0.567,0.397-1.109,0.683-1.621
		c1.08-2.275,2.702-3.329,4.865-3.158c0.967,0.114,1.821,0.512,2.561,1.195c0.739,0.683,1.251,1.649,1.537,2.9
		c0.341,1.311,0.512,2.59,0.512,3.841c-0.115,1.822-0.271,3.614-0.47,5.377c-0.2,1.766-0.356,3.559-0.469,5.379
		c-0.058,1.022-0.128,2.034-0.213,3.028c-0.085,0.996-0.186,1.979-0.299,2.945c0,0.341,0,0.654,0,0.938
		c0,0.285,0.056,0.569,0.171,0.854c0.056,0.342,0.241,0.726,0.555,1.152c0.312,0.427,0.896,0.384,1.75-0.129h0.085l0.085-0.086
		l0.17-0.17c0.114,0,0.171-0.014,0.171-0.043c0-0.027,0.028-0.043,0.085-0.043l0.427-0.427l0.597-0.598
		c0.739-0.738,1.564-1.692,2.476-2.859c0.909-1.165,1.934-2.659,3.072-4.479c0.967-1.536,1.849-3.044,2.646-4.523
		c0.796-1.479,1.507-2.816,2.134-4.012c0.683-1.422,1.336-2.76,1.963-4.013c0.341-0.625,0.854-1.065,1.536-1.322
		C99.609,41.113,100.263,41.127,100.89,41.411z M80.405,30.145c-1.651,0-3.002-0.438-4.054-1.321
		c-1.053-0.883-1.636-2.062-1.75-3.542c-0.057-1.195,0.27-2.275,0.981-3.244c0.711-0.968,1.635-1.536,2.774-1.707
		c1.195-0.228,2.247-0.014,3.158,0.641c0.91,0.654,1.507,1.579,1.792,2.773c0.113,0.342,0.199,0.654,0.256,0.938
		c0.056,0.285,0.142,0.569,0.256,0.854c0.455,1.31,0.355,2.433-0.298,3.371C82.866,29.846,81.827,30.26,80.405,30.145z"/>
	<path fill="#3F79F0" d="M147.833,41.411c0.625,0.284,1.066,0.755,1.322,1.407c0.256,0.655,0.242,1.354-0.043,2.093
		c-0.057,0.057-0.271,0.482-0.641,1.279c-0.369,0.797-0.854,1.835-1.451,3.115c-0.597,1.28-1.31,2.746-2.133,4.396
		c-0.826,1.649-1.723,3.356-2.688,5.121c-2.39,4.438-4.41,7.738-6.06,9.899c-1.652,2.162-3.046,3.642-4.184,4.438
		c-0.911,0.967-1.926,1.593-3.04,1.878c-1.118,0.284-2.207,0.299-3.268,0.043c-1.062-0.257-2.023-0.77-2.884-1.537
		c-0.862-0.769-1.493-1.749-1.894-2.944c-0.345-0.798-0.604-1.664-0.776-2.604c-0.172-0.938-0.257-1.862-0.257-2.773
		c-0.228-3.756-0.143-7.48,0.256-11.182c0.397-3.697,1.166-7.396,2.305-11.097c0.056-0.17,0.099-0.396,0.128-0.683
		c0.028-0.284,0.099-0.653,0.213-1.109c-0.399,0.398-0.698,0.713-0.896,0.938c-0.2,0.229-0.413,0.427-0.64,0.598
		c-1.593,1.822-3.072,3.713-4.438,5.677c-1.366,1.963-2.646,3.998-3.841,6.103c-0.627,1.14-1.267,2.319-1.92,3.542
		c-0.655,1.225-1.353,2.405-2.091,3.543c-0.626,1.139-1.423,2.163-2.39,3.072c-1.139,1.082-2.376,1.551-3.713,1.408
		s-2.462-0.867-3.372-2.178c-0.398-0.512-0.725-1.065-0.981-1.664c-0.256-0.598-0.469-1.208-0.64-1.835
		c-0.967-3.526-1.479-7.042-1.536-10.541c-0.056-3.499,0.285-7.012,1.024-10.541c0.114-0.796,0.37-1.535,0.769-2.219
		c0.397-0.796,0.909-1.422,1.536-1.878c0.625-0.455,1.336-0.625,2.134-0.512c0.796,0.114,1.464,0.44,2.006,0.98
		c0.54,0.541,0.896,1.268,1.067,2.177c0.17,1.023,0.256,2.049,0.256,3.072v10.925v2.05v0.512v0.598
		c0.056,0.059,0.156-0.014,0.299-0.214c0.142-0.198,0.312-0.469,0.512-0.811c0.199-0.343,0.412-0.727,0.64-1.152
		c0.227-0.427,0.483-0.839,0.768-1.237c0.113-0.227,0.241-0.427,0.384-0.598c0.141-0.171,0.269-0.369,0.384-0.598h0.085
		c1.138-1.536,2.247-3.086,3.329-4.651c1.081-1.563,2.19-3.086,3.329-4.566c0.91-1.194,1.878-2.29,2.902-3.285
		s2.162-1.892,3.414-2.688c1.195-0.854,2.39-1.507,3.584-1.963c1.479-0.568,2.845-0.641,4.098-0.214
		c1.25,0.427,2.22,1.353,2.901,2.773c0.738,1.48,1.251,3.103,1.535,4.865c0.285,1.65,0.343,3.243,0.172,4.779
		c-0.172,1.536-0.395,3.072-0.672,4.608c-0.502,2.617-0.973,5.235-1.418,7.853c-0.444,2.618-0.916,5.236-1.416,7.853
		c-0.11,0.456-0.166,0.884-0.166,1.28c0,0.397-0.028,0.824-0.084,1.28h0.084c0.854-0.854,1.851-2.104,2.988-3.755
		c1.137-1.65,2.348-3.613,3.627-5.891c1.28-2.274,2.604-4.778,3.969-7.511c1.365-2.731,2.703-5.548,4.013-8.45
		c0.284-0.625,0.754-1.065,1.408-1.322C146.396,41.113,147.093,41.127,147.833,41.411z"/>
	<path fill="#3F79F0" d="M172.583,41.411c0.626,0.284,1.066,0.782,1.324,1.494c0.256,0.712,0.24,1.38-0.043,2.006
		c-0.059,0.057-0.271,0.469-0.641,1.236c-0.371,0.769-0.884,1.766-1.537,2.987c-0.654,1.225-1.408,2.604-2.262,4.14
		c-0.854,1.536-1.765,3.103-2.73,4.694c-0.457,0.854-0.939,1.565-1.451,2.134c-1.309,2.105-2.788,4.211-4.438,6.315
		c-0.627,0.797-1.324,1.55-2.093,2.263c-0.769,0.71-1.606,1.322-2.519,1.835c-3.356,1.82-6.26,1.336-8.705-1.451
		c-0.854-0.969-1.536-1.991-2.049-3.072c-0.512-1.08-0.91-2.189-1.194-3.328c-0.797-3.243-1.251-6.516-1.365-9.815
		c-0.112-3.3,0.144-6.628,0.769-9.985c0.058-0.513,0.17-1.053,0.342-1.622c0.17-0.567,0.396-1.109,0.683-1.621
		c1.08-2.275,2.702-3.329,4.864-3.158c0.968,0.114,1.82,0.512,2.561,1.195c0.74,0.683,1.252,1.649,1.537,2.9
		c0.342,1.311,0.512,2.59,0.512,3.841c-0.113,1.822-0.271,3.614-0.469,5.377c-0.199,1.766-0.355,3.559-0.47,5.378
		c-0.058,1.023-0.128,2.035-0.214,3.029c-0.085,0.996-0.186,1.979-0.299,2.945c0,0.341,0,0.654,0,0.938
		c0,0.285,0.057,0.569,0.172,0.854c0.055,0.342,0.24,0.726,0.555,1.152c0.312,0.427,0.896,0.384,1.749-0.129h0.085l0.086-0.086
		l0.17-0.17c0.114,0,0.172-0.014,0.172-0.043c0-0.027,0.027-0.043,0.086-0.043l0.426-0.427l0.599-0.598
		c0.738-0.738,1.563-1.692,2.476-2.859c0.91-1.165,1.934-2.659,3.071-4.479c0.968-1.536,1.851-3.044,2.646-4.523
		c0.798-1.479,1.509-2.816,2.135-4.012c0.684-1.422,1.337-2.76,1.964-4.013c0.341-0.625,0.854-1.065,1.535-1.322
		C171.304,41.113,171.957,41.127,172.583,41.411z M152.099,30.145c-1.649,0-3.002-0.438-4.054-1.321
		c-1.054-0.883-1.636-2.062-1.749-3.542c-0.059-1.195,0.27-2.275,0.98-3.244c0.711-0.968,1.636-1.536,2.773-1.707
		c1.194-0.228,2.247-0.014,3.158,0.641c0.909,0.654,1.507,1.579,1.792,2.773c0.112,0.342,0.199,0.654,0.256,0.938
		c0.058,0.285,0.144,0.569,0.257,0.854c0.454,1.31,0.354,2.433-0.299,3.371C154.56,29.846,153.521,30.26,152.099,30.145z"/>
	<path fill="#3F79F0" d="M202.028,41.156c0.74,0.113,1.337,0.44,1.793,0.98c0.455,0.542,0.625,1.152,0.512,1.835
		c0,0.115-0.113,0.883-0.341,2.305c-0.228,1.424-0.669,3.115-1.323,5.078s-1.607,4.026-2.859,6.188
		c-1.252,2.163-2.9,4.041-4.949,5.633c-0.114,0.171-0.229,0.256-0.342,0.256c-0.91,0.798-1.877,1.494-2.901,2.092
		s-2.104,1.097-3.243,1.493c-0.171,0.113-0.514,0.256-1.023,0.427c0.342,0.626,0.625,1.08,0.854,1.366
		c1.251,1.764,2.076,3.569,2.475,5.42c0.398,1.849,0.428,3.798,0.086,5.847c-0.397,2.161-0.969,4.195-1.707,6.104
		c-0.74,1.905-1.793,3.683-3.158,5.334c-0.627,0.796-1.321,1.494-2.09,2.091c-0.77,0.599-1.637,1.038-2.604,1.323
		c-3.243,0.967-6.06,0.284-8.45-2.049c-0.854-0.797-1.551-1.679-2.09-2.646c-0.542-0.968-1.012-1.991-1.409-3.071
		c-1.08-3.529-1.849-7.284-2.304-11.268c-0.455-6.657-0.428-13.229,0.085-19.717c0.512-6.486,1.651-12.943,3.414-19.374
		c0.796-2.73,1.678-5.335,2.646-7.811c0.967-2.476,2.135-4.937,3.5-7.384c0.684-1.364,1.479-2.674,2.391-3.926
		c0.908-1.251,1.934-2.39,3.072-3.414c1.309-1.422,2.901-2.445,4.779-3.072c2.957-1.138,5.689-0.626,8.193,1.536
		c2.73,2.504,3.841,5.662,3.328,9.475c-0.797,5.064-2.59,9.674-5.377,13.827c-4.098,6.315-8.705,12.119-13.826,17.411
		c-0.799,0.798-1.281,1.621-1.451,2.476c-0.171,0.854-0.2,1.736-0.086,2.646c0,0.342,0.129,0.697,0.385,1.066
		c0.256,0.371,0.555,0.612,0.896,0.726c0.682,0.456,1.421,0.825,2.219,1.109c0.796,0.285,1.592,0.484,2.39,0.598
		c1.194,0,2.503-0.214,3.927-0.641c1.422-0.427,2.845-1.208,4.269-2.347c1.308-0.968,2.401-2.135,3.285-3.499
		c0.882-1.366,1.606-2.761,2.177-4.184c0.113-0.171,0.171-0.354,0.171-0.555c0-0.199,0.027-0.384,0.085-0.555
		c0.229-0.854,0.428-1.679,0.598-2.477c0.172-0.796,0.371-1.592,0.599-2.39c0.056-0.342,0.142-0.653,0.256-0.938
		c0.113-0.283,0.228-0.567,0.341-0.854c0.113-0.739,0.412-1.353,0.896-1.836C200.591,41.313,201.231,41.1,202.028,41.156z
		 M181.801,86.648c0.796-1.252,1.408-2.561,1.835-3.926c0.428-1.366,0.668-2.789,0.727-4.268c0-0.627-0.029-1.237-0.086-1.835
		c-0.058-0.599-0.199-1.152-0.428-1.665c-0.682-1.65-1.649-3.115-2.9-4.396c-1.254-1.28-2.703-2.547-4.354-3.798
		c-0.115,2.446-0.256,4.808-0.428,7.084c-0.17,2.275-0.113,4.523,0.172,6.743c0.342,2.048,0.768,4.097,1.279,6.146
		c0.113,0.397,0.285,0.796,0.513,1.194c0.228,0.397,0.597,0.653,1.109,0.769c0.513,0.057,0.925-0.086,1.237-0.427
		c0.312-0.342,0.641-0.683,0.981-1.023C181.573,87.131,181.687,86.932,181.801,86.648z M179.496,44.656
		c-0.058,0.285-0.085,0.555-0.085,0.812c0,0.256-0.059,0.526-0.171,0.811c0.454-0.112,0.683-0.197,0.683-0.256
		c1.934-2.162,3.812-4.365,5.633-6.614c1.82-2.247,3.443-4.651,4.865-7.213c0.797-1.479,1.438-2.958,1.921-4.438
		s0.781-3.015,0.896-4.608c0.113-1.309-0.028-2.418-0.426-3.329c-0.397-1.309-0.953-2.02-1.664-2.134
		c-0.713-0.112-1.522,0.342-2.434,1.365c-0.797,0.911-1.48,1.921-2.048,3.03c-0.569,1.108-1.081,2.233-1.536,3.371
		c-1.195,3.131-2.277,6.288-3.244,9.475C180.918,38.113,180.122,41.356,179.496,44.656z"/>
	<path fill="#3F79F0" d="M244.448,41.924c0.568,0.512,0.867,1.109,0.896,1.792c0.027,0.683-0.186,1.338-0.641,1.963l-13.485,14.853
		c0,4.268-0.271,8.491-0.812,12.675c-0.54,4.182-1.209,8.406-2.006,12.675c-0.17,1.194-0.383,2.375-0.64,3.542
		c-0.256,1.165-0.555,2.375-0.896,3.627c-0.627,2.617-1.908,4.95-3.842,6.999c-1.023,1.138-2.176,2.049-3.457,2.731
		c-1.279,0.682-2.717,1.023-4.311,1.023c-3.188,0-5.49-1.366-6.913-4.098c-0.457-0.854-0.782-1.693-0.981-2.519
		c-0.199-0.824-0.299-1.692-0.299-2.604c0.057-3.584,0.397-7.084,1.024-10.498c0.625-3.414,1.82-6.742,3.584-9.986
		c0.797-1.536,1.664-3.044,2.604-4.522c0.938-1.48,1.891-2.958,2.858-4.438c0.284-0.454,0.513-0.924,0.683-1.408
		c0.172-0.481,0.172-1.037,0-1.664c-0.455,0.285-0.711,0.541-0.769,0.77c-0.512,0.683-1.022,1.38-1.534,2.091
		c-0.514,0.712-1.025,1.408-1.537,2.091c-0.229,0.284-0.457,0.54-0.684,0.77c-0.229,0.227-0.484,0.481-0.77,0.768
		c-2.334,2.275-4.692,3.271-7.084,2.987c-2.39-0.285-4.467-1.792-6.229-4.523c-1.364-2.219-2.076-4.607-2.134-7.169
		c-0.113-2.958-0.043-5.875,0.214-8.749c0.256-2.872,0.782-5.761,1.578-8.663c0.284-1.08,0.653-2.134,1.108-3.157
		c0.113-0.284,0.242-0.568,0.385-0.854c0.142-0.284,0.354-0.512,0.642-0.683c0.513-0.625,1.108-1.067,1.791-1.323
		c0.685-0.256,1.337-0.241,1.964,0.043c1.366,0.512,2.135,1.536,2.305,3.072c0,0.456-0.029,0.896-0.084,1.322
		c-0.06,0.428-0.086,0.868-0.086,1.323c-0.285,2.39-0.556,4.794-0.812,7.212c-0.256,2.419-0.526,4.853-0.812,7.298
		c-0.172,1.14-0.172,2.361,0,3.67c0.113,0.627,0.27,1.226,0.469,1.792c0.199,0.57,0.584,1.082,1.152,1.537
		c0.342-0.283,0.684-0.54,1.023-0.769c0.342-0.228,0.654-0.482,0.939-0.77c2.049-2.048,3.812-4.237,5.291-6.57
		s2.703-4.865,3.67-7.598c0.285-0.854,0.483-1.849,0.599-2.986c0.112-1.139,0.228-2.306,0.341-3.499
		c0.113-1.195,0.227-2.361,0.342-3.5c0.113-1.08,0.369-1.991,0.768-2.731c0.798-1.536,1.965-2.332,3.5-2.39
		c1.537-0.057,2.787,0.627,3.757,2.049c0.282,0.398,0.524,0.825,0.725,1.28c0.199,0.456,0.355,0.911,0.472,1.364
		c0.283,1.424,0.582,2.847,0.896,4.269c0.312,1.423,0.61,2.874,0.896,4.354c0.058,0.17,0.115,0.37,0.172,0.598
		c0.057,0.229,0.113,0.483,0.171,0.769l0.428,5.633l9.985-11.096c0.455-0.512,1.037-0.781,1.75-0.811
		C243.323,41.255,243.937,41.469,244.448,41.924z M218.416,95.354c0.112-0.798,0.256-1.564,0.427-2.305
		c0.17-0.74,0.256-1.508,0.256-2.305c-0.115-2.562-0.213-5.15-0.299-7.768c-0.085-2.618-0.156-5.206-0.213-7.767
		c0-0.456-0.029-0.911-0.086-1.366c-0.057-0.456-0.113-0.968-0.17-1.536c-0.229,0.113-0.371,0.198-0.428,0.256
		s-0.144,0.143-0.256,0.256c-2.105,3.414-3.643,6.957-4.609,10.628c-0.967,3.67-1.309,7.495-1.023,11.479
		c0.113,0.397,0.228,0.811,0.342,1.237c0.113,0.427,0.256,0.781,0.427,1.066c0.397,0.796,0.896,1.267,1.493,1.408
		c0.599,0.142,1.267,0.014,2.007-0.384C217.362,97.629,218.075,96.662,218.416,95.354z"/>
</g>
</svg>
