<svg xmlns="http://www.w3.org/2000/svg" viewBox="0 0 93 93.99">
  <defs>
    <style>
      .cls-1 {
        fill: #fffff6;
      }

      .cls-2 {
        fill: #ffffc3;
      }

      .cls-3 {
        fill: #00ce8c;
      }

      .cls-4 {
        fill: #f38290;
      }

      .cls-5 {
        fill: #64375a;
      }
    </style>
  </defs>
  <title>Prancheta 6 cópia 9</title>
  <g id="icons">
    <g>
      <polygon class="cls-1" points="57.14 29.85 35.85 29.85 25.35 47.6 25.35 64.04 27.09 66.5 65.9 66.5 67.64 64.04 67.64 47.6 57.14 29.85"/>
      <polygon class="cls-2" points="46.38 29.85 35.85 29.85 25.35 46.9 25.35 66.5 46.38 66.5 46.38 29.85"/>
      <polygon class="cls-3" points="56.41 29.85 35.85 29.85 30.45 47.71 30.45 64.04 25.35 64.04 26.99 66.5 66.29 66.5 67.93 64.04 64.4 64.04 64.4 47.71 56.41 29.85"/>
      <path class="cls-4" d="M44.08,58a1,1,0,0,1-1-1V53.28H39.32a1,1,0,0,1-1-1V47.44a1,1,0,0,1,1-1h3.75V42.68a1,1,0,0,1,1-1h4.83a1,1,0,0,1,1,1v3.75h3.75a1,1,0,0,1,1,1v4.83a1,1,0,0,1-1,1H49.92V57a1,1,0,0,1-1,1Z"/>
      <path class="cls-1" d="M61.89,40.28H75.14V36.39H73.48s-1.34-5.13-1.34-5.23A1.5,1.5,0,0,0,71,29.69c-13-2.94-36.08-2.94-49,0a1.5,1.5,0,0,0-1.15,1.46c0,.11-1.27,5.23-1.27,5.23H17.85v3.89H31.11V36.39H29V32.81a243.77,243.77,0,0,1,35.09,0v3.57H61.89Z"/>
      <path class="cls-2" d="M46.4,32.19v-4.7c-9,0-18,.74-24.46,2.2a1.5,1.5,0,0,0-1.15,1.46c0,.11-1.27,5.23-1.27,5.23H17.85v3.89H31.11V36.39H29V32.81C33,32.4,39.71,32.19,46.4,32.19Z"/>
      <path class="cls-3" d="M61.21,40.28H72.9V36.39H71.43s-1.18-5.13-1.18-5.23a1.47,1.47,0,0,0-1-1.46c-11.43-2.94-31.81-2.94-43.24,0a1.47,1.47,0,0,0-1,1.46c0,.11-1.12,5.23-1.12,5.23H22.38v3.89H34.07V36.39h-1.9V32.81a189.64,189.64,0,0,1,30.94,0v3.57h-1.9Z"/>
      <g>
        <path class="cls-5" d="M53.67,45.43H50.93V42.68a2,2,0,0,0-2-2H44.08a2,2,0,0,0-2,2v2.75H39.32a2,2,0,0,0-2,2v4.83a2,2,0,0,0,2,2h2.75V57a2,2,0,0,0,2,2h4.83a2,2,0,0,0,2-2V54.29h2.75a2,2,0,0,0,2-2V47.44A2,2,0,0,0,53.67,45.43Zm0,6.85H48.91V57H44.08V52.28H39.32V47.44h4.76V42.68h4.83v4.76h4.76Z"/>
        <path class="cls-5" d="M77.51,34a3.35,3.35,0,0,0-1.41-.84c-.29-1.12-.54-2.08-.64-2.5a4.82,4.82,0,0,0-3.74-4.26C65.31,25,56.1,24.13,46.46,24.13S27.61,25,21.2,26.42a4.83,4.83,0,0,0-3.75,4.29c-.09.41-.32,1.36-.6,2.48a3.36,3.36,0,0,0-2.35,3.2v3.89a3.36,3.36,0,0,0,3.36,3.36H23.8l-1.34,2.26A3.36,3.36,0,0,0,22,47.6V64A3.36,3.36,0,0,0,22.61,66l1.74,2.46a3.36,3.36,0,0,0,2.74,1.42H65.9a3.36,3.36,0,0,0,2.74-1.42L70.38,66A3.36,3.36,0,0,0,71,64V47.6a3.36,3.36,0,0,0-.47-1.71l-1.34-2.26h5.95a3.35,3.35,0,0,0,3.36-3.35V36.39A3.36,3.36,0,0,0,77.51,34ZM67.64,47.6V63H63.79a1,1,0,1,0,0,2h3.15l-1,1.45H27.09l-1-1.45h33.7a1,1,0,0,0,0-2H25.35V47.6l2.35-4h3.41a3.35,3.35,0,0,0,3.35-3.36V36.39a3.3,3.3,0,0,0-.05-.59c3.42-.16,7.6-.25,12-.25s8.7.09,12.16.26a3.34,3.34,0,0,0-.05.59v3.88a3.36,3.36,0,0,0,3.36,3.35h3.41Zm7.5-7.33H61.89V36.42h8.28a1,1,0,1,0,0-2H64V32.82c-4.12-.42-10.88-.64-17.62-.64S33,32.4,29,32.81v3.58h2.16v3.89H17.85V36.42h8a1,1,0,1,0,0-2H20c.36-1.46.78-3.19.78-3.25a1.5,1.5,0,0,1,1.15-1.46c6.48-1.47,15.5-2.2,24.52-2.2s18,.73,24.52,2.2a1.5,1.5,0,0,1,1.16,1.46c0,.11,1.34,5.23,1.34,5.23h1.66Z"/>
      </g>
    </g>
  </g>
</svg>
