<svg xmlns="http://www.w3.org/2000/svg" viewBox="0 0 93 93.99">
  <defs>
    <style>
      .cls-1 {
        fill: #fff;
      }

      .cls-2 {
        fill: #ffffc3;
      }

      .cls-3 {
        fill: #fffff6;
      }

      .cls-4 {
        fill: #64375a;
      }

      .cls-5 {
        fill: #00ce8c;
      }
    </style>
  </defs>
  <title>Prancheta 6 cópia 41</title>
  <g id="icons">
    <g>
      <path class="cls-1" d="M73.45,36.57H26.2a1.75,1.75,0,0,1-1.13-.41l-6.65-5.58a1.75,1.75,0,0,1,2.25-2.68l6.16,5.17H73.45a1.75,1.75,0,1,1,0,3.5Z"/>
      <path class="cls-2" d="M59.78,33.07H26.83L20.67,27.9a1.75,1.75,0,0,0-2.25,2.68l6.65,5.58a1.75,1.75,0,0,0,1.13.41H59.78Z"/>
      <circle class="cls-3" cx="27.33" cy="64.77" r="3.38"/>
      <circle class="cls-3" cx="65.66" cy="64.77" r="3.38"/>
      <g>
        <path class="cls-4" d="M73.45,29.77H28l-5.24-4.4a5,5,0,1,0-6.48,7.74L23,38.69a5.05,5.05,0,0,0,3.24,1.18h1.89l16,7L26.94,54.42a1,1,0,0,0-.21.14,1.65,1.65,0,0,0,.6,3.18H65.66a1.64,1.64,0,0,0,1-3,1,1,0,0,0-.41-.37L49.06,46.89l16-7h8.35a5,5,0,1,0,0-10.09ZM61.38,54.45H31.8L46.59,48ZM46.59,45.81,33,39.87H60.17Zm26.86-9.24H26.2a1.75,1.75,0,0,1-1.13-.41l-6.65-5.58a1.75,1.75,0,0,1,2.25-2.68l6.16,5.17H73.45a1.75,1.75,0,1,1,0,3.5Z"/>
        <path class="cls-4" d="M27.33,59.74a5,5,0,1,0,5,5A5,5,0,0,0,27.33,59.74Zm0,6.76a1.73,1.73,0,1,1,1.73-1.73A1.73,1.73,0,0,1,27.33,66.5Z"/>
        <path class="cls-4" d="M65.66,59.74a5,5,0,1,0,5,5A5,5,0,0,0,65.66,59.74Zm0,6.76a1.73,1.73,0,1,1,1.73-1.73A1.73,1.73,0,0,1,65.66,66.5Z"/>
      </g>
      <polygon class="cls-5" points="69.76 36.57 31.09 36.57 26.83 33.07 69.76 33.07 69.76 36.57"/>
    </g>
  </g>
</svg>
