<svg xmlns="http://www.w3.org/2000/svg" viewBox="0 0 93 93.99">
  <defs>
    <style>
      .cls-1 {
        fill: #fffff6;
      }

      .cls-2 {
        fill: #ffffc3;
      }

      .cls-3 {
        fill: #00ce8c;
      }

      .cls-4 {
        opacity: 0.6;
      }

      .cls-5 {
        fill: #ff3246;
      }

      .cls-6 {
        fill: #64375a;
      }
    </style>
  </defs>
  <title>Prancheta 6 cópia 60</title>
  <g id="icons">
    <g>
      <rect class="cls-1" x="31.87" y="38.66" width="29.26" height="37"/>
      <polygon class="cls-1" points="61.13 23.31 61.13 18.33 31.87 18.33 31.87 23.31 28.4 23.31 28.4 35.33 64.6 35.33 64.6 23.31 61.13 23.31"/>
      <polygon class="cls-2" points="50.75 23.31 48.58 23.31 48.58 18.33 30.26 18.33 30.26 23.31 28.09 23.31 28.09 35.33 30.26 35.33 30.26 75.66 48.58 75.66 48.58 35.33 50.75 35.33 50.75 23.31"/>
      <polygon class="cls-3" points="59.43 23.31 57.35 23.31 57.35 18.33 39.8 18.33 39.8 23.31 37.72 23.31 37.72 35.33 39.8 35.33 39.8 75.66 57.35 75.66 57.35 35.33 59.43 35.33 59.43 23.31"/>
      <g class="cls-4">
        <rect class="cls-5" x="34.9" y="53.16" width="23.14" height="19.67"/>
      </g>
      <path class="cls-6" d="M64.6,20h-.14V18.33A3.33,3.33,0,0,0,61.13,15H31.87a3.33,3.33,0,0,0-3.33,3.33V20H28.4a3.33,3.33,0,0,0-3.33,3.33v12a3.33,3.33,0,0,0,3.33,3.33h.14v37A3.33,3.33,0,0,0,31.87,79H61.13a3.33,3.33,0,0,0,3.33-3.33v-37h.14a3.33,3.33,0,0,0,3.33-3.33v-12A3.33,3.33,0,0,0,64.6,20Zm-32.73,28h19.5V66.39H31.87ZM61.13,75.66H31.87V68.39h20.5a1,1,0,0,0,1-1V46.94a1,1,0,0,0-1-1H31.87V38.66H61.13ZM64.6,35.33H28.4v-12H51a1,1,0,0,0,0-2H31.87v-3H61.13v3H56.87a1,1,0,0,0,0,2H64.6Z"/>
    </g>
  </g>
</svg>
