<svg xmlns="http://www.w3.org/2000/svg" viewBox="0 0 93 93.99">
  <defs>
    <style>
      .cls-1 {
        fill: #fffff6;
      }

      .cls-2 {
        fill: #ffffc3;
      }

      .cls-3 {
        fill: #00ce8c;
      }

      .cls-4 {
        fill: #64375a;
      }

      .cls-5 {
        opacity: 0.6;
      }

      .cls-6 {
        fill: #ff3246;
      }
    </style>
  </defs>
  <title>Prancheta 6 cópia 16</title>
  <g id="icons">
    <g>
      <path class="cls-1" d="M44.56,51a2.35,2.35,0,0,0-.67,1.48A27.21,27.21,0,0,0,52,74.73a2.62,2.62,0,1,0,3.66-3.66,20.86,20.86,0,0,1-6.16-17.3,3.31,3.31,0,0,0-2.55-3.36A2.49,2.49,0,0,0,44.56,51Z"/>
      <path class="cls-1" d="M50.47,45.11a2.35,2.35,0,0,1,1.48-.67,27.21,27.21,0,0,1,22.23,8.08,2.62,2.62,0,1,1-3.66,3.66A20.86,20.86,0,0,0,53.22,50a3.31,3.31,0,0,1-3.36-2.55A2.49,2.49,0,0,1,50.47,45.11Z"/>
      <path class="cls-1" d="M42.42,48.77a2.35,2.35,0,0,1-1.48.67,27,27,0,0,1-22.14-8,2.8,2.8,0,0,1-.27-3.94,2.8,2.8,0,0,1,3.93.28,20.68,20.68,0,0,0,17.22,6.08A3.27,3.27,0,0,1,43,46.42,2.5,2.5,0,0,1,42.42,48.77Z"/>
      <path class="cls-1" d="M48.33,42.87A2.36,2.36,0,0,0,49,41.39a27,27,0,0,0-8-22.14A2.8,2.8,0,0,0,37.08,19a2.8,2.8,0,0,0,.27,3.94,20.67,20.67,0,0,1,6.08,17.22A3.28,3.28,0,0,0,46,43.48,2.5,2.5,0,0,0,48.33,42.87Z"/>
      <path class="cls-2" d="M47.25,44.82c.41-.41-.47-1.12-.41-1.78.84-9.3-1.38-17.06-7.93-23.62-1.27-1.27-2.86-1.87-4-.76a3.07,3.07,0,0,0,.3,4.31A22.63,22.63,0,0,1,41.9,41.83a3.58,3.58,0,0,0,2.77,3.66A2.73,2.73,0,0,0,47.25,44.82Z"/>
      <path class="cls-3" d="M34.94,18.67h0a3.52,3.52,0,0,1,2,1C44,26.78,46.47,34,45.06,43.26c-.1.65.13.64-.28,1a2.7,2.7,0,0,0,2.35-.71A2.57,2.57,0,0,0,47.87,42c.84-9.3-2.07-16.46-8.62-23A3.07,3.07,0,0,0,34.94,18.67Z"/>
      <path class="cls-2" d="M48.33,46.31c.41-.41,1.09.44,1.73.37,9.15-1,16.73,1,23,7.36,1.23,1.22,1.79,2.77.68,3.88a3,3,0,0,1-4.22-.21c-4.91-4.91-11.1-7-18.39-6.2a3.36,3.36,0,0,1-3.55-2.65A2.76,2.76,0,0,1,48.33,46.31Z"/>
      <path class="cls-3" d="M73.79,57.92h0A3.32,3.32,0,0,0,72.83,56c-6.84-6.84-13.9-9.15-23-7.59-.64.11-.62-.11-1,.29a2.73,2.73,0,0,1,.74-2.33,2.63,2.63,0,0,1,1.6-.75c9.15-1,16.12,1.73,22.44,8A3,3,0,0,1,73.79,57.92Z"/>
      <path class="cls-3" d="M43,50.39A2.62,2.62,0,0,0,42.22,52a28.59,28.59,0,0,0,8.36,23.86,2.85,2.85,0,1,0,4-4c-5-5-7.12-11.22-6.37-18.56a3.44,3.44,0,0,0-2.7-3.59A2.74,2.74,0,0,0,43,50.39Z"/>
      <path class="cls-2" d="M45.63,51.09A28.59,28.59,0,0,0,54,74.95a3.48,3.48,0,0,0,1.16.76,2.49,2.49,0,0,1-.31.39,3,3,0,0,1-4.25-.25A28.59,28.59,0,0,1,42.22,52,2.62,2.62,0,0,1,43,50.39a2.74,2.74,0,0,1,2.55-.69,3.27,3.27,0,0,1,.54.17A2.65,2.65,0,0,0,45.63,51.09Z"/>
      <path class="cls-3" d="M43.36,50.79a2.58,2.58,0,0,1-1.62.74,29.53,29.53,0,0,1-24.24-8.74,3.07,3.07,0,0,1-.3-4.31,3.07,3.07,0,0,1,4.31.3,22.63,22.63,0,0,0,18.86,6.66A3.58,3.58,0,0,1,44,48.21,2.73,2.73,0,0,1,43.36,50.79Z"/>
      <path class="cls-2" d="M42.63,48.09a29.52,29.52,0,0,1-24.24-8.74,3.61,3.61,0,0,1-.79-1.18,2.35,2.35,0,0,0-.39.31,3.07,3.07,0,0,0,.3,4.31,29.53,29.53,0,0,0,24.24,8.74,2.58,2.58,0,0,0,1.62-.74A2.73,2.73,0,0,0,44,48.21a3.57,3.57,0,0,0-.18-.55A2.63,2.63,0,0,1,42.63,48.09Z"/>
      <path class="cls-4" d="M76.51,50.19A30.39,30.39,0,0,0,54.62,41c-.76,0-1.53,0-2.3.09a30.12,30.12,0,0,0-9-24.19A6.5,6.5,0,0,0,38.8,15a5.67,5.67,0,0,0-4,1.65,5.74,5.74,0,0,0-1.64,4.47A6.49,6.49,0,0,0,35,25.25a17.29,17.29,0,0,1,5.13,14.59,6.11,6.11,0,0,0,0,.76h-.23l-.54,0c-.68.06-1.35.09-2,.09A17,17,0,0,1,24.8,35.47a6.5,6.5,0,0,0-4.55-1.93,5.67,5.67,0,0,0-4,1.65,6.1,6.1,0,0,0,.27,8.6,30.15,30.15,0,0,0,21.71,9.07c.78,0,1.58,0,2.38-.09a30.38,30.38,0,0,0,9.06,24.29A6.53,6.53,0,0,0,54.2,79a5.67,5.67,0,0,0,4-1.65A6.11,6.11,0,0,0,58,68.74a17.48,17.48,0,0,1-5.21-14.68,5.59,5.59,0,0,0,0-.75l.23,0,.53,0c.66-.06,1.31-.09,1.95-.09a17.21,17.21,0,0,1,12.73,5.29,6.53,6.53,0,0,0,4.57,1.94,5.68,5.68,0,0,0,4-1.65A6.11,6.11,0,0,0,76.51,50.19ZM37.36,22.91A2.8,2.8,0,0,1,37.08,19a2.39,2.39,0,0,1,1.72-.68,3.17,3.17,0,0,1,2.22,1,27,27,0,0,1,8,22.14,2.36,2.36,0,0,1-.67,1.47,2.41,2.41,0,0,1-1.72.69,3,3,0,0,1-.63-.07,3.28,3.28,0,0,1-2.53-3.35A20.67,20.67,0,0,0,37.36,22.91ZM18.81,41.46a2.8,2.8,0,0,1-.27-3.94,2.4,2.4,0,0,1,1.72-.68,3.17,3.17,0,0,1,2.22,1A20.4,20.4,0,0,0,37.39,44q1.13,0,2.3-.11h.25A3.3,3.3,0,0,1,43,46.42a2.5,2.5,0,0,1-.61,2.35,2.35,2.35,0,0,1-1.48.67q-1.39.13-2.76.13A26.81,26.81,0,0,1,18.81,41.46Zm36.82,29.6A2.81,2.81,0,0,1,55.91,75a2.38,2.38,0,0,1-1.71.68,3.2,3.2,0,0,1-2.24-1,27.21,27.21,0,0,1-8.08-22.24A2.35,2.35,0,0,1,44.56,51a2.4,2.4,0,0,1,1.71-.68,2.87,2.87,0,0,1,.64.07,3.31,3.31,0,0,1,2.55,3.36A20.86,20.86,0,0,0,55.63,71.07Zm18.84-14.6a2.39,2.39,0,0,1-1.71.68,3.2,3.2,0,0,1-2.24-1,20.62,20.62,0,0,0-15.06-6.26q-1.1,0-2.24.1H53a3.34,3.34,0,0,1-3.13-2.56,2.49,2.49,0,0,1,.61-2.36,2.35,2.35,0,0,1,1.48-.67q1.35-.12,2.67-.12a27.07,27.07,0,0,1,19.56,8.19A2.81,2.81,0,0,1,74.47,56.46Z"/>
      <g class="cls-5">
        <path class="cls-6" d="M41.2,48.43a.62.62,0,0,1-.38.18c-.67.06-1.08-.6-1.51-1.3-.1-.16-.23-.38-.35-.54-.11.17-.24.41-.33.57-.39.71-.76,1.39-1.42,1.37s-1-.73-1.33-1.48c-.08-.17-.18-.4-.28-.58-.13.16-.29.37-.4.52-.48.66-.93,1.29-1.59,1.17s-.88-.86-1.12-1.64c-.05-.18-.13-.43-.2-.62-.15.14-.33.33-.46.46-.57.59-1.11,1.14-1.74.94s-.75-1-.87-1.78c0-.18-.07-.45-.11-.64-.17.11-.38.27-.52.39-.65.5-1.26,1-1.86.68s-.6-1.07-.61-1.88c0-.19,0-.45,0-.65-.18.09-.41.22-.57.31-.71.41-1.39.79-1.95.42s-.45-1.14-.34-1.95c0-.18.06-.45.07-.65-.19.06-.43.16-.6.23-.76.31-1.48.6-2,.16s-.3-1.18-.09-2a4.93,4.93,0,0,0,.18-.86.62.62,0,0,1,1-.77c.45.45.26,1.18.05,2,0,.16-.1.37-.14.55l.54-.21c.73-.3,1.42-.58,1.93-.19s.4,1.14.3,1.93c0,.16-.05.38-.07.56l.51-.28c.69-.39,1.33-.76,1.88-.45s.56,1.07.56,1.87c0,.16,0,.38,0,.57l.46-.34c.63-.48,1.22-.94,1.81-.71s.7,1,.81,1.76c0,.16.06.38.09.56.14-.13.29-.29.4-.4.55-.57,1.07-1.11,1.69-1s.83.87,1.05,1.63c0,.16.11.37.17.55.12-.15.25-.32.34-.46.47-.64.91-1.25,1.55-1.19s.94.75,1.26,1.47c.07.15.16.36.25.53.1-.16.2-.36.28-.5.38-.7.74-1.37,1.38-1.38s1,.62,1.44,1.29a5.39,5.39,0,0,0,.5.72.62.62,0,0,1,.34,1.05Z"/>
      </g>
      <g class="cls-5">
        <path class="cls-6" d="M47.89,41.74a.62.62,0,0,0,.18-.38c.06-.67-.6-1.08-1.3-1.51-.16-.1-.38-.23-.54-.35.17-.11.41-.24.57-.33.72-.39,1.39-.76,1.37-1.42s-.73-1-1.48-1.33c-.17-.08-.4-.18-.58-.28.16-.13.37-.29.52-.4.66-.48,1.28-.93,1.17-1.59s-.86-.88-1.65-1.12l-.62-.2c.14-.15.33-.34.46-.46.59-.57,1.15-1.11.94-1.74s-1-.75-1.78-.87l-.64-.11c.11-.17.27-.38.39-.52.5-.65,1-1.26.68-1.87s-1.07-.61-1.88-.61c-.19,0-.45,0-.65,0,.09-.18.22-.41.31-.57.41-.71.79-1.39.42-1.94s-1.14-.45-1.95-.34c-.18,0-.45.06-.65.07.06-.19.16-.43.23-.6.31-.76.6-1.48.16-2s-1.18-.3-2-.09a5,5,0,0,1-.86.18.62.62,0,0,0-.77,1c.46.45,1.18.26,2,.05l.55-.14c-.06.18-.15.39-.21.54-.3.73-.58,1.42-.19,1.93s1.14.4,1.93.3l.56-.07c-.09.17-.2.37-.28.51-.39.69-.76,1.34-.45,1.88s1.07.56,1.86.56h.57c-.11.15-.24.33-.34.46-.49.62-.95,1.22-.71,1.81s1,.7,1.76.81l.57.09c-.13.14-.29.29-.4.4-.57.55-1.11,1.07-1,1.69s.87.83,1.63,1.05l.55.17-.45.34c-.64.47-1.25.91-1.19,1.55s.75.94,1.47,1.26l.53.25-.5.28c-.7.38-1.36.74-1.38,1.38s.62,1,1.29,1.44a5.23,5.23,0,0,1,.72.5.62.62,0,0,0,1.05.34Z"/>
      </g>
      <g class="cls-5">
        <path class="cls-6" d="M45.17,52.4a.61.61,0,0,0-.18.38c-.06.67.6,1.08,1.3,1.51.15.1.38.23.54.35-.17.11-.41.24-.57.33-.71.39-1.39.76-1.37,1.42s.73,1,1.48,1.33c.17.07.4.18.58.28-.16.13-.37.29-.52.4-.66.48-1.28.93-1.17,1.59s.86.88,1.65,1.12c.18.05.43.13.62.2-.14.15-.33.33-.46.46-.59.57-1.14,1.11-.94,1.74s1,.75,1.78.87c.18,0,.44.06.64.11-.11.17-.27.38-.39.52-.5.65-1,1.26-.68,1.86s1.07.61,1.88.61c.19,0,.45,0,.65,0-.09.18-.22.41-.31.57-.41.71-.79,1.39-.42,1.95s1.14.45,1.95.34l.65-.07c-.06.19-.16.43-.23.6-.31.76-.6,1.48-.16,2s1.18.3,2,.09a5.15,5.15,0,0,1,.86-.19.62.62,0,0,0,.77-1c-.46-.45-1.18-.26-2-.05l-.55.14c.06-.18.15-.39.21-.55.3-.73.58-1.42.19-1.92s-1.14-.4-1.93-.3l-.56.07c.08-.17.2-.37.28-.51.39-.69.76-1.33.45-1.88s-1.07-.55-1.86-.56h-.57c.11-.16.24-.33.34-.46.49-.63.94-1.22.71-1.81s-1-.7-1.76-.81l-.56-.09.4-.4c.57-.55,1.11-1.07,1-1.69s-.87-.83-1.63-1.05l-.55-.17.45-.34c.64-.47,1.25-.91,1.19-1.55s-.75-.94-1.47-1.26l-.53-.25.5-.28c.7-.38,1.36-.74,1.38-1.38s-.62-1-1.29-1.44a5.25,5.25,0,0,1-.72-.5.62.62,0,0,0-1.05-.34Z"/>
      </g>
      <g class="cls-5">
        <path class="cls-6" d="M51.86,45.71a.62.62,0,0,1,.39-.18c.67-.06,1.08.61,1.51,1.3.1.16.23.38.35.54.11-.17.24-.4.33-.57.39-.72.76-1.39,1.42-1.37s1,.73,1.33,1.48c.08.17.18.4.28.58.13-.16.29-.37.4-.52.48-.66.93-1.28,1.59-1.17s.88.86,1.12,1.65c.05.18.13.43.2.62.15-.14.34-.33.46-.46.57-.59,1.11-1.15,1.74-.94s.75,1,.87,1.78c0,.18.06.44.11.64.17-.11.38-.27.52-.39.65-.5,1.26-1,1.87-.68s.6,1.07.61,1.88c0,.19,0,.45,0,.65.18-.09.41-.21.57-.31.71-.41,1.39-.79,1.94-.42s.45,1.14.34,1.95c0,.18-.06.45-.07.65.19-.06.43-.16.6-.23.76-.31,1.48-.6,2-.16s.3,1.18.09,2a5.05,5.05,0,0,0-.18.86.62.62,0,0,1-1,.77c-.46-.46-.26-1.18-.05-2,0-.16.1-.37.14-.55l-.55.21c-.73.3-1.42.58-1.92.19s-.41-1.14-.3-1.93c0-.16,0-.38.07-.56l-.51.28c-.69.39-1.33.76-1.88.45s-.55-1.07-.56-1.87c0-.16,0-.38,0-.57l-.46.34c-.62.49-1.22.94-1.81.71s-.7-1-.81-1.76c0-.16-.05-.38-.09-.56-.14.13-.29.29-.4.4-.55.57-1.07,1.11-1.69,1s-.83-.87-1.05-1.63c0-.16-.11-.37-.17-.55-.12.14-.25.32-.34.45-.47.64-.91,1.25-1.55,1.19s-.94-.75-1.26-1.47c-.07-.15-.16-.36-.25-.53-.1.16-.2.35-.28.5-.38.7-.74,1.36-1.38,1.38s-1-.62-1.44-1.29a5.33,5.33,0,0,0-.5-.72.62.62,0,0,1-.34-1.05Z"/>
      </g>
    </g>
  </g>
</svg>
