<svg xmlns="http://www.w3.org/2000/svg" viewBox="0 0 93 93.99">
  <defs>
    <style>
      .cls-1 {
        fill: #fffff6;
      }

      .cls-2 {
        fill: #ffffc3;
      }

      .cls-3 {
        fill: #00ce8c;
      }

      .cls-4 {
        fill: #f38290;
      }

      .cls-5 {
        fill: #64375a;
      }
    </style>
  </defs>
  <title>Prancheta 6 cópia 68</title>
  <g id="icons">
    <g>
      <path class="cls-1" d="M46.5,34.28c-13.82,0-25.43,5.41-28.68,12.72C21.07,54.3,32.68,59.71,46.5,59.71S71.92,54.3,75.18,47C71.92,39.69,60.32,34.28,46.5,34.28Z"/>
      <circle class="cls-1" cx="46.5" cy="47" r="14.3"/>
      <path class="cls-2" d="M46.5,32.7a14.3,14.3,0,0,0,0,28.6Z"/>
      <ellipse class="cls-3" cx="47.59" cy="47" rx="9.63" ry="14.3"/>
      <circle class="cls-4" cx="46.5" cy="47" r="6.33"/>
      <g>
        <path class="cls-5" d="M78.21,45.65C74.3,36.86,61.56,31,46.5,31s-27.8,5.9-31.71,14.69a3.32,3.32,0,0,0,0,2.7C18.69,57.13,31.44,63,46.5,63s27.8-5.9,31.71-14.69A3.32,3.32,0,0,0,78.21,45.65Zm-31.71,14A12.64,12.64,0,1,1,59.14,47,12.65,12.65,0,0,1,46.5,59.63ZM17.82,47c2.33-5.24,9-9.49,17.63-11.48a15.9,15.9,0,0,0,0,23C26.79,56.49,20.15,52.24,17.82,47ZM57.55,58.48a15.9,15.9,0,0,0,0-23c8.66,2,15.29,6.24,17.62,11.48C72.85,52.24,66.21,56.49,57.55,58.48Z"/>
        <path class="cls-5" d="M51.67,43.22a1,1,0,0,0-.43,1.34A5.28,5.28,0,0,1,51.83,47a5.33,5.33,0,1,1-3.26-4.91,1,1,0,0,0,.78-1.83A7.32,7.32,0,1,0,53.82,47,7.36,7.36,0,0,0,53,43.65,1,1,0,0,0,51.67,43.22Z"/>
      </g>
    </g>
  </g>
</svg>
