<svg xmlns="http://www.w3.org/2000/svg" viewBox="0 0 93 93.99">
  <defs>
    <style>
      .cls-1 {
        fill: #f38290;
      }

      .cls-2 {
        fill: #00ce8c;
      }

      .cls-3 {
        fill: #ffffc3;
      }

      .cls-4 {
        fill: #64375a;
      }
    </style>
  </defs>
  <title>Prancheta 6 cópia 70</title>
  <g id="icons">
    <g>
      <path class="cls-1" d="M27.19,42.87a10.81,10.81,0,0,1-9.85-15.23,1.66,1.66,0,0,1,2.19-.83l16.69,7.49a1.66,1.66,0,0,1,.83,2.19A10.83,10.83,0,0,1,27.19,42.87Z"/>
      <path class="cls-1" d="M72.4,59a4.19,4.19,0,0,1-3.78-2.35,27.76,27.76,0,0,0-25-15.57c-.55,0-1.1,0-1.65,0h-.25a4.21,4.21,0,0,1-.24-8.41c.71,0,1.44-.06,2.15-.06A36.12,36.12,0,0,1,76.17,53,4.21,4.21,0,0,1,72.4,59Z"/>
      <path class="cls-2" d="M57.15,76.19a4.32,4.32,0,0,1-5,.82A36.43,36.43,0,0,1,31.87,43.23l0,0a7.53,7.53,0,0,1,0-10.64l.21-.2L25.7,18.23l1.62-.73A10.92,10.92,0,0,1,41.76,31.93a7.52,7.52,0,0,1-1.25,12.68A27.89,27.89,0,0,0,56,69.25a4.33,4.33,0,0,1,1.14,6.94Z"/>
      <path class="cls-2" d="M54.09,77.34a4.2,4.2,0,0,1-1.86-.44A36.31,36.31,0,0,1,32,43.18l-.06-.06a7.4,7.4,0,0,1,0-10.47l.27-.25L26.54,19.8a1.66,1.66,0,0,1,.83-2.2A10.8,10.8,0,0,1,41.61,32a7.4,7.4,0,0,1-1.22,12.57A28,28,0,0,0,56,69.35,4.21,4.21,0,0,1,57.86,75a4.11,4.11,0,0,1-.8,1.11,4.23,4.23,0,0,1-3,1.23Z"/>
      <path class="cls-3" d="M54.06,73.18a32.18,32.18,0,0,1-17.9-30.6l.07-1.31-1-.8a3.58,3.58,0,0,1-.34-.29,3.26,3.26,0,0,1,0-4.6,3.32,3.32,0,0,1,.66-.5s1.66-1.27,1.13-2.9l-.12-.26-6-13.5a9.1,9.1,0,0,0-2.43.71l6.21,13.81a5.82,5.82,0,0,0-1.16.89,5.71,5.71,0,0,0,.58,8.63A34.64,34.64,0,0,0,53,75.41a2.55,2.55,0,0,0,2.93-.48,2.52,2.52,0,0,0,.48-.68l0-.07Z"/>
      <g>
        <path class="cls-4" d="M77.66,52.22A37.77,37.77,0,0,0,43.72,31a12.35,12.35,0,0,0-.55-8.68A12.49,12.49,0,0,0,31.79,15a12.34,12.34,0,0,0-5.11,1.1A3.32,3.32,0,0,0,25,20.48l3.92,8.72-8.72-3.92A3.32,3.32,0,0,0,15.83,27,12.44,12.44,0,0,0,30.32,44.12,38,38,0,0,0,51.49,78.39a5.87,5.87,0,0,0,6.75-1.11,5.87,5.87,0,0,0-1.55-9.41A26.35,26.35,0,0,1,42.08,45.5a9,9,0,0,0,2.68-2.68,26.09,26.09,0,0,1,22.38,14.6,5.87,5.87,0,0,0,10.53-5.19Zm-49-11.15a9.13,9.13,0,0,1-9.81-12.76l10.62,4.77a9.07,9.07,0,0,0-.81,8ZM55.22,70.84a2.55,2.55,0,0,1,1.16,3.41,2.52,2.52,0,0,1-.48.68,2.55,2.55,0,0,1-2.93.48A34.62,34.62,0,0,1,34.56,52.25l5.07-.74A29.53,29.53,0,0,0,55.22,70.84Zm-14-28.89a5.74,5.74,0,0,1-2.48,1.46,29.71,29.71,0,0,0,.46,6.15l-5.05.74a34.78,34.78,0,0,1-.47-7.84,5.72,5.72,0,0,1,.57-9.51L28,19.12A9.14,9.14,0,0,1,39.36,32.58a5.74,5.74,0,0,1,1.85,9.36Zm4.31-7.52a35,35,0,0,1,4.21.5L49,40a29.58,29.58,0,0,0-2.95-.41A9.12,9.12,0,0,0,45.53,34.43ZM74.2,56.62a2.56,2.56,0,0,1-.67.48,2.55,2.55,0,0,1-3.42-1.16A29.52,29.52,0,0,0,51,40.41l.74-5.06a34.59,34.59,0,0,1,23,18.34A2.55,2.55,0,0,1,74.2,56.62Z"/>
        <circle class="cls-4" cx="37.16" cy="37.88" r="2.6" transform="translate(-15.91 37.36) rotate(-44.99)"/>
      </g>
    </g>
  </g>
</svg>
