<svg xmlns="http://www.w3.org/2000/svg" viewBox="0 0 93 93.99">
  <defs>
    <style>
      .cls-1 {
        fill: #fffff6;
      }

      .cls-2 {
        fill: #ffffc3;
      }

      .cls-3 {
        fill: #00ce8c;
      }

      .cls-4 {
        fill: #f38290;
      }

      .cls-5 {
        fill: #64375a;
      }
    </style>
  </defs>
  <title>Prancheta 6 cópia 38</title>
  <g id="icons">
    <g>
      <path class="cls-1" d="M64.81,46.71l3.28-3.52c4.24-4.61,6.15-8.79,4.66-11.36-1.88-3.26-8.76-3.09-17.43-.14h0c-1.53.52-3.11,1.13-4.74,1.82l3.33-7.4c-1.86-5.82-4.5-9.45-7.42-9.45-4.41,0-8.16,8.26-9.6,19.84l-4.52-6.33c-6.09-1.36-10.66-.92-12.14,1.65C18.35,35.09,21.93,41,28.83,47h0q1.73,1.52,3.74,3L25,50.7c-4.31,4.65-6.25,8.87-4.76,11.46,2.22,3.84,11.36,2.93,22.2-1.7l-3.34,7.45c1.86,5.79,4.49,9.41,7.41,9.41,3.77,0,7.06-6,8.83-15h0q.46-2.31.77-4.85l4.56,6.37c6.07,1.35,10.62.9,12.09-1.66C75,58.35,74.11,53.74,64.81,46.71ZM45.73,48.87l-1.25-1.75.77-1.72,2.09-.2,1.19,1.66L47.7,48.7Z"/>
      <path class="cls-2" d="M46.5,16.67c-3.77,0-7.06,6-8.83,15-8.67-3-15.55-3.13-17.43.14S21.93,41,28.83,47c-6.9,6-10.48,11.9-8.6,15.16s8.76,3.09,17.43.14c1.78,9,5.07,15,8.83,15Z"/>
      <path class="cls-3" d="M61.47,47c5.26-6,8-11.9,6.56-15.16s-6.68-3.09-13.3-.14c-1.35-9-3.86-15-6.74-15s-5.38,6-6.74,15c-6.62-3-11.86-3.13-13.3.14S29.26,41,34.52,47c-5.26,6-8,11.9-6.56,15.16s6.68,3.09,13.3.14c1.35,9,3.86,15,6.74,15s5.38-6,6.74-15c6.62,3,11.86,3.13,13.3-.14S66.74,53,61.47,47Z"/>
      <path class="cls-4" d="M46.5,35.69c1.67.87,3.33,1.78,5,2.72s3.24,1.92,4.84,2.93c.08,1.88.12,3.78.12,5.65s0,3.77-.12,5.65c-1.6,1-3.22,2-4.84,2.93s-3.29,1.85-5,2.72c-1.67-.87-3.33-1.79-5-2.73s-3.24-1.91-4.84-2.93c-.08-1.88-.12-3.78-.12-5.65s0-3.77.12-5.65c1.6-1,3.22-2,4.84-2.93s3.29-1.85,5-2.72"/>
      <circle class="cls-1" cx="46.5" cy="47" r="3.49"/>
      <g>
        <path class="cls-5" d="M46.5,42.16A4.83,4.83,0,1,0,51.33,47,4.84,4.84,0,0,0,46.5,42.16Zm0,7.66A2.83,2.83,0,1,1,49.32,47,2.83,2.83,0,0,1,46.5,49.82Z"/>
        <path class="cls-5" d="M58.14,40.27c-.19-2.58-.5-5.09-.91-7.45,7.66-2.38,12.94-2.13,14.08-.16.78,1.36,0,4.54-4.45,9.39a1.67,1.67,0,0,0,2.46,2.26c5.06-5.49,6.74-10.1,4.88-13.33C71.69,26.64,63.9,27.08,55.06,30H55a1.65,1.65,0,0,0-.44.16,76.7,76.7,0,0,0-8.06,3.33c-2.34-1.12-4.66-2.12-6.91-2.94,1.77-7.83,4.62-12.27,6.9-12.27,1.54,0,3.87,2.18,5.83,8.28a1.67,1.67,0,1,0,3.18-1C53.28,18.66,50.17,15,46.5,15c-5,0-8.55,7-10.4,16.13v0a1.61,1.61,0,0,0-.08.44,76.83,76.83,0,0,0-1.15,8.67c-2.14,1.46-4.16,3-6,4.51a45,45,0,0,1-3.29-3.35c-3.33-3.79-4.82-7.14-3.88-8.77.78-1.35,3.91-2.29,10.33-.85a1.67,1.67,0,0,0,.73-3.26c-7.26-1.62-12.09-.78-13.95,2.44s-.3,7.45,4.27,12.65a51,51,0,0,0,4.69,4.61l.11.1a74.88,74.88,0,0,0,7,5.37c.19,2.58.5,5.09.91,7.45-7.66,2.38-12.94,2.13-14.08.16-.79-1.37,0-4.58,4.53-9.49a1.67,1.67,0,0,0-2.45-2.27C18.7,55,16.93,59.79,18.78,63c1.3,2.25,4,3.22,7.56,3.22a38.12,38.12,0,0,0,11.59-2.28H38a1.67,1.67,0,0,0,.43-.15,77,77,0,0,0,8.07-3.34c2.34,1.13,4.66,2.12,6.91,2.94-1.77,7.83-4.62,12.27-6.9,12.27-1.53,0-3.86-2.17-5.82-8.25a1.67,1.67,0,0,0-3.18,1C39.72,75.34,42.83,79,46.5,79c5,0,8.55-7,10.4-16.11l0,0a1.65,1.65,0,0,0,.08-.48,77,77,0,0,0,1.14-8.64c2.14-1.46,4.16-3,6-4.52a45.24,45.24,0,0,1,3.29,3.35c3.33,3.79,4.82,7.14,3.88,8.77-.78,1.35-3.89,2.28-10.29.86a1.67,1.67,0,1,0-.72,3.26,29.64,29.64,0,0,0,6.34.79c3.74,0,6.32-1.09,7.56-3.25,1.78-3.08.3-7.46-4.27-12.65A63.69,63.69,0,0,0,58.14,40.27ZM34.63,49.48Q32.94,48.25,31.42,47c1-.84,2.09-1.66,3.21-2.48,0,.83,0,1.66,0,2.48S34.61,48.66,34.63,49.48ZM54,33.92c.22,1.31.4,2.66.54,4-.7-.43-1.41-.86-2.13-1.28s-1.45-.82-2.19-1.22Q52.21,34.6,54,33.92Zm-15.09,0c1.24.47,2.5,1,3.77,1.55-.73.39-1.46.8-2.17,1.21S39.1,37.54,38.4,38Q38.62,35.85,38.94,33.93Zm0,26.14c-.22-1.31-.4-2.66-.54-4,.7.43,1.41.86,2.13,1.28s1.46.82,2.19,1.22Q40.78,59.39,39,60.07Zm15.09,0c-1.24-.47-2.5-1-3.77-1.55.73-.39,1.46-.79,2.17-1.21s1.44-.85,2.15-1.28Q54.37,58.14,54,60.06Zm.88-8.21c-1.35.88-2.73,1.74-4.15,2.56S47.9,56,46.51,56.73c-1.43-.73-2.87-1.5-4.29-2.32s-2.8-1.68-4.14-2.56c-.09-1.6-.14-3.22-.14-4.86s0-3.3.13-4.86c1.35-.88,2.73-1.74,4.15-2.56S45.1,38,46.48,37.27c1.44.73,2.87,1.5,4.29,2.32s2.8,1.68,4.14,2.56c.09,1.6.14,3.22.14,4.86S55,50.3,54.93,51.85Zm3.43-2.37c0-.83,0-1.66,0-2.49s0-1.66,0-2.49c1.13.82,2.19,1.65,3.21,2.49C60.56,47.84,59.48,48.67,58.36,49.48Z"/>
      </g>
    </g>
  </g>
</svg>
