<svg xmlns="http://www.w3.org/2000/svg" viewBox="0 0 93 93.99">
  <defs>
    <style>
      .cls-1 {
        fill: #f38290;
      }

      .cls-2 {
        fill: #ffffc3;
      }

      .cls-3 {
        fill: #00ce8c;
      }

      .cls-4 {
        fill: #64375a;
      }
    </style>
  </defs>
  <title>Prancheta 6 cópia 54</title>
  <g id="icons">
    <g>
      <path class="cls-1" d="M61.52,64.92,40.81,41.06a6.52,6.52,0,0,1-2.09,4c-.93.74-2.58.88-4.06.87l24.53,21.3a1.66,1.66,0,0,0,2.34-2.34Z"/>
      <path class="cls-2" d="M52.31,43.77s0,0,0,0l-.12-.18L32.7,66l22.69-19.7C54.25,45.53,53,45.08,52.31,43.77Z"/>
      <path class="cls-3" d="M53.56,45.16,32.87,65.85,55.39,46.29C54.78,45.89,54.14,45.57,53.56,45.16Z"/>
      <g>
        <path class="cls-4" d="M65.2,68.63l-2.31,2.31a1.66,1.66,0,1,0,2.35,2.35L67.55,71a1.66,1.66,0,0,0-2.35-2.35Z"/>
        <path class="cls-4" d="M27.77,68.62A1.66,1.66,0,0,0,25.42,71l2.31,2.31a1.66,1.66,0,0,0,2.35-2.35Z"/>
        <path class="cls-4" d="M77.06,29.58c-.69-.1-2.52-1-4.71-3.22s-3.12-4-3.22-4.71a1.66,1.66,0,1,0-3.29.46,5.92,5.92,0,0,0,.43,1.46L52,37.8a1.56,1.56,0,0,0-.16.19,6.23,6.23,0,0,0-1.27,2.31l-4.13,4.76-4.11-4.73a6.2,6.2,0,0,0-1.12-2.13,1.69,1.69,0,0,0-.3-.41L26.72,23.56a5.88,5.88,0,0,0,.43-1.46,1.66,1.66,0,1,0-3.29-.46c-.1.69-1,2.52-3.22,4.71s-4,3.13-4.71,3.22a1.66,1.66,0,0,0,.23,3.31l.23,0a5.87,5.87,0,0,0,1.46-.43L32.08,46.67a1.33,1.33,0,0,0,.2.17,6.24,6.24,0,0,0,2.3,1.26l5.29,4.59L30.19,63.82a3.32,3.32,0,0,0,4.69,4.69l11.6-10.07L58.09,68.52a3.32,3.32,0,0,0,4.69-4.69L53.1,52.68l5.29-4.59A6.23,6.23,0,0,0,60.51,47a1.7,1.7,0,0,0,.41-.3L75.15,32.45a5.9,5.9,0,0,0,1.46.43l.23,0a1.66,1.66,0,0,0,.23-3.31ZM23,28.7a22.75,22.75,0,0,0,2-2.22l6.95,6.95-.22.22a1,1,0,1,0,1.41,1.41l.22-.22,5,5a1.68,1.68,0,0,0,.2.26,2.93,2.93,0,0,1-4.14,4.14l-.09-.07L29.12,39l1.76-1.76a1,1,0,0,0-1.41-1.41L27.71,37.6l-6.95-6.95A22.75,22.75,0,0,0,23,28.7Zm16.21,19a6.34,6.34,0,0,0,1.61-1.16A6.27,6.27,0,0,0,42,44.92l2.32,2.67L42,50.18ZM60.27,66,49,56.23l1.58-1.37ZM32.7,66,51,44.91a6.06,6.06,0,0,0,2.76,2.79ZM65.28,37.62l-.22-.22a1,1,0,0,0-1.41,1.41l.22.22-5,5a1.53,1.53,0,0,0-.26.2,2.93,2.93,0,0,1-4.14-4.14l.07-.08,5.19-5.19,1.76,1.76a1,1,0,0,0,1.41-1.41l-1.76-1.76,6.95-6.95a23,23,0,0,0,4.18,4.18Z"/>
      </g>
    </g>
  </g>
</svg>
