<svg xmlns="http://www.w3.org/2000/svg" viewBox="0 0 93 93.99">
  <defs>
    <style>
      .cls-1 {
        fill: #fffff6;
      }

      .cls-2 {
        fill: #ffffc3;
      }

      .cls-3 {
        fill: #00ce8c;
      }

      .cls-4 {
        fill: #64375a;
      }
    </style>
  </defs>
  <title>Prancheta 6 cópia 27</title>
  <g id="icons">
    <g>
      <path class="cls-1" d="M17.82,50.93v2.18H19.2a7.57,7.57,0,1,0,15.15,0h1.38V50.93Z"/>
      <path class="cls-1" d="M57.27,50.93v2.18h1.38a7.57,7.57,0,1,0,15.15,0h1.38V50.93Z"/>
      <path class="cls-1" d="M55.15,72.21c0-1.56-3.88-2.82-8.66-2.82s-8.66,1.26-8.66,2.82h0v4.93H55.15V72.22h0Z"/>
      <path class="cls-2" d="M48,69.44c-.5,0-1,0-1.54,0-4.78,0-8.66,1.26-8.66,2.82h0v4.93H48Z"/>
      <path class="cls-3" d="M51.61,72.21c0-1.56-1.94-2.82-4.34-2.82s-4.34,1.26-4.34,2.82h0v4.93h8.67V72.22h0Z"/>
      <path class="cls-2" d="M27.92,50.93H17.82v2.18H19.2a7.53,7.53,0,0,0,8.72,7.48Z"/>
      <path class="cls-3" d="M21.12,50.93v2.18h1c0,4.18,2.41,7.57,5.39,7.57s5.4-3.39,5.4-7.57h1V50.93Z"/>
      <path class="cls-2" d="M67.37,50.93H57.27v2.18h1.38a7.53,7.53,0,0,0,8.72,7.48Z"/>
      <path class="cls-3" d="M60.57,50.93v2.18h1c0,4.18,2.42,7.57,5.39,7.57s5.4-3.39,5.4-7.57h1V50.93Z"/>
      <path class="cls-4" d="M75.45,47.64l-7.58-12s0,0,0-.08V33.71c0-5.28-11.8-6.94-19.82-7.12V24.35a4.75,4.75,0,1,0-3.33,0v2.24c-8,.21-19.62,1.88-19.62,7.12v1.82s0,.05,0,.09l-7.58,12a3.31,3.31,0,0,0-3,3.3v2.18a3.33,3.33,0,0,0,1.78,2.95,10.9,10.9,0,0,0,21,0,3.33,3.33,0,0,0,1.78-2.95V50.93a3.32,3.32,0,0,0-3-3.3l-7.58-12s0-.05,0-.09V33.73c.25-1,5.63-3.55,16.3-3.81V67.79c-4.27.26-8.56,1.52-8.56,4.43v4.93a1.66,1.66,0,0,0,1.66,1.66H55.15a1.66,1.66,0,0,0,1.66-1.66V72.21c0-3-4.42-4.2-8.76-4.44V29.92c10.81.23,16.25,2.8,16.5,3.79v1.82a.82.82,0,0,0,0,.09L57,47.64a3.31,3.31,0,0,0-3,3.3v2.18a3.33,3.33,0,0,0,1.78,2.95,10.9,10.9,0,0,0,21,0,3.33,3.33,0,0,0,1.78-2.95V50.93A3.32,3.32,0,0,0,75.45,47.64ZM35.73,53.08H32.66a1,1,0,1,0,0,2h1.42a7.56,7.56,0,0,1-14.62,0H29a1,1,0,0,0,0-2H17.82V50.93h17.9Zm-2.1-5.47H19.92l6.86-10.87ZM46.4,18.5A1.42,1.42,0,1,1,45,19.92,1.42,1.42,0,0,1,46.4,18.5Zm7.09,57h-14v-3c.59-.52,3.08-1.39,7-1.39s6.4.88,7,1.39ZM66.22,36.74l6.86,10.87H59.37Zm9,16.34H72.11a1,1,0,1,0,0,2h1.42a7.56,7.56,0,0,1-14.62,0h9.56a1,1,0,1,0,0-2H57.27V50.93h17.9Z"/>
    </g>
  </g>
</svg>
