<svg xmlns="http://www.w3.org/2000/svg" viewBox="0 0 93 93.99">
  <defs>
    <style>
      .cls-1 {
        fill: #fffff6;
      }

      .cls-2 {
        fill: #ffffc3;
      }

      .cls-3 {
        fill: #00ce8c;
      }

      .cls-4 {
        fill: #64375a;
      }

      .cls-5 {
        opacity: 0.6;
      }

      .cls-6 {
        fill: #ff3246;
      }
    </style>
  </defs>
  <title>Prancheta 6 cópia 57</title>
  <g id="icons">
    <g>
      <circle class="cls-1" cx="23.42" cy="23.9" r="5.59"/>
      <path class="cls-2" d="M23.82,18.33l-.41,0a5.59,5.59,0,1,0,0,11.18l.41,0Z"/>
      <path class="cls-2" d="M43,45.8l26.46,28.9A3.34,3.34,0,0,0,74.19,70L45.29,43.52Z"/>
      <path class="cls-1" d="M44.33,44.48,74.2,74.7a3.34,3.34,0,0,0,0-4.71L45.29,43.52Z"/>
      <path class="cls-3" d="M43.66,45.15l27,28.33c1.3,1.3,2.92,1.8,3.62,1.11s.2-2.31-1.11-3.62l-28.33-27Z"/>
      <path class="cls-4" d="M76.53,67.64l-.11-.1L47.53,41.07a3.3,3.3,0,0,0-4.54.07l-.07-.09L30.77,28.91a8.92,8.92,0,1,0-2.34,2.34L40.58,43.4l.08.07a3.31,3.31,0,0,0-.1,4.58L67,76.94l.1.1a6.65,6.65,0,1,0,9.41-9.41ZM17.82,23.9a5.59,5.59,0,1,1,5.59,5.59A5.59,5.59,0,0,1,17.82,23.9ZM74.19,74.71a3.3,3.3,0,0,1-3.74.67l1.6-1.6a1,1,0,0,0-1.4-1.4L68.92,74.1,43,45.8l2.29-2.29,28.3,25.91-.36.36a1,1,0,0,0,1.41,1.4l.23-.23A3.33,3.33,0,0,1,74.19,74.71Z"/>
      <ellipse class="cls-3" cx="23.82" cy="23.9" rx="3.59" ry="5.59"/>
      <g class="cls-5">
        <circle class="cls-6" cx="23.42" cy="23.9" r="3.62"/>
      </g>
    </g>
  </g>
</svg>
