<svg xmlns="http://www.w3.org/2000/svg" viewBox="0 0 93 93.99">
  <defs>
    <style>
      .cls-1 {
        fill: #fffff6;
      }

      .cls-2 {
        fill: #ffffc3;
      }

      .cls-3 {
        fill: #00ce8c;
      }

      .cls-4 {
        opacity: 0.6;
      }

      .cls-5 {
        fill: #ff3246;
      }

      .cls-6 {
        fill: #64375a;
      }
    </style>
  </defs>
  <title>Prancheta 6 cópia 47</title>
  <g id="icons">
    <g>
      <path class="cls-1" d="M70.1,48.65,44.85,23.4c-.16-.17-.3-.35-.47-.52a15.55,15.55,0,0,0-22,22l27,27,0,0A15.53,15.53,0,0,0,71.3,49.87h0l-.21-.22c-.16-.17-.3-.35-.47-.52S70.28,48.81,70.1,48.65Z"/>
      <path class="cls-2" d="M23.4,22c-.35.29-.69.59-1,.91a15.55,15.55,0,0,0,0,22l27,27,0,0a15.54,15.54,0,0,0,21.25-.68c.33-.32.63-.67.92-1Z"/>
      <path class="cls-3" d="M66.47,52.29,41.22,27l-.48-.51c-6.07-6.07-13.63-8.37-16.88-5.12s-1,10.81,5.11,16.88l27,27,0,0c5.94,5.54,13,7.54,16.15,4.42s1.12-10.21-4.42-16.15h0l-.21-.21L67,52.77Z"/>
      <g>
        <g class="cls-4">
          <circle class="cls-5" cx="40" cy="40.52" r="2.88" transform="translate(-16.94 40.16) rotate(-45.01)"/>
        </g>
        <g class="cls-4">
          <circle class="cls-5" cx="34.33" cy="46.19" r="2.87" transform="translate(-22.61 37.8) rotate(-44.99)"/>
        </g>
        <g class="cls-4">
          <circle class="cls-5" cx="45.7" cy="34.83" r="2.87" transform="translate(-11.24 42.51) rotate(-45)"/>
        </g>
        <g class="cls-4">
          <circle class="cls-5" cx="34.33" cy="34.85" r="2.87" transform="translate(-14.59 34.48) rotate(-44.99)"/>
        </g>
        <g class="cls-4">
          <circle class="cls-5" cx="28.63" cy="29.15" r="2.88" transform="translate(-12.23 28.78) rotate(-45)"/>
        </g>
        <g class="cls-4">
          <circle class="cls-5" cx="28.66" cy="40.52" r="2.87" transform="translate(-20.26 32.13) rotate(-44.99)"/>
        </g>
        <g class="cls-4">
          <circle class="cls-5" cx="40.03" cy="29.15" r="2.88" transform="translate(-8.89 36.84) rotate(-45)"/>
        </g>
      </g>
      <g>
        <g class="cls-4">
          <circle class="cls-5" cx="52.83" cy="53.36" r="2.87" transform="translate(-22.25 52.96) rotate(-44.98)"/>
        </g>
        <g class="cls-4">
          <circle class="cls-5" cx="47.16" cy="59.03" r="2.88" transform="translate(-27.93 50.64) rotate(-45)"/>
        </g>
        <g class="cls-4">
          <circle class="cls-5" cx="58.53" cy="47.66" r="2.87" transform="translate(-16.56 55.34) rotate(-44.99)"/>
        </g>
        <g class="cls-4">
          <circle class="cls-5" cx="58.51" cy="59.03" r="2.87" transform="translate(-24.6 58.65) rotate(-44.99)"/>
        </g>
        <g class="cls-4">
          <circle class="cls-5" cx="64.2" cy="64.72" r="2.87" transform="translate(-26.96 64.34) rotate(-44.99)"/>
        </g>
        <g class="cls-4">
          <circle class="cls-5" cx="52.83" cy="64.7" r="2.88" transform="translate(-30.28 56.32) rotate(-45.01)"/>
        </g>
        <g class="cls-4">
          <circle class="cls-5" cx="64.2" cy="53.33" r="2.88" transform="translate(-18.9 61.03) rotate(-45.01)"/>
        </g>
      </g>
      <path class="cls-6" d="M74,47.93a3.57,3.57,0,0,0-.35-.41l-.16-.16-.08-.09c-.15-.17-.29-.33-.45-.49s-.35-.33-.48-.45l-.09-.08L47.26,21.11,47.19,21c-.12-.14-.27-.31-.46-.5A18.88,18.88,0,0,0,20,47.23l27,27a3.31,3.31,0,0,0,.67.52A18.86,18.86,0,0,0,74,47.93Zm-3.4,23.2a15.54,15.54,0,0,1-21.25.68l0,0L36,58.48l14-14a1,1,0,0,0-1.41-1.41l-14,14-12.2-12.2a15.55,15.55,0,0,1,22-22c.17.17.31.35.47.52l11.7,11.7-3.64,3.63a1,1,0,0,0,1.41,1.41L58,36.51,70.1,48.65c.17.16.35.3.52.47s.32.35.47.52l.21.22h0A15.54,15.54,0,0,1,70.62,71.12Z"/>
    </g>
  </g>
</svg>
