<svg xmlns="http://www.w3.org/2000/svg" viewBox="0 0 93 93.99">
  <defs>
    <style>
      .cls-1 {
        fill: #fffff6;
      }

      .cls-2 {
        fill: #ffffc3;
      }

      .cls-3 {
        fill: #00ce8c;
      }

      .cls-4 {
        fill: #f38290;
      }

      .cls-5 {
        fill: #64375a;
      }
    </style>
  </defs>
  <title>Prancheta 6 cópia 12</title>
  <g id="icons">
    <g>
      <rect class="cls-1" x="26.96" y="25.98" width="39.07" height="49.67"/>
      <rect class="cls-2" x="26.96" y="25.98" width="18.62" height="49.67"/>
      <rect class="cls-3" x="30.5" y="25.98" width="33.48" height="49.67"/>
      <rect class="cls-1" x="31.1" y="24.98" width="30.79" height="45.13" rx="1" ry="1"/>
      <path class="cls-1" d="M38.07,29.29a1.67,1.67,0,0,1-1.67-1.67V22.5a1.67,1.67,0,0,1,1.67-1.67H40.9a5.84,5.84,0,0,1,11.19,0h2.84A1.67,1.67,0,0,1,56.6,22.5v5.12a1.67,1.67,0,0,1-1.67,1.67Z"/>
      <path class="cls-4" d="M50.67,22.5a4.17,4.17,0,0,0-8.34,0H38.07v5.12H54.93V22.5Z"/>
      <g>
        <path class="cls-5" d="M37.65,34.54h-1.4a1,1,0,0,0,0,2h1.4a1,1,0,1,0,0-2Z"/>
        <path class="cls-5" d="M40.76,36.54h5.3a1,1,0,1,0,0-2h-5.3a1,1,0,1,0,0,2Z"/>
        <path class="cls-5" d="M37.65,39.43h-1.4a1,1,0,0,0,0,2h1.4a1,1,0,1,0,0-2Z"/>
        <path class="cls-5" d="M40.76,41.43h10a1,1,0,1,0,0-2h-10a1,1,0,1,0,0,2Z"/>
        <path class="cls-5" d="M37.65,44.32h-1.4a1,1,0,0,0,0,2h1.4a1,1,0,1,0,0-2Z"/>
        <path class="cls-5" d="M40.76,46.32h4.08a1,1,0,1,0,0-2H40.76a1,1,0,1,0,0,2Z"/>
        <path class="cls-5" d="M37.65,49.21h-1.4a1,1,0,0,0,0,2h1.4a1,1,0,1,0,0-2Z"/>
        <path class="cls-5" d="M40.76,51.21H57.28a1,1,0,1,0,0-2H40.76a1,1,0,0,0,0,2Z"/>
        <path class="cls-5" d="M37.65,54.1h-1.4a1,1,0,0,0,0,2h1.4a1,1,0,1,0,0-2Z"/>
        <path class="cls-5" d="M40.76,56.11h5.3a1,1,0,1,0,0-2h-5.3a1,1,0,1,0,0,2Z"/>
        <path class="cls-5" d="M37.65,59h-1.4a1,1,0,0,0,0,2h1.4a1,1,0,1,0,0-2Z"/>
        <path class="cls-5" d="M49.61,60a1,1,0,0,0-1-1H40.76a1,1,0,1,0,0,2H48.6A1,1,0,0,0,49.61,60Z"/>
        <path class="cls-5" d="M57.55,64.3h-1a1,1,0,0,0,0,2h1a1,1,0,1,0,0-2Z"/>
        <path class="cls-5" d="M53.28,64.3H48.6a1,1,0,0,0,0,2h4.67a1,1,0,1,0,0-2Z"/>
        <path class="cls-5" d="M66,22.64H58.27V22.5a3.34,3.34,0,0,0-3.34-3.34H53.22a7.51,7.51,0,0,0-13.45,0H38.07a3.34,3.34,0,0,0-3.34,3.34v.14H27A3.34,3.34,0,0,0,23.62,26V75.66A3.34,3.34,0,0,0,27,79H66a3.34,3.34,0,0,0,3.34-3.34V26A3.34,3.34,0,0,0,66,22.64Zm-28-.14h4.26a4.17,4.17,0,0,1,8.34,0h4.26v5.12H38.07Zm-6,3.48h2.62v1.64A3.34,3.34,0,0,0,38.07,31H54.93a3.34,3.34,0,0,0,3.34-3.34V26h2.62V69.11H32.11ZM66,75.66H27V26H30.1V69.11a2,2,0,0,0,2,2H60.89a2,2,0,0,0,2-2V26H66Z"/>
        <circle class="cls-5" cx="46.5" cy="22.72" r="1.75"/>
      </g>
    </g>
  </g>
</svg>
