<svg xmlns="http://www.w3.org/2000/svg" viewBox="0 0 93 93.99">
  <defs>
    <style>
      .cls-1 {
        fill: #fff;
      }

      .cls-2 {
        fill: #ffffc3;
      }

      .cls-3 {
        fill: #00ce8c;
      }

      .cls-4 {
        fill: #f38290;
      }

      .cls-5 {
        fill: #64375a;
      }
    </style>
  </defs>
  <title>Prancheta 6 cópia 40</title>
  <g id="icons">
    <g>
      <path class="cls-1" d="M55.43,48.94a50,50,0,0,1-8.93,6.85,63.76,63.76,0,0,1-8.93-6.85,29.82,29.82,0,0,0-16.84,13.5,29.76,29.76,0,0,0,51.55,0A29.83,29.83,0,0,0,55.43,48.94Z"/>
      <path class="cls-1" d="M58,28.19a11.52,11.52,0,0,0-23,0v6.57a11.52,11.52,0,1,0,23,0Z"/>
      <path class="cls-2" d="M48.59,16.66C41.07,16.66,35,21.82,35,28.19v6.57c0,6.36,6.1,11.52,13.62,11.52Z"/>
      <path class="cls-3" d="M54,28.47c0-5.5-2.72-10-6.07-10s-6.07,4.46-6.07,10v6c0,5.5,2.72,10,6.07,10S54,40,54,34.47Z"/>
      <path class="cls-2" d="M46.5,55.79a63.76,63.76,0,0,1-8.93-6.85,29.82,29.82,0,0,0-16.84,13.5A29.75,29.75,0,0,0,46.5,77.33Z"/>
      <path class="cls-3" d="M55.21,49.73a62,62,0,0,1-7.61,6.93,71.78,71.78,0,0,1-7.84-6.93c-5.56,2-9.77,6.19-12.64,11.81,3.5,8.17,11.92,14.1,20.49,14.1s16-5.28,20-13.12C64.76,56.9,60.77,51.71,55.21,49.73Z"/>
      <path class="cls-4" d="M54.34,69.63a1,1,0,0,1-1-1v-2h-2a1,1,0,0,1-1-1V62.51a1,1,0,0,1,1-1h2v-2a1,1,0,0,1,1-1h3.08a1,1,0,0,1,1,1v2h2a1,1,0,0,1,1,1v3.08a1,1,0,0,1-1,1h-2v2a1,1,0,0,1-1,1Z"/>
      <g>
        <path class="cls-5" d="M73.72,61.61A31.38,31.38,0,0,0,55.93,47.35a1.67,1.67,0,0,0-1.68.41l-.41.39-.11.1a48.94,48.94,0,0,1-7.21,5.56,61.21,61.21,0,0,1-7.27-5.57l-.09-.08-.42-.4a1.67,1.67,0,0,0-1.68-.41A31.38,31.38,0,0,0,19.28,61.61a1.67,1.67,0,0,0,0,1.67,31.43,31.43,0,0,0,54.44,0A1.67,1.67,0,0,0,73.72,61.61ZM24,64.35c-.46-.62-.91-1.24-1.32-1.9A28.07,28.07,0,0,1,30,54.61a38.52,38.52,0,0,0-4.79,7.17C24.79,62.6,24.38,63.46,24,64.35ZM47.5,75.63v-11a1,1,0,0,0-2,0v11A28.19,28.19,0,0,1,25.41,66.1c.49-1.17,1-2.32,1.58-3.4A30.42,30.42,0,0,1,37.18,50.88a68.79,68.79,0,0,0,8.32,6.25v3a1,1,0,0,0,2,0v-3a52.25,52.25,0,0,0,8.33-6.25c4,2.54,7.53,6.67,10.3,12.06.52,1,1,2.07,1.46,3.16A28.19,28.19,0,0,1,47.5,75.63ZM69,64.34c-.35-.79-.72-1.57-1.11-2.32A38.64,38.64,0,0,0,63,54.61a28.09,28.09,0,0,1,7.34,7.84C69.92,63.1,69.47,63.73,69,64.34Z"/>
        <path class="cls-5" d="M46.5,47.95A13.21,13.21,0,0,0,59.69,34.75V28.19a13.19,13.19,0,0,0-26.38,0v6.57A13.2,13.2,0,0,0,46.5,47.95ZM36.64,28.19a9.85,9.85,0,1,1,19.71,0v6.57a9.85,9.85,0,0,1-19.71,0Z"/>
        <path class="cls-5" d="M60.45,60.51h-1v-1a2,2,0,0,0-2-2H54.34a2,2,0,0,0-2,2v1h-1a2,2,0,0,0-2,2v3.08a2,2,0,0,0,2,2h1v1a2,2,0,0,0,2,2h3.08a2,2,0,0,0,2-2v-1h1a2,2,0,0,0,2-2V62.51A2,2,0,0,0,60.45,60.51Zm0,5.08h-3v3H54.34v-3h-3V62.51h3v-3h3.08v3h3Z"/>
      </g>
    </g>
  </g>
</svg>
