<svg xmlns="http://www.w3.org/2000/svg" viewBox="0 0 93 93.99">
  <defs>
    <style>
      .cls-1 {
        fill: #fffff6;
      }

      .cls-2 {
        fill: #ffffc3;
      }

      .cls-3 {
        fill: #00ce8c;
      }

      .cls-4 {
        fill: #f38290;
      }

      .cls-5 {
        fill: #64375a;
      }
    </style>
  </defs>
  <title>Prancheta 6 cópia 10</title>
  <g id="icons">
    <g>
      <path class="cls-1" d="M74.45,56H50.8c-3,0-4.59-1-6.27-3.51l-9-15.35H63.63s8,2.2,10.82,9.89A15.53,15.53,0,0,1,74.45,56Z"/>
      <path class="cls-2" d="M66.33,56H46.59L35.51,37.17h20a18.37,18.37,0,0,1,7.78,4.9c1.22,1.32-.39,9.23.34,11.25.8,2.21,3.47-1.73,3.26,0A15.67,15.67,0,0,1,66.33,56Z"/>
      <path class="cls-3" d="M72.31,56H52.57L41.49,37.17H60.35a21.29,21.29,0,0,1,6.24,2.87l-3.37-.18L63.63,53s9.44-1,9.18.8A15,15,0,0,1,72.31,56Z"/>
      <polygon class="cls-1" points="57.61 44.96 54.28 44.96 54.28 41.63 50.9 41.63 50.9 44.96 47.57 44.96 47.57 48.34 50.9 48.34 50.9 51.67 54.28 51.67 54.28 48.34 57.61 48.34 57.61 44.96"/>
      <polygon class="cls-4" points="57.61 44.96 54.28 44.96 54.28 41.63 50.9 41.63 50.9 44.96 47.57 44.96 47.57 48.34 50.9 48.34 50.9 51.67 54.28 51.67 54.28 48.34 57.61 48.34 57.61 44.96"/>
      <circle class="cls-1" cx="20.64" cy="35.47" r="5.14"/>
      <g>
        <path class="cls-5" d="M57.61,42.94H56.3V41.63a2,2,0,0,0-2-2H50.9a2,2,0,0,0-2,2v1.31H47.57a2,2,0,0,0-2,2v3.38a2,2,0,0,0,2,2h1.31v1.31a2,2,0,0,0,2,2h3.38a2,2,0,0,0,2-2V50.36h1.31a2,2,0,0,0,2-2V45A2,2,0,0,0,57.61,42.94Zm0,5.4H54.28v3.33H50.9V48.34H47.57V45H50.9V41.63h3.38V45h3.33Z"/>
        <path class="cls-5" d="M77.61,45.93c-3.33-9.22-12.7-11.88-13.09-12a3.4,3.4,0,0,0-.49-.09,1.69,1.69,0,0,0-.39-.05h-8.3V31.66H77.09a1,1,0,1,0,0-2H55.33v-.59a1.68,1.68,0,1,0-3.36,0v.59H30.21a1,1,0,0,0,0,2H52v2.13H26.55a6.15,6.15,0,1,0,0,3.36h5.06l10,17.07.1.15c2.23,3.36,4.82,4.86,8.57,5v3.89H43.49a1.68,1.68,0,1,0,0,3.36H70.07a1.68,1.68,0,0,0,.86-.24,11.93,11.93,0,0,0,2.85-2.63,1.68,1.68,0,0,0-2.6-2.13,10.52,10.52,0,0,1-1.64,1.63H67.69V59.39h6.76a3.36,3.36,0,0,0,3.19-2.31A18.63,18.63,0,0,0,77.61,45.93Zm-57-8.78h3.76a4.13,4.13,0,1,1,0-3.36H20.64a1.68,1.68,0,1,0,0,3.36Zm43.69,26.1H53.66V59.39H64.33ZM74.45,56H50.8c-3,0-4.59-1-6.27-3.51l-9-15.35H63.63a17.74,17.74,0,0,1,4.27,2H63.15a1,1,0,0,0-1,1V53.34a1,1,0,0,0,1,1H74.85A14.15,14.15,0,0,1,74.45,56Zm.65-3.7H64.16V50.74h7a1,1,0,1,0,0-2h-7V41.2h6.35a14.92,14.92,0,0,1,3.93,5.87,10.86,10.86,0,0,1,.44,1.65h-.42a1,1,0,1,0,0,2h.65C75.13,51.29,75.13,51.83,75.09,52.33Z"/>
      </g>
    </g>
  </g>
</svg>
