<svg xmlns="http://www.w3.org/2000/svg" viewBox="0 0 93 93.99">
  <defs>
    <style>
      .cls-1 {
        fill: #fffff6;
      }

      .cls-2 {
        fill: #ffffc3;
      }

      .cls-3 {
        fill: #00ce8c;
      }

      .cls-4 {
        opacity: 0.6;
      }

      .cls-5 {
        fill: #ff3246;
      }

      .cls-6 {
        fill: #f38290;
      }

      .cls-7 {
        fill: #64375a;
      }
    </style>
  </defs>
  <title>Prancheta 6 cópia 33</title>
  <g id="icons">
    <g>
      <path class="cls-1" d="M59.24,73.07c0-1.34-3.34-2.43-7.45-2.43s-7.45,1.09-7.45,2.43h0v4.25h14.9V73.08h0Z"/>
      <path class="cls-1" d="M38.14,32.26v2.38h2.1a11.55,11.55,0,1,0,23.11,0h2.1V32.26Z"/>
      <path class="cls-2" d="M51.94,70.65h-.15c-4.11,0-7.45,1.09-7.45,2.43h0v4.25h7.6Z"/>
      <path class="cls-3" d="M55.57,73.07c0-1.34-1.36-2.43-3-2.43s-3,1.09-3,2.43h0v4.25h6.08V73.08h0Z"/>
      <path class="cls-2" d="M51.76,32.26H38.14v2.38h2.1A11.55,11.55,0,0,0,51.76,46.19Z"/>
      <path class="cls-3" d="M42.12,32.26v3.13h1.63c0,5.23,4,10.8,9,10.8s9-4.42,9-10.8H63.3V32.26Z"/>
      <g class="cls-4">
        <path class="cls-5" d="M42.21,35.58a9.56,9.56,0,0,0,19.11,0Z"/>
      </g>
      <circle class="cls-1" cx="51.76" cy="20.81" r="4.02"/>
      <circle class="cls-6" cx="51.76" cy="20.81" r="4.02"/>
      <g>
        <path class="cls-7" d="M65.45,28.91H38.14a3.35,3.35,0,0,0-3.35,3.35v2.38a3.35,3.35,0,0,0,2.45,3.23A14.93,14.93,0,0,0,50.12,49.43V64a7.32,7.32,0,0,0-5.44,5.82,1.65,1.65,0,0,0,0,.51,3.17,3.17,0,0,0-2,2.75v4.25A1.67,1.67,0,0,0,44.34,79h14.9a1.67,1.67,0,0,0,1.67-1.67V73.07c0-3-4.92-4.1-9.13-4.1a23,23,0,0,0-3.39.25,3.89,3.89,0,0,1,3.41-2.09,7.24,7.24,0,0,0,7.06-7.39,8.58,8.58,0,0,0-.35-2.48,1.67,1.67,0,1,0-3.2,1,5.25,5.25,0,0,1,.21,1.51,4.08,4.08,0,0,1-2.06,3.6V49.43A14.93,14.93,0,0,0,66.35,37.86a3.35,3.35,0,0,0,2.45-3.23V32.26A3.35,3.35,0,0,0,65.45,28.91ZM57.57,73.4v2.25H46V73.4a12.22,12.22,0,0,1,5.78-1.08A12.23,12.23,0,0,1,57.57,73.4ZM51.8,46.19a11.55,11.55,0,0,1-11.38-9.61h2.52a1,1,0,1,0,0-2h-4.8V32.26H65.45v2.31H47.77a1,1,0,1,0,0,2h15.4A11.55,11.55,0,0,1,51.8,46.19Z"/>
        <path class="cls-7" d="M45.82,54.95a1.67,1.67,0,0,0,.4-3.3c-4.38-1.08-18.67-5.75-18.67-20.18A13.09,13.09,0,0,1,46.2,19.58a5.72,5.72,0,1,0,1.66-2.91A16.43,16.43,0,0,0,24.2,31.47c0,16.86,16.24,22.19,21.22,23.42A1.69,1.69,0,0,0,45.82,54.95Zm5.95-36.48a2.35,2.35,0,1,1-2.35,2.35A2.35,2.35,0,0,1,51.76,18.46Z"/>
      </g>
    </g>
  </g>
</svg>
