<svg xmlns="http://www.w3.org/2000/svg" viewBox="0 0 93 93.99">
  <defs>
    <style>
      .cls-1 {
        fill: #fffff6;
      }

      .cls-2 {
        fill: #ffffc3;
      }

      .cls-3 {
        fill: #00ce8c;
      }

      .cls-4 {
        fill: #ff3246;
        opacity: 0.6;
      }

      .cls-5 {
        fill: #64375a;
      }
    </style>
  </defs>
  <title>Prancheta 6 cópia 56</title>
  <g id="icons">
    <g>
      <path class="cls-1" d="M39.4,58.33a6.32,6.32,0,0,1-6,5H22.93a6.07,6.07,0,0,1-5.83-5.06L16.22,52a4.32,4.32,0,0,1,4.39-5.06H36.29a4.15,4.15,0,0,1,4.23,5Z"/>
      <path class="cls-1" d="M75.89,58.3a6.07,6.07,0,0,1-5.82,5.06H59.59a6.32,6.32,0,0,1-6-5L52.48,52a4.15,4.15,0,0,1,4.23-5H72.38A4.32,4.32,0,0,1,76.78,52Z"/>
      <path class="cls-2" d="M28.68,46.93H20.61A4.32,4.32,0,0,0,16.22,52l.89,6.3a6.07,6.07,0,0,0,5.83,5.06h5.75Z"/>
      <path class="cls-2" d="M65.3,46.93H57.23A4.33,4.33,0,0,0,52.83,52l.89,6.3a6.07,6.07,0,0,0,5.82,5.06H65.3Z"/>
      <path class="cls-3" d="M36.47,58.33c-.33,2.77-2.17,5-4.08,5H25.25c-1.91,0-3.7-2.28-4-5.06L20.68,52c-.27-2.78,1.08-5.06,3-5.06H34.35c1.91,0,3.21,2.27,2.88,5Z"/>
      <path class="cls-3" d="M73.17,58.3c-.27,2.78-2.09,5.06-4,5.06H61.88c-1.95,0-3.82-2.27-4.15-5L57,52c-.34-2.77,1-5,2.93-5H70.74c1.95,0,3.32,2.28,3,5.06Z"/>
      <path class="cls-4" d="M72.38,50.94a.36.36,0,0,1,.43.5l-.89,6.3a2.11,2.11,0,0,1-1.86,1.62H59.59a2.35,2.35,0,0,1-2-1.72l-1.12-6.36a.75.75,0,0,1,0-.28.54.54,0,0,1,.29-.05H72.38"/>
      <path class="cls-4" d="M20.61,50.94H36.29a.54.54,0,0,1,.29.05.7.7,0,0,1,0,.28l-1.12,6.36a2.35,2.35,0,0,1-2,1.72H22.93a2.11,2.11,0,0,1-1.86-1.62l-.89-6.3a.36.36,0,0,1,.43-.5"/>
      <g>
        <path class="cls-5" d="M77.12,47.43,68.26,29.88l-.07-.1-.1-.16L68,29.48l-.09-.1-.2-.15-.06,0h0l-.23-.1-.08,0-.2,0L67,29h-.32l-.16,0-.16,0-.11,0-.2.08h0l-.09.06-.18.11-.11.1-.12.12-.11.15-.07.1L62.84,34a1.66,1.66,0,0,0,.59,2.28,1.64,1.64,0,0,0,.85.23,1.67,1.67,0,0,0,1.44-.82l.94-1.6,5.64,11.16H56.71l-.55,0a1.64,1.64,0,0,0-.28,0H20.67L26.3,34.11l.95,1.6a1.67,1.67,0,0,0,1.44.82,1.65,1.65,0,0,0,.85-.23A1.67,1.67,0,0,0,30.12,34l-2.5-4.23-.07-.1-.11-.15-.12-.12-.11-.1L27,29.2l-.09-.06h0l-.2-.07-.12,0-.16,0-.16,0H26l-.14,0-.17,0-.11,0-.19.09h0l-.09.06-.16.12L25,29.5l-.11.12a1.78,1.78,0,0,0-.12.18l-.05.08,0,0h0L15.76,47.57a6.07,6.07,0,0,0-1.2,4.66l.89,6.31A7.79,7.79,0,0,0,22.93,65H33.41A8.06,8.06,0,0,0,41,59l.52.15-.29,1.05a1,1,0,0,0,.7,1.23,1,1,0,0,0,.26,0,1,1,0,0,0,1-.74l.54-2v0s0,0,0,0l.55-2a1,1,0,1,0-1.93-.53l-.28,1-.68-.2.39-2.22a5.26,5.26,0,0,1,9.56,0L51.67,57l-.87.26-.3-1.12a1,1,0,1,0-1.93.53l1.09,4a1,1,0,0,0,1,.74,1,1,0,0,0,.27,0,1,1,0,0,0,.7-1.23l-.26-1L52,59a8,8,0,0,0,7.54,6H70.06a7.78,7.78,0,0,0,7.48-6.5l.89-6.3A6.06,6.06,0,0,0,77.12,47.43ZM38.88,51.68,37.76,58a4.64,4.64,0,0,1-4.35,3.65H22.93a4.4,4.4,0,0,1-4.17-3.62l-.89-6.31a2.66,2.66,0,0,1,2.74-3.16H36.29a2.49,2.49,0,0,1,2.59,3.08Zm11.87-.58a7.23,7.23,0,0,0-8.49,0,6,6,0,0,0-.55-2.49h9.58A6,6,0,0,0,50.74,51.1Zm24.38.66-.89,6.31a4.4,4.4,0,0,1-4.17,3.63H59.59A4.65,4.65,0,0,1,55.24,58l-1.12-6.36a2.49,2.49,0,0,1,2.59-3.08H72.38a2.78,2.78,0,0,1,2.07.85,1.55,1.55,0,0,0,.16.19A2.77,2.77,0,0,1,75.13,51.76Z"/>
        <path class="cls-5" d="M65.28,53.83l-4.61,4.61a1,1,0,0,0,1.42,1.42l4.61-4.61a1,1,0,0,0-1.41-1.42Z"/>
        <path class="cls-5" d="M68.51,50.6l-1,1A1,1,0,1,0,68.93,53l1-1a1,1,0,0,0-1.42-1.42Z"/>
        <path class="cls-5" d="M28.73,53.83l-4.61,4.61a1,1,0,0,0,1.42,1.42l4.61-4.61a1,1,0,0,0-1.42-1.42Z"/>
        <path class="cls-5" d="M32,50.6l-1,1A1,1,0,1,0,32.38,53l1-1A1,1,0,0,0,32,50.6Z"/>
      </g>
    </g>
  </g>
</svg>
