<svg xmlns="http://www.w3.org/2000/svg" viewBox="0 0 93 93.99">
  <defs>
    <style>
      .cls-1 {
        fill: #fffff6;
      }

      .cls-2 {
        fill: #ffffc3;
      }

      .cls-3 {
        fill: #00ce8c;
      }

      .cls-4 {
        fill: #f38290;
      }

      .cls-5 {
        fill: #64375a;
      }
    </style>
  </defs>
  <title>Prancheta 6 cópia 2</title>
  <g id="icons">
    <g>
      <polygon class="cls-1" points="66.12 20.55 66.12 18.33 59.08 18.33 59.08 20.55 22.67 20.55 22.67 75.66 70.33 75.66 70.33 20.55 66.12 20.55"/>
      <rect class="cls-2" x="22.67" y="20.55" width="13.77" height="55.11"/>
      <rect class="cls-3" x="29.06" y="20.55" width="38.96" height="55.11"/>
      <path class="cls-4" d="M46.7,58.4a1,1,0,0,1-1-1V52.5h-4.9a1,1,0,0,1-1-1v-6a1,1,0,0,1,1-1h4.9V39.6a1,1,0,0,1,1-1h6a1,1,0,0,1,1,1v4.9h4.9a1,1,0,0,1,1,1v6a1,1,0,0,1-1,1h-4.9v4.9a1,1,0,0,1-1,1Z"/>
      <path class="cls-4" d="M59,36.07a1,1,0,0,1-1-1V18.33a1,1,0,0,1,1-1h7.07a1,1,0,0,1,1,1V35.07a1,1,0,0,1-.5.87,1,1,0,0,1-.5.13,1,1,0,0,1-.5-.14l-2.87-1.67L59.5,36A1,1,0,0,1,59,36.07Z"/>
      <g>
        <path class="cls-5" d="M58.59,43.5h-3.9V39.6a2,2,0,0,0-2-2h-6a2,2,0,0,0-2,2v3.9h-3.9a2,2,0,0,0-2,2v6a2,2,0,0,0,2,2h3.9v3.9a2,2,0,0,0,2,2h6a2,2,0,0,0,2-2V53.5h3.9a2,2,0,0,0,2-2v-6A2,2,0,0,0,58.59,43.5Zm0,8h-5.9V57.4h-6V51.5h-5.9v-6h5.9V39.6h6v5.9h5.9Z"/>
        <path class="cls-5" d="M70.32,17.22H69.26A3.34,3.34,0,0,0,66.12,15h-7a3.34,3.34,0,0,0-3.15,2.22H22.67a3.34,3.34,0,0,0-3.34,3.34V75.66A3.34,3.34,0,0,0,22.67,79H70.32a3.34,3.34,0,0,0,3.34-3.34V20.55A3.34,3.34,0,0,0,70.32,17.22ZM59,20.55h0V18.33h7V35.07l-3.35-1.95L59,35.07ZM70.32,75.66H30.18V30.92a1,1,0,0,0-2,0V75.66h-5.5V20.55h5.5v6.17a1,1,0,0,0,2,0V20.55H57V35.07A2,2,0,0,0,60,36.85l2.74-1.43L65.1,36.8a2,2,0,0,0,3-1.73V20.55h2.21Z"/>
        <path class="cls-5" d="M51.52,69.91H47.74a1,1,0,0,0,0,2h3.79a1,1,0,0,0,0-2Z"/>
        <path class="cls-5" d="M55.78,66.54H43.48a1,1,0,0,0,0,2h12.3a1,1,0,0,0,0-2Z"/>
        <path class="cls-5" d="M25.33,68.89a1,1,0,0,0-1,1v2a1,1,0,1,0,2,0v-2A1,1,0,0,0,25.33,68.89Z"/>
        <path class="cls-5" d="M25.33,22.2a1,1,0,0,0-1,1v1.41a1,1,0,0,0,2,0V23.2A1,1,0,0,0,25.33,22.2Z"/>
        <path class="cls-5" d="M25.33,57.7a1,1,0,0,0-1,1v7.62a1,1,0,0,0,2,0V58.7A1,1,0,0,0,25.33,57.7Z"/>
      </g>
    </g>
  </g>
</svg>
