<svg xmlns="http://www.w3.org/2000/svg" viewBox="0 0 93 93.99">
  <defs>
    <style>
      .cls-1 {
        fill: #fffff6;
      }

      .cls-2 {
        fill: #ffffc3;
      }

      .cls-3 {
        fill: #00ce8c;
      }

      .cls-4 {
        fill: #f38290;
      }

      .cls-5 {
        fill: #64375a;
      }
    </style>
  </defs>
  <title>Prancheta 6 cópia 32</title>
  <g id="icons">
    <g>
      <path class="cls-1" d="M73.85,48.74,54.48,29.38a11.88,11.88,0,0,0-7.45-3h-.34l-15.21.79a5.2,5.2,0,0,0-4.8,4.8l-.79,15.21a11.75,11.75,0,0,0,3,7.79L48.24,74.35a4.58,4.58,0,0,0,6.46,0L73.85,55.21A4.58,4.58,0,0,0,73.85,48.74ZM32.29,35.88a3.06,3.06,0,1,1,3.06-3.06A3.06,3.06,0,0,1,32.29,35.88Z"/>
      <path class="cls-2" d="M34.5,35A3,3,0,1,1,30.2,30.7l-2-2A5.07,5.07,0,0,0,26.68,32l-.79,15.21a11.75,11.75,0,0,0,3,7.79L48.24,74.35a4.58,4.58,0,0,0,6.46,0l9.57-9.57Z"/>
      <path class="cls-3" d="M72.45,50.14,53.08,30.78A13.12,13.12,0,0,0,46,27.42l-.32,0-13.92-.5a3.84,3.84,0,0,0-4,4l.5,13.92a12.91,12.91,0,0,0,3.38,7.41L51,71.6a5,5,0,0,0,3.08,1.49,3.54,3.54,0,0,0,2.86-1l16-16C74.46,54.59,74.23,51.92,72.45,50.14ZM34.5,35a3,3,0,1,1,0-4.29A3,3,0,0,1,34.5,35Z"/>
      <g>
        <path class="cls-4" d="M55.65,61.57a1,1,0,0,1-.7-.29L51.3,57.63l-3.65,3.65a1,1,0,0,1-1.41,0l-4.42-4.42a1,1,0,0,1,0-1.41l3.65-3.65-3.65-3.65a1,1,0,0,1,0-1.41l4.42-4.42a1,1,0,0,1,1.41,0L51.3,46,55,42.31a1,1,0,0,1,1.41,0l4.42,4.42a1,1,0,0,1,0,1.41L57.13,51.8l3.65,3.65a1,1,0,0,1,0,1.41l-4.42,4.42A1,1,0,0,1,55.65,61.57Z"/>
        <path class="cls-5" d="M55.65,43l4.42,4.42L55.72,51.8l4.36,4.36-4.42,4.42L51.3,56.22l-4.36,4.36-4.42-4.42,4.36-4.36-4.36-4.36L46.94,43l4.36,4.35L55.65,43m-8.71-2a2,2,0,0,0-1.41.58L41.11,46a2,2,0,0,0,0,2.81l2.95,2.95-2.95,3a2,2,0,0,0,0,2.81L45.54,62a2,2,0,0,0,1.41.58h0A2,2,0,0,0,48.35,62l2.95-3,3,3a2,2,0,0,0,1.41.58h0A2,2,0,0,0,57.06,62l4.42-4.42a2,2,0,0,0,0-2.81L58.53,51.8l2.95-3a2,2,0,0,0,0-2.81l-4.42-4.42a2,2,0,0,0-2.81,0L51.3,44.56l-3-2.95A2,2,0,0,0,46.94,41Z"/>
      </g>
      <path class="cls-5" d="M76.19,46.4,56.83,27a15.16,15.16,0,0,0-9.79-4h-.5l-15.23.79a8.13,8.13,0,0,0-1.82.31c-2.92-6-3.88-7-4.21-7.33A6.27,6.27,0,0,0,20.81,15h0a6.31,6.31,0,0,0-4.46,10.78c1,1,4.13,2.66,7.33,4.21a8.14,8.14,0,0,0-.31,1.82L22.58,47a15,15,0,0,0,4,10.31L45.9,76.69a7.9,7.9,0,0,0,11.15,0L76.19,57.55a7.89,7.89,0,0,0,0-11.15Zm-58.44-22A4.33,4.33,0,0,1,20.81,17h0a4.29,4.29,0,0,1,3.06,1.27c.41.4,1.42,1.83,3.77,6.69a8.61,8.61,0,0,0-3.2,3.2C21.26,26.6,18.52,25.13,17.75,24.37Zm56.1,30.84L54.71,74.35a4.58,4.58,0,0,1-6.46,0L28.88,55a11.75,11.75,0,0,1-3-7.79L26.68,32a4.7,4.7,0,0,1,.08-.54l1.63.74A4,4,0,1,0,29.5,30a4,4,0,0,0-.3.37l-1.72-.79a5.16,5.16,0,0,1,4-2.41l15.21-.79H47a11.88,11.88,0,0,1,7.45,3L73.85,48.74A4.58,4.58,0,0,1,73.85,55.21ZM32,33.76a1,1,0,0,0,.39.08,1,1,0,0,0,.39-1.91l-1.62-.71a2,2,0,0,1,2.67,3.06,2.09,2.09,0,0,1-2.89,0,2,2,0,0,1-.58-1.24Z"/>
    </g>
  </g>
</svg>
