<svg xmlns="http://www.w3.org/2000/svg" viewBox="0 0 93 93.99">
  <defs>
    <style>
      .cls-1 {
        fill: #fffff6;
      }

      .cls-2 {
        fill: #ffffc3;
      }

      .cls-3 {
        fill: #00ce8c;
      }

      .cls-4 {
        opacity: 0.6;
      }

      .cls-5 {
        fill: #ff3246;
      }

      .cls-6 {
        fill: #64375a;
      }
    </style>
  </defs>
  <title>Prancheta 6 cópia 61</title>
  <g id="icons">
    <g>
      <rect class="cls-1" x="42.35" y="61.21" width="8.59" height="6.63"/>
      <path class="cls-1" d="M31.46,18.34v39c0,2.13,6.73,3.87,15,3.87s15-1.73,15-3.87v-39Z"/>
      <path class="cls-2" d="M46.65,18.34H31.46v39c0,2.13,6.73,3.87,15,3.87h.15Z"/>
      <path class="cls-3" d="M37.67,18.34v39c0,2.13,4.76,3.87,10.63,3.87s10.63-1.73,10.63-3.87v-39Z"/>
      <g class="cls-4">
        <path class="cls-5" d="M34.07,42.45V55.86c0,1.76,5.56,3.19,12.43,3.19s12.43-1.43,12.43-3.19V42.45Z"/>
      </g>
      <g>
        <path class="cls-6" d="M61.54,15H31.46a3.35,3.35,0,0,0-3.35,3.35v39c0,4.71,6.75,6.38,12.57,6.95v3.54a1.67,1.67,0,0,0,1.67,1.67h2.47v7.81a1.67,1.67,0,0,0,3.35,0V69.51h2.77a1.67,1.67,0,0,0,1.67-1.67V64.26c5.75-.59,12.27-2.28,12.27-6.91v-39A3.35,3.35,0,0,0,61.54,15ZM49.27,66.16H44V64.51c.92,0,1.76,0,2.47,0s1.74,0,2.77-.06Zm12.27-8.82c0,2.13-6.73,3.87-15,3.87s-15-1.73-15-3.87v-39H61.54Z"/>
        <path class="cls-6" d="M43,52.9h7.25a1,1,0,0,0,0-2H43a1,1,0,1,0,0,2Z"/>
        <path class="cls-6" d="M43,46.84h7.25a1,1,0,1,0,0-2H43a1,1,0,1,0,0,2Z"/>
        <path class="cls-6" d="M43,40.78h7.25a1,1,0,0,0,0-2H43a1,1,0,1,0,0,2Z"/>
        <path class="cls-6" d="M43,34.72h7.25a1,1,0,0,0,0-2H43a1,1,0,1,0,0,2Z"/>
        <path class="cls-6" d="M43,28.67h7.25a1,1,0,1,0,0-2H43a1,1,0,1,0,0,2Z"/>
      </g>
    </g>
  </g>
</svg>
