<svg xmlns="http://www.w3.org/2000/svg" viewBox="0 0 93 93.99">
  <defs>
    <style>
      .cls-1 {
        fill: #fffff6;
      }

      .cls-2 {
        fill: #ffffc3;
      }

      .cls-3 {
        fill: #00ce8c;
      }

      .cls-4 {
        opacity: 0.6;
      }

      .cls-5 {
        fill: #ff3246;
      }

      .cls-6 {
        fill: #64375a;
      }
    </style>
  </defs>
  <title>Prancheta 6 cópia 72</title>
  <g id="icons">
    <g>
      <path class="cls-1" d="M60.82,23.25a14.32,14.32,0,0,0-13.08,8.51h0a1.28,1.28,0,0,1-2.45,0h0v0a14.32,14.32,0,0,0-27.42,5.79c0,4.58,2.17,7.89,4.6,11.38,6.59,9.45,24,21.79,24,21.79S64,58.4,70.54,49c2.43-3.49,4.6-6.8,4.6-11.38A14.33,14.33,0,0,0,60.82,23.25Z"/>
      <path class="cls-2" d="M46.5,32.66a1.29,1.29,0,0,1-1.23-.9h0v0a14.32,14.32,0,0,0-27.42,5.79c0,4.58,2.17,7.89,4.6,11.38,6.58,9.45,24,21.78,24,21.79Z"/>
      <path class="cls-3" d="M60.11,23.25c-4.93,0-10.21,1.08-12.09,6.09l-.59-.47c-.14.52-.14,1.11-.62,1.11s.32,2.3.18,1.77h0v0c-1.88-5-6.12-8.53-11.05-8.53-6.68,0-12.09,6.42-12.09,14.33,0,4.58,1.84,7.89,3.89,11.38,5.56,9.45,18.83,21.79,18.83,21.79S62.76,58.4,68.32,49c2.05-3.49,3.89-6.8,3.89-11.38C72.21,29.66,66.79,23.25,60.11,23.25Z"/>
      <g class="cls-4">
        <path class="cls-5" d="M23.74,45.89l-.11-.06c.34.51.69,1,1.06,1.56,5.11,7.33,17.42,16.74,21.8,20,4.38-3.23,16.7-12.65,21.8-20,.3-.44.67-1.06,1-1.48Z"/>
      </g>
      <g>
        <path class="cls-6" d="M60.82,19.9A17.69,17.69,0,0,0,46.5,27.23a17.67,17.67,0,0,0-32,10.34c0,5.82,2.89,10,5.21,13.3C26.55,60.69,43.83,73,44.57,73.48a3.34,3.34,0,0,0,3.87,0c.73-.52,18-12.79,24.86-22.61,2.32-3.33,5.21-7.47,5.21-13.3A17.69,17.69,0,0,0,60.82,19.9ZM70.54,49c-6.58,9.45-24,21.79-24,21.79S29,58.4,22.45,49c-2.43-3.49-4.6-6.8-4.6-11.38a14.32,14.32,0,0,1,27.42-5.79v0h0a1.28,1.28,0,0,0,2.45,0h0a14.32,14.32,0,0,1,27.41,5.82C75.15,42.15,73,45.47,70.54,49Z"/>
        <path class="cls-6" d="M69.25,45.11H62.48a1,1,0,0,0-.94.66L59.85,50.4,56.44,40.22a1,1,0,0,0-.93-.69,1,1,0,0,0-1,.65l-3.14,8.36-1.29-3a1,1,0,0,0-.92-.61H43.11a1,1,0,0,0-.95.67l-1.7,4.8-3.4-10.14a1,1,0,0,0-.93-.69,1,1,0,0,0-1,.65L32,48.54l-1.29-3a1,1,0,0,0-.93-.61H23.74a1,1,0,0,0,0,2h5.41l2,4.73a1,1,0,0,0,.95.61A1,1,0,0,0,33,51.6l3-8.06,3.42,10.23a1,1,0,0,0,.95.69h0a1,1,0,0,0,.95-.67l2.43-6.89h4.7l2,4.73a1,1,0,0,0,.95.61,1,1,0,0,0,.92-.65l3-8.06,3.42,10.23a1,1,0,0,0,.94.69h0a1,1,0,0,0,.94-.66l2.43-6.67h6.06a1,1,0,1,0,0-2Z"/>
      </g>
    </g>
  </g>
</svg>
