<svg xmlns="http://www.w3.org/2000/svg" viewBox="0 0 93 93.99">
  <defs>
    <style>
      .cls-1 {
        fill: #fffff6;
      }

      .cls-2 {
        fill: #ffffc3;
      }

      .cls-3 {
        fill: #00ce8c;
      }

      .cls-4 {
        fill: #f38290;
      }

      .cls-5 {
        fill: #64375a;
      }
    </style>
  </defs>
  <title>Prancheta 6 cópia 20</title>
  <g id="icons">
    <g>
      <rect class="cls-1" x="26.13" y="18.34" width="40.73" height="57.3"/>
      <rect class="cls-2" x="26.13" y="18.34" width="34.6" height="57.3"/>
      <rect class="cls-3" x="30.03" y="18.34" width="34.6" height="57.3"/>
      <g>
        <circle class="cls-4" cx="36.23" cy="29.39" r="5.1"/>
        <path class="cls-5" d="M36.23,35.49a6.1,6.1,0,1,1,6.1-6.1A6.11,6.11,0,0,1,36.23,35.49Zm0-10.19a4.09,4.09,0,1,0,4.09,4.09A4.1,4.1,0,0,0,36.23,25.3Z"/>
      </g>
      <g>
        <circle class="cls-4" cx="56.77" cy="29.39" r="5.1"/>
        <path class="cls-5" d="M56.77,35.49a6.1,6.1,0,1,1,6.1-6.1A6.11,6.11,0,0,1,56.77,35.49Zm0-10.19a4.09,4.09,0,1,0,4.09,4.09A4.1,4.1,0,0,0,56.77,25.3Z"/>
      </g>
      <g>
        <g>
          <circle class="cls-4" cx="36.23" cy="47" r="5.1"/>
          <path class="cls-5" d="M36.23,53.1a6.1,6.1,0,1,1,6.1-6.1A6.11,6.11,0,0,1,36.23,53.1Zm0-10.19A4.09,4.09,0,1,0,40.32,47,4.1,4.1,0,0,0,36.23,42.9Z"/>
        </g>
        <g>
          <circle class="cls-4" cx="56.77" cy="47" r="5.1"/>
          <path class="cls-5" d="M56.77,53.1a6.1,6.1,0,1,1,6.1-6.1A6.11,6.11,0,0,1,56.77,53.1Zm0-10.19A4.09,4.09,0,1,0,60.86,47,4.1,4.1,0,0,0,56.77,42.9Z"/>
        </g>
      </g>
      <g>
        <g>
          <circle class="cls-4" cx="36.23" cy="64.6" r="5.1"/>
          <path class="cls-5" d="M36.23,70.7a6.1,6.1,0,1,1,6.1-6.1A6.11,6.11,0,0,1,36.23,70.7Zm0-10.19a4.09,4.09,0,1,0,4.09,4.09A4.1,4.1,0,0,0,36.23,60.51Z"/>
        </g>
        <g>
          <circle class="cls-4" cx="56.77" cy="64.6" r="5.1"/>
          <path class="cls-5" d="M56.77,70.7a6.1,6.1,0,1,1,6.1-6.1A6.11,6.11,0,0,1,56.77,70.7Zm0-10.19a4.09,4.09,0,1,0,4.09,4.09A4.1,4.1,0,0,0,56.77,60.51Z"/>
        </g>
      </g>
      <g>
        <path class="cls-5" d="M66.86,15H26.13a3.35,3.35,0,0,0-3.35,3.35v57.3A3.35,3.35,0,0,0,26.13,79H66.86a3.35,3.35,0,0,0,3.35-3.35V18.34A3.35,3.35,0,0,0,66.86,15Zm0,60.65H26.13V18.34H66.86Z"/>
        <path class="cls-5" d="M56.77,35.49a6.1,6.1,0,1,0-6.1-6.1A6.11,6.11,0,0,0,56.77,35.49Zm0-10.19a4.09,4.09,0,1,1-4.09,4.09A4.1,4.1,0,0,1,56.77,25.3Z"/>
        <path class="cls-5" d="M36.23,53.1a6.1,6.1,0,1,0-6.1-6.1A6.11,6.11,0,0,0,36.23,53.1Zm0-10.19A4.09,4.09,0,1,1,32.14,47,4.1,4.1,0,0,1,36.23,42.9Z"/>
        <path class="cls-5" d="M56.77,53.1a6.1,6.1,0,1,0-6.1-6.1A6.11,6.11,0,0,0,56.77,53.1Zm0-10.19A4.09,4.09,0,1,1,52.67,47,4.1,4.1,0,0,1,56.77,42.9Z"/>
        <path class="cls-5" d="M36.23,70.7a6.1,6.1,0,1,0-6.1-6.1A6.11,6.11,0,0,0,36.23,70.7Zm0-10.19a4.09,4.09,0,1,1-4.09,4.09A4.1,4.1,0,0,1,36.23,60.51Z"/>
        <path class="cls-5" d="M56.77,70.7a6.1,6.1,0,1,0-6.1-6.1A6.11,6.11,0,0,0,56.77,70.7Zm0-10.19a4.09,4.09,0,1,1-4.09,4.09A4.1,4.1,0,0,1,56.77,60.51Z"/>
        <path class="cls-5" d="M46.5,71.83a1,1,0,0,0,1-1V38.95a1,1,0,0,0-2,0V70.83A1,1,0,0,0,46.5,71.83Z"/>
        <path class="cls-5" d="M46.5,33.14a1,1,0,0,0,1-1V23.76a1,1,0,1,0-2,0v8.38A1,1,0,0,0,46.5,33.14Z"/>
        <path class="cls-5" d="M36.23,35.49a6.1,6.1,0,1,0-6.1-6.1A6.11,6.11,0,0,0,36.23,35.49Zm0-10.19a4.09,4.09,0,1,1-4.09,4.09A4.1,4.1,0,0,1,36.23,25.3Z"/>
        <path class="cls-5" d="M36.87,31.46A1,1,0,0,0,38.29,30l-2.73-2.73a1,1,0,0,0-1.42,1.42Z"/>
        <path class="cls-5" d="M57.42,31.46A1,1,0,1,0,58.84,30l-2.73-2.73a1,1,0,0,0-1.42,1.42Z"/>
        <path class="cls-5" d="M36.87,49.07a1,1,0,1,0,1.42-1.42l-2.73-2.73a1,1,0,0,0-1.42,1.42Z"/>
        <path class="cls-5" d="M57.42,49.07a1,1,0,1,0,1.42-1.42l-2.73-2.73a1,1,0,0,0-1.42,1.42Z"/>
        <path class="cls-5" d="M36.87,66.68a1,1,0,0,0,1.42-1.42l-2.73-2.73a1,1,0,0,0-1.42,1.42Z"/>
        <path class="cls-5" d="M57.42,66.68a1,1,0,0,0,1.42-1.42l-2.73-2.73a1,1,0,0,0-1.42,1.42Z"/>
      </g>
    </g>
  </g>
</svg>
