<svg xmlns="http://www.w3.org/2000/svg" viewBox="0 0 93 93.99">
  <defs>
    <style>
      .cls-1 {
        fill: #fffff6;
      }

      .cls-2 {
        fill: #ffffc3;
      }

      .cls-3 {
        fill: #00ce8c;
      }

      .cls-4 {
        fill: #64375a;
      }

      .cls-5 {
        opacity: 0.6;
      }

      .cls-6 {
        fill: #ff3246;
      }
    </style>
  </defs>
  <title>Prancheta 6 cópia 39</title>
  <g id="icons">
    <g>
      <path class="cls-1" d="M60.82,23.25a14.32,14.32,0,0,0-13.08,8.51h0a1.28,1.28,0,0,1-2.45,0h0v0a14.32,14.32,0,0,0-27.42,5.79c0,4.58,2.17,7.89,4.6,11.38,6.59,9.45,24,21.79,24,21.79S64,58.4,70.54,49c2.43-3.49,4.6-6.8,4.6-11.38A14.33,14.33,0,0,0,60.82,23.25Z"/>
      <path class="cls-2" d="M46.5,32.66a1.29,1.29,0,0,1-1.23-.9h0v0a14.32,14.32,0,0,0-27.42,5.79c0,4.58,2.17,7.89,4.6,11.38,6.58,9.45,24,21.78,24,21.79Z"/>
      <path class="cls-3" d="M60.11,23.25c-4.93,0-10.21,1.08-12.09,6.09l-.59-.47c-.14.52-.14,1.11-.62,1.11s.32,2.3.18,1.77h0v0c-1.88-5-6.12-8.53-11.06-8.53-6.68,0-12.09,6.41-12.09,14.33,0,4.58,1.84,7.89,3.89,11.38,5.56,9.45,18.83,21.79,18.83,21.79S62.76,58.4,68.32,49c2.05-3.49,3.89-6.8,3.89-11.38C72.21,29.66,66.79,23.25,60.11,23.25Z"/>
      <path class="cls-4" d="M60.82,23.25A14.33,14.33,0,0,1,75.15,37.57c0,4.58-2.17,7.89-4.6,11.38-6.58,9.45-24,21.79-24,21.79S29,58.4,22.45,49c-2.43-3.49-4.6-6.8-4.6-11.38a14.32,14.32,0,0,1,27.42-5.79v0h0a1.28,1.28,0,0,0,2.45,0h0a14.32,14.32,0,0,1,13.08-8.51m0-3.35A17.7,17.7,0,0,0,46.5,27.23a17.67,17.67,0,0,0-32,10.34c0,5.82,2.89,10,5.21,13.3C26.55,60.69,43.83,73,44.57,73.48a3.35,3.35,0,0,0,3.87,0c.73-.52,18-12.79,24.86-22.61,2.32-3.33,5.21-7.47,5.21-13.3A17.69,17.69,0,0,0,60.82,19.9Z"/>
      <g class="cls-5">
        <path class="cls-6" d="M46.4,35.33A4,4,0,0,1,42.9,33l-.09-.18a11.64,11.64,0,0,0-22.29,4.71c0,3.65,1.71,6.39,4.12,9.85C29.74,54.73,42,64.08,46.4,67.36Z"/>
      </g>
    </g>
  </g>
</svg>
