<svg xmlns="http://www.w3.org/2000/svg" viewBox="0 0 93 93.99">
  <defs>
    <style>
      .cls-1 {
        fill: #fffff6;
      }

      .cls-2 {
        fill: #ffffc3;
      }

      .cls-3 {
        fill: #00ce8c;
      }

      .cls-4 {
        fill: #f38290;
      }

      .cls-5 {
        fill: #64375a;
      }
    </style>
  </defs>
  <title>Prancheta 6 cópia 6</title>
  <g id="icons">
    <g>
      <polygon class="cls-1" points="74.37 22.24 32.08 22.24 29.62 26.2 34.47 50.98 71.98 50.98 76.83 26.2 74.37 22.24"/>
      <circle class="cls-1" cx="69.65" cy="66.58" r="5.17"/>
      <circle class="cls-1" cx="36.53" cy="66.58" r="5.17"/>
      <polygon class="cls-2" points="53.22 22.24 32.67 22.24 29.62 26.2 34.47 50.98 53.22 50.98 53.22 22.24"/>
      <polygon class="cls-3" points="69.17 22.24 39.82 22.24 37.64 26.2 41.11 50.98 67.89 50.98 71.35 26.2 69.17 22.24"/>
      <path class="cls-4" d="M51.28,45a1,1,0,0,1-1-1V41.14H47.46a1,1,0,0,1-1-1V36.25a1,1,0,0,1,1-1h2.82V32.43a1,1,0,0,1,1-1h3.88a1,1,0,0,1,1,1v2.83H59a1,1,0,0,1,1,1v3.88a1,1,0,0,1-1,1H56.17V44a1,1,0,0,1-1,1Z"/>
      <g>
        <path class="cls-5" d="M78.25,25.32l-2.46-4a1.67,1.67,0,0,0-1.42-.79H32.08a1.67,1.67,0,0,0-1.42.79l-2.46,4a1.66,1.66,0,0,0-.22,1.2L32.83,51.3a1.67,1.67,0,0,0,1.64,1.35H72a1.67,1.67,0,0,0,1.64-1.35l4.85-24.77A1.67,1.67,0,0,0,78.25,25.32Zm-7.64,24H35.84l-4.2-21.42h2.56v3a1,1,0,0,0,1,1h6.91a1,1,0,0,0,1-1v-3H58.37a1,1,0,1,0,0-2H31.78l1.23-2H73.44l1.23,2H62.22a1,1,0,1,0,0,2H63v3a1,1,0,0,0,1,1h6.91a1,1,0,0,0,1-1v-3H74.8ZM36.21,29.84v-2h4.91v2Zm33.67-2v2H65v-2Z"/>
        <path class="cls-5" d="M59,34.25H57.17V32.43a2,2,0,0,0-2-2H51.28a2,2,0,0,0-2,2v1.83H47.46a2,2,0,0,0-2,2v3.88a2,2,0,0,0,2,2h1.82V44a2,2,0,0,0,2,2h3.88a2,2,0,0,0,2-2V42.14H59a2,2,0,0,0,2-2V36.25A2,2,0,0,0,59,34.25Zm0,5.88H55.16V44H51.28V40.14H47.46V36.25h3.83V32.43h3.88v3.83H59Z"/>
        <path class="cls-5" d="M76.56,55H31L26,28.86h0c0-.06,0-.11,0-.16a1.54,1.54,0,0,0,0-.15,1.62,1.62,0,0,0-.09-.17l-.06-.11a1.66,1.66,0,0,0-1.23-.72H16.17a1.67,1.67,0,0,0,0,3.34h6.77L28,57h0a1.64,1.64,0,0,0,.19.5l0,.06a1.66,1.66,0,0,0,.32.37l.07.06a1.65,1.65,0,0,0,.43.24l.07,0a1.71,1.71,0,0,0,.51.09h5.92v1.48a6.84,6.84,0,1,0,7.63,8.43H63a6.84,6.84,0,1,0,7.63-8.43V58.34h5.91a1.67,1.67,0,0,0,0-3.34Zm-40,13.24h3.07a3.51,3.51,0,1,1,0-3.34H36.53a1.67,1.67,0,0,0,0,3.34ZM63,64.91H43.15a6.85,6.85,0,0,0-5.63-5.09V58.34H68.65v1.48A6.85,6.85,0,0,0,63,64.91Zm10.14,1.67a3.5,3.5,0,0,1-6.57,1.67h3.07a1.67,1.67,0,1,0,0-3.34H66.59a3.5,3.5,0,0,1,6.57,1.67Z"/>
      </g>
    </g>
  </g>
</svg>
