<svg xmlns="http://www.w3.org/2000/svg" viewBox="0 0 93 93.99">
  <defs>
    <style>
      .cls-1 {
        fill: #ffffc3;
      }

      .cls-2 {
        fill: #00ce8c;
      }

      .cls-3 {
        fill: #fffff6;
      }

      .cls-4 {
        fill: #64375a;
      }

      .cls-5 {
        opacity: 0.6;
      }

      .cls-6 {
        fill: #ff3246;
      }
    </style>
  </defs>
  <title>Prancheta 6 cópia 17</title>
  <g id="icons">
    <g>
      <circle class="cls-1" cx="46.54" cy="46.92" r="10.09"/>
      <circle class="cls-2" cx="48.35" cy="45.12" r="7.99"/>
      <circle class="cls-3" cx="50.33" cy="42.5" r="4.34"/>
      <circle class="cls-1" cx="59.83" cy="23.59" r="6.66"/>
      <circle class="cls-2" cx="61.02" cy="22.4" r="5.28"/>
      <circle class="cls-3" cx="62.33" cy="20.66" r="2.87"/>
      <circle class="cls-1" cx="69.91" cy="70.4" r="6.66"/>
      <circle class="cls-2" cx="71.1" cy="69.21" r="5.28"/>
      <circle class="cls-3" cx="72.41" cy="67.48" r="2.87"/>
      <circle class="cls-1" cx="22.83" cy="67.48" r="6.66"/>
      <circle class="cls-2" cx="24.02" cy="66.29" r="5.28"/>
      <circle class="cls-3" cx="25.33" cy="64.56" r="2.87"/>
      <circle class="cls-1" cx="29.58" cy="30.2" r="3.66"/>
      <circle class="cls-2" cx="30.69" cy="28.89" r="2.89"/>
      <circle class="cls-3" cx="30.95" cy="28.59" r="1.57"/>
      <path class="cls-4" d="M69.91,61.82a8.52,8.52,0,0,0-4.75,1.44L55.93,54a11.7,11.7,0,0,0-2.18-16.34l3.37-5.92a8.62,8.62,0,1,0-2.9-1.66L50.84,36a11.65,11.65,0,0,0-11.38,1.57L34.94,33a5.88,5.88,0,1,0-2.37,2.36l4.54,4.56a11.68,11.68,0,0,0-.45,13.35L28.2,60.61a8.61,8.61,0,1,0,2.24,2.48l8.41-7.29a11.69,11.69,0,0,0,14.71.54l9.23,9.28a8.58,8.58,0,1,0,7.12-3.8ZM59.83,18.35a5.24,5.24,0,1,1-5.24,5.24A5.25,5.25,0,0,1,59.83,18.35ZM27.25,30.2a2.53,2.53,0,1,1,2.53,2.53A2.54,2.54,0,0,1,27.25,30.2ZM23.08,72.72a5.24,5.24,0,1,1,5.24-5.24A5.25,5.25,0,0,1,23.08,72.72ZM46.54,55.34A8.42,8.42,0,1,1,55,46.92,8.43,8.43,0,0,1,46.54,55.34Zm23.37,20.3a5.24,5.24,0,1,1,5.24-5.24A5.25,5.25,0,0,1,69.91,75.64Z"/>
      <g class="cls-5">
        <circle class="cls-6" cx="46.54" cy="46.92" r="5.85"/>
      </g>
    </g>
  </g>
</svg>
