<svg xmlns="http://www.w3.org/2000/svg" viewBox="0 0 93 93.99">
  <defs>
    <style>
      .cls-1 {
        fill: #00ce8c;
      }

      .cls-2 {
        fill: #ffffc3;
      }

      .cls-3 {
        fill: #ff8490;
      }

      .cls-4 {
        fill: #64375a;
      }
    </style>
  </defs>
  <title>Prancheta 6 cópia 64</title>
  <g id="icons">
    <g>
      <polyline class="cls-1" points="47.41 30.45 59.07 61.17 71.72 77.33 55.71 66.45 39.5 25.85"/>
      <path class="cls-2" d="M30.86,41,55.71,66.45l18.88.22s.52-5.8-5.65-5.87l-10.83-.12L30,31.91"/>
      <circle class="cls-3" cx="55.84" cy="61.67" r="3.48" transform="translate(-24.41 39.73) rotate(-32.55)"/>
      <path class="cls-4" d="M74.48,61.33A7.21,7.21,0,0,0,69,59.13L60,59l-10.61-28a8.43,8.43,0,0,0,4.3-10.63A8.49,8.49,0,0,0,45.83,15a8.45,8.45,0,0,0-7.89,11.44h0v0L45.5,45.38,31.2,30.74a8.45,8.45,0,1,0-.63,12.38l23.94,24.5c.82.82,16.26,11.09,16.26,11.09A1.67,1.67,0,0,0,73,76.3l-6.3-8,7.84.09h0a1.67,1.67,0,0,0,1.66-1.52A7.69,7.69,0,0,0,74.48,61.33ZM44,18.67a5.05,5.05,0,0,1,1.81-.33,5.13,5.13,0,0,1,4.77,3.29,5.11,5.11,0,0,1-4.77,6.91,5.13,5.13,0,0,1-4.76-3.28v0A5.11,5.11,0,0,1,44,18.67Zm-.44,12.89a8.35,8.35,0,0,0,2.25.33l.33,0L55,55.07,51.58,51.6ZM25.16,41.75a5.1,5.1,0,1,1,3.57-1.45A5.06,5.06,0,0,1,25.16,41.75ZM51.7,60l-19-19.47a8.33,8.33,0,0,0,.83-2.61L53.22,58.06A4.42,4.42,0,0,0,51.7,60Zm5.47,3.79a2.48,2.48,0,1,1,.75-3.42A2.46,2.46,0,0,1,57.17,63.75Zm4.06,4.43h1.22l1.36,1.74ZM59,64.82a4.47,4.47,0,0,0,1.23-2.45l8.68.1A4.06,4.06,0,0,1,72,63.56,3.48,3.48,0,0,1,72.74,65Z"/>
    </g>
  </g>
</svg>
