<svg xmlns="http://www.w3.org/2000/svg" viewBox="0 0 93 93.99">
  <defs>
    <style>
      .cls-1 {
        fill: #fffff6;
      }

      .cls-2 {
        fill: #ffffc3;
      }

      .cls-3 {
        fill: #00ce8c;
      }

      .cls-4 {
        opacity: 0.6;
      }

      .cls-5 {
        fill: #ff3246;
      }

      .cls-6 {
        fill: #64375a;
      }
    </style>
  </defs>
  <title>Prancheta 6 cópia 52</title>
  <g id="icons">
    <g>
      <path class="cls-1" d="M72.33,67.86l-8.48-8.48-1.76,1.77L53.53,52.6V48.28L24.83,19.59l-.18-.2a3.68,3.68,0,0,0-5.21,5.21h0l34.1,34.1V56.06L73.15,75.67S77,72.5,72.33,67.86Z"/>
      <path class="cls-2" d="M62.13,61.1l-.05.05-3.22-3.22L19.28,19.6a3.67,3.67,0,0,0,.17,5h0l34.1,34.1V56.06L73.15,75.67a4.61,4.61,0,0,0,1.41-2.54Z"/>
      <path class="cls-3" d="M71.56,68.62l-8.48-8.48-.83.84-8.55-8.55-1.14-3.19L23.86,20.56l-.18-.19c-1.44-1.44-3.16-2.05-3.84-1.37s-.07,2.4,1.37,3.84h0l34.1,34.1-.7-2L74.23,74.6S76.21,73.27,71.56,68.62Z"/>
      <g class="cls-4">
        <path class="cls-5" d="M51.75,49,36.62,33.83l-.09-.1a1.94,1.94,0,0,0-2.75,2.75h0l18,18Z"/>
      </g>
      <g>
        <path class="cls-6" d="M74.68,65.51,66.19,57a3.32,3.32,0,0,0-2.35-1h0a3.33,3.33,0,0,0-1.69.46l-5.3-5.3V48.27a3.33,3.33,0,0,0-1-2.34l-28.6-28.6L27,17.06A7,7,0,1,0,17.1,27l0,0L51.2,61.05a3.32,3.32,0,0,0,3.43.79L70.8,78a3.32,3.32,0,0,0,4.47.21,8,8,0,0,0,2.67-5.48C78.06,70.23,77,67.8,74.68,65.51ZM19.45,24.61h0a3.68,3.68,0,0,1,5.21-5.21l.18.2,28.5,28.5v10.4ZM73.15,75.67,55.33,57.85V54.39l6.76,6.76,1.76-1.77,8.48,8.48C77,72.5,73.15,75.67,73.15,75.67Z"/>
        <path class="cls-6" d="M51,47.56a1,1,0,0,0-1,1v4.79a1,1,0,0,0,2,0V48.56A1,1,0,0,0,51,47.56Z"/>
        <path class="cls-6" d="M47.88,44.45a1,1,0,0,0-1,1v4.79a1,1,0,0,0,2,0V45.44A1,1,0,0,0,47.88,44.45Z"/>
        <path class="cls-6" d="M44.77,41.33a1,1,0,0,0-1,1v4.79a1,1,0,1,0,2,0V42.33A1,1,0,0,0,44.77,41.33Z"/>
        <path class="cls-6" d="M64.69,62.32a1,1,0,0,0-1.41,1.41l7.51,7.51a1,1,0,0,0,1.41-1.41Z"/>
      </g>
    </g>
  </g>
</svg>
