<svg xmlns="http://www.w3.org/2000/svg" viewBox="0 0 93 93.99">
  <defs>
    <style>
      .cls-1 {
        fill: #fff;
      }

      .cls-2 {
        fill: #ffffc3;
      }

      .cls-3 {
        fill: #00ce8c;
      }

      .cls-4 {
        fill: #f38290;
      }

      .cls-5 {
        fill: #64375a;
      }
    </style>
  </defs>
  <title>Prancheta 6 cópia 34</title>
  <g id="icons">
    <g>
      <path class="cls-1" d="M55.36,49.17A49.62,49.62,0,0,1,46.5,56a63.27,63.27,0,0,1-8.87-6.79,29.61,29.61,0,0,0-16.72,13.4,29.54,29.54,0,0,0,51.17,0A29.61,29.61,0,0,0,55.36,49.17Z"/>
      <path class="cls-1" d="M35.06,18.74V35.09a11.44,11.44,0,0,0,22.87,0V18.74A32.35,32.35,0,0,0,35.06,18.74Z"/>
      <path class="cls-2" d="M48.47,17.52c-17,0-13.41,2.66-13.41,17.57,0,6.32,6,11.44,13.41,11.44Z"/>
      <path class="cls-3" d="M41.89,17.52V35.09c0,5.44,2.7,9.85,6,9.85s6-4.41,6-9.85V17.52Z"/>
      <path class="cls-2" d="M46.5,56a63.27,63.27,0,0,1-8.87-6.79,29.61,29.61,0,0,0-16.72,13.4A29.52,29.52,0,0,0,46.5,77.34Z"/>
      <path class="cls-3" d="M55.14,49.95a61.57,61.57,0,0,1-7.56,6.88,71.11,71.11,0,0,1-7.79-6.88c-5.52,2-9.7,6.14-12.55,11.72,3.47,8.11,11.83,14,20.33,14s15.92-5.24,19.89-13C64.63,57.07,60.66,51.92,55.14,49.95Z"/>
      <rect class="cls-4" x="51.39" y="61.64" width="9.56" height="5.84"/>
      <g>
        <path class="cls-5" d="M60.94,60.65H57.16v-.23a1,1,0,1,0-2,0v.23H51.39a1,1,0,0,0-1,1v5.84a1,1,0,0,0,1,1h9.56a1,1,0,0,0,1-1V61.64A1,1,0,0,0,60.94,60.65Zm-1,5.84H52.38V62.64h2.79v.23a1,1,0,1,0,2,0v-.23h2.79Z"/>
        <path class="cls-5" d="M56.16,58.66a1,1,0,0,0,.71-.29,1,1,0,0,0,0-1.4,1,1,0,0,0-1.4,0,1,1,0,0,0-.29.7,1,1,0,0,0,1,1Z"/>
        <path class="cls-5" d="M73.51,61.74A31.16,31.16,0,0,0,55.86,47.59a1.65,1.65,0,0,0-1.67.41l-.41.39-.11.1A48.73,48.73,0,0,1,46.52,54a60.89,60.89,0,0,1-7.22-5.53l-.09-.08L38.8,48a1.65,1.65,0,0,0-1.67-.41A31.15,31.15,0,0,0,19.48,61.74a1.65,1.65,0,0,0,0,1.66,31.2,31.2,0,0,0,54,0A1.65,1.65,0,0,0,73.51,61.74ZM24.15,64.46c-.46-.61-.9-1.24-1.31-1.89a27.85,27.85,0,0,1,7.29-7.78,38.2,38.2,0,0,0-4.76,7.11C24.95,62.72,24.54,63.58,24.15,64.46Zm23.34,11.2v-11a1,1,0,1,0-2,0v11a28,28,0,0,1-19.93-9.46c.49-1.16,1-2.3,1.57-3.37A30.21,30.21,0,0,1,37.24,51.09a68.5,68.5,0,0,0,8.26,6.2v3a1,1,0,1,0,2,0v-3a51.89,51.89,0,0,0,8.26-6.21c4,2.53,7.48,6.62,10.23,12,.52,1,1,2.06,1.45,3.13A28,28,0,0,1,47.49,75.65Zm21.35-11.2c-.35-.79-.71-1.56-1.1-2.3a38.42,38.42,0,0,0-4.89-7.36,27.88,27.88,0,0,1,7.29,7.78C69.74,63.22,69.3,63.84,68.84,64.45Z"/>
        <path class="cls-5" d="M46.5,48.18A13.11,13.11,0,0,0,59.59,35.09V18.74a1.65,1.65,0,0,0-1.07-1.55,34,34,0,0,0-24,0,1.65,1.65,0,0,0-1.07,1.55V35.09A13.1,13.1,0,0,0,46.5,48.18ZM36.72,19.91a30.82,30.82,0,0,1,19.56,0v8.41H36.72Zm0,10.4H56.28v4.78a9.78,9.78,0,0,1-19.56,0Z"/>
        <path class="cls-5" d="M48.88,22.39H47.49V21a1,1,0,1,0-2,0v1.39H44.11a1,1,0,0,0,0,2H45.5v1.39a1,1,0,1,0,2,0V24.38h1.39a1,1,0,1,0,0-2Z"/>
      </g>
    </g>
  </g>
</svg>
