<svg xmlns="http://www.w3.org/2000/svg" viewBox="0 0 93 93.99">
  <defs>
    <style>
      .cls-1 {
        fill: #fffff6;
      }

      .cls-2 {
        fill: #f38290;
      }

      .cls-3 {
        fill: #ffffc3;
      }

      .cls-4 {
        fill: #00ce8c;
      }

      .cls-5 {
        fill: #64375a;
      }
    </style>
  </defs>
  <title>Prancheta 6 cópia 11</title>
  <g id="icons">
    <g>
      <rect class="cls-1" x="22.3" y="33.69" width="48.4" height="41.66"/>
      <polygon class="cls-1" points="50.12 18.13 50.12 23.28 42.82 23.28 42.82 18.13 38.43 18.13 38.43 32.83 42.82 32.83 42.82 27.67 50.12 27.67 50.12 32.83 54.51 32.83 54.51 18.13 50.12 18.13"/>
      <path class="cls-2" d="M50.12,34.68a1,1,0,0,1-1-1V29.52H43.82v4.16a1,1,0,0,1-1,1H38.43a1,1,0,0,1-1-1V19a1,1,0,0,1,1-1h4.39a1,1,0,0,1,1,1v4.16h5.31V19a1,1,0,0,1,1-1h4.39a1,1,0,0,1,1,1V33.69a1,1,0,0,1-1,1Z"/>
      <rect class="cls-3" x="23.2" y="33.69" width="7.54" height="41.66"/>
      <rect class="cls-4" x="30.74" y="33.69" width="36.08" height="41.66"/>
      <rect class="cls-1" x="27.17" y="38.47" width="7.14" height="7.14"/>
      <rect class="cls-1" x="37.67" y="38.47" width="7.14" height="7.14"/>
      <rect class="cls-1" x="48.18" y="38.47" width="7.14" height="7.14"/>
      <rect class="cls-1" x="58.69" y="38.47" width="7.14" height="7.14"/>
      <rect class="cls-1" x="27.17" y="49.36" width="7.14" height="7.14"/>
      <rect class="cls-1" x="37.67" y="49.36" width="7.14" height="7.14"/>
      <rect class="cls-1" x="48.18" y="49.36" width="7.14" height="7.14"/>
      <rect class="cls-1" x="58.69" y="49.36" width="7.14" height="7.14"/>
      <rect class="cls-1" x="27.17" y="60.25" width="7.14" height="7.14"/>
      <rect class="cls-2" x="37.67" y="60.25" width="17.65" height="15.09"/>
      <rect class="cls-1" x="58.69" y="60.25" width="7.14" height="7.14"/>
      <g>
        <path class="cls-5" d="M27.17,46.61h7.14a1,1,0,0,0,1-1V38.47a1,1,0,0,0-1-1H27.17a1,1,0,0,0-1,1v7.14A1,1,0,0,0,27.17,46.61Zm1-7.14h5.15v5.15H28.16Z"/>
        <path class="cls-5" d="M37.67,46.61h7.14a1,1,0,0,0,1-1V38.47a1,1,0,0,0-1-1H37.67a1,1,0,0,0-1,1v7.14A1,1,0,0,0,37.67,46.61Zm1-7.14h5.15v5.15H38.67Z"/>
        <path class="cls-5" d="M48.18,46.61h7.14a1,1,0,0,0,1-1V38.47a1,1,0,0,0-1-1H48.18a1,1,0,0,0-1,1v7.14A1,1,0,0,0,48.18,46.61Zm1-7.14h5.15v5.15H49.18Z"/>
        <path class="cls-5" d="M58.69,46.61h7.14a1,1,0,0,0,1-1V38.47a1,1,0,0,0-1-1H58.69a1,1,0,0,0-1,1v7.14A1,1,0,0,0,58.69,46.61Zm1-7.14h5.15v5.15H59.68Z"/>
        <path class="cls-5" d="M27.17,57.5h7.14a1,1,0,0,0,1-1V49.36a1,1,0,0,0-1-1H27.17a1,1,0,0,0-1,1V56.5A1,1,0,0,0,27.17,57.5Zm1-7.14h5.15v5.15H28.16Z"/>
        <path class="cls-5" d="M37.67,57.5h7.14a1,1,0,0,0,1-1V49.36a1,1,0,0,0-1-1H37.67a1,1,0,0,0-1,1V56.5A1,1,0,0,0,37.67,57.5Zm1-7.14h5.15v5.15H38.67Z"/>
        <path class="cls-5" d="M48.18,57.5h7.14a1,1,0,0,0,1-1V49.36a1,1,0,0,0-1-1H48.18a1,1,0,0,0-1,1V56.5A1,1,0,0,0,48.18,57.5Zm1-7.14h5.15v5.15H49.18Z"/>
        <path class="cls-5" d="M58.69,57.5h7.14a1,1,0,0,0,1-1V49.36a1,1,0,0,0-1-1H58.69a1,1,0,0,0-1,1V56.5A1,1,0,0,0,58.69,57.5Zm1-7.14h5.15v5.15H59.68Z"/>
        <path class="cls-5" d="M27.17,68.39h7.14a1,1,0,0,0,1-1V60.25a1,1,0,0,0-1-1H27.17a1,1,0,0,0-1,1v7.14A1,1,0,0,0,27.17,68.39Zm1-7.14h5.15V66.4H28.16Z"/>
        <path class="cls-5" d="M58.69,68.39h7.14a1,1,0,0,0,1-1V60.25a1,1,0,0,0-1-1H58.69a1,1,0,0,0-1,1v7.14A1,1,0,0,0,58.69,68.39Zm1-7.14h5.15V66.4H59.68Z"/>
        <path class="cls-5" d="M76.84,73.68H72.36v-40A1.66,1.66,0,0,0,70.7,32H56.5V19a2,2,0,0,0-2-2H50.12a2,2,0,0,0-2,2v3.16H44.81V19a2,2,0,0,0-2-2H38.43a2,2,0,0,0-2,2V32H22.3a1.66,1.66,0,0,0-1.66,1.66v40H16.16a1.66,1.66,0,0,0,0,3.32H76.84a1.66,1.66,0,1,0,0-3.32ZM38.43,19h4.39v5.16h7.3V19h4.39V32H50.12v-3.5h-7.3V32H38.43Zm9.7,11.54V32H44.81v-1.5ZM69,35.35V70.11H56.32V60.25a1,1,0,0,0-1-1H37.67a1,1,0,0,0-1,1v9.86H24V35.35ZM47.49,73.68v-6.9a1,1,0,1,0-2,0v6.9H38.67V61.25H45.5v1.89a1,1,0,1,0,2,0V61.25h6.83V73.68ZM24,72.1H36.68v1.58H24Zm32.36,1.58V72.1H69v1.58Z"/>
      </g>
    </g>
  </g>
</svg>
