<svg xmlns="http://www.w3.org/2000/svg" viewBox="0 0 93 93.99">
  <defs>
    <style>
      .cls-1 {
        fill: #ffffc3;
      }

      .cls-2 {
        fill: #00ce8c;
      }

      .cls-3 {
        fill: #fffff6;
      }

      .cls-4 {
        opacity: 0.6;
      }

      .cls-5 {
        fill: #ff3246;
      }

      .cls-6 {
        fill: #64375a;
      }
    </style>
  </defs>
  <title>Prancheta 6 cópia 28</title>
  <g id="icons">
    <g>
      <path class="cls-1" d="M56.42,51.15l-5.76,5.76L70,76.2h0a4.08,4.08,0,0,0,5.76-5.76h0Z"/>
      <path class="cls-2" d="M57.84,51.15l-4.57,3.16L72.56,73.6h0a4.05,4.05,0,0,0,2.83,1.12c2.23,0,1.73-.33,1.73-2.56a8.42,8.42,0,0,1,.12-1.62Z"/>
      <circle class="cls-3" cx="38.13" cy="38.65" r="21.98" transform="translate(-16.16 38.28) rotate(-45)"/>
      <path class="cls-1" d="M38.08,21.55a17.1,17.1,0,1,0,.1,34.2Z"/>
      <path class="cls-2" d="M48.71,26.53c-5-6.66-13.13-6.64-18.11.05s-5,17.52.07,24.18,13.13,6.64,18.11-.05S53.73,33.19,48.71,26.53Z"/>
      <g class="cls-4">
        <circle class="cls-5" cx="38.13" cy="38.65" r="13.84" transform="translate(-16.16 38.28) rotate(-45)"/>
      </g>
      <g>
        <path class="cls-6" d="M76.9,69.26,58.43,50.8a23.63,23.63,0,1,0-8.12,8.13L68.79,77.4a5.74,5.74,0,0,0,9.71-4.11A5.79,5.79,0,0,0,76.9,69.26ZM23.77,53A20.31,20.31,0,1,1,38.13,59,20.33,20.33,0,0,1,23.77,53Zm49,22.64A2.39,2.39,0,0,1,71.14,75l-18-18q.92-.75,1.77-1.6a24.14,24.14,0,0,0,1.63-1.8l18,18a2.41,2.41,0,0,1,.64,1.68A2.37,2.37,0,0,1,72.79,75.65Z"/>
        <path class="cls-6" d="M50.93,25.85a18.1,18.1,0,1,0,0,25.6A18,18,0,0,0,50.93,25.85ZM49.52,50a16.1,16.1,0,1,1,0-22.77A16,16,0,0,1,49.52,50Z"/>
        <path class="cls-6" d="M44.47,29.35l-9.93,9.93A1,1,0,1,0,36,40.7l9.93-9.93a1,1,0,0,0-1.42-1.42Z"/>
        <path class="cls-6" d="M41.72,38.42l-7.17,7.17A1,1,0,0,0,36,47l7.17-7.17a1,1,0,1,0-1.42-1.42Z"/>
        <path class="cls-6" d="M31.44,42.38l-2.07,2.07a1,1,0,1,0,1.42,1.42l2.07-2.07a1,1,0,1,0-1.42-1.42Z"/>
      </g>
    </g>
  </g>
</svg>
