<svg xmlns="http://www.w3.org/2000/svg" viewBox="0 0 93 93.99">
  <defs>
    <style>
      .cls-1 {
        fill: #fffff6;
      }

      .cls-2 {
        fill: #ffffc3;
      }

      .cls-3 {
        fill: #00ce8c;
      }

      .cls-4 {
        fill: #f38290;
      }

      .cls-5 {
        fill: #64375a;
      }
    </style>
  </defs>
  <title>Prancheta 6 cópia</title>
  <g id="icons">
    <g>
      <rect class="cls-1" x="17.81" y="31.66" width="57.38" height="38.61" rx="5.3" ry="5.3"/>
      <path class="cls-2" d="M66.14,31.66A5.13,5.13,0,0,1,71.06,37V65a5.13,5.13,0,0,1-4.91,5.3H22.72A5.13,5.13,0,0,1,17.81,65V37a5.13,5.13,0,0,1,4.91-5.3H66.14"/>
      <path class="cls-3" d="M68.32,31.66c2.54,0,4.61,2.38,4.61,5.3V65c0,2.91-2.08,5.3-4.61,5.3H27.56c-2.54,0-4.61-2.38-4.61-5.3V37c0-2.91,2.08-5.3,4.61-5.3H68.32"/>
      <rect class="cls-1" x="21.95" y="34.2" width="7.94" height="3.83" rx="0.99" ry="0.99"/>
      <rect class="cls-1" x="63.1" y="34.2" width="7.94" height="3.83" rx="0.99" ry="0.99"/>
      <path class="cls-4" d="M43.47,63.65a1,1,0,0,1-1-1v-5h-5a1,1,0,0,1-1-1v-6a1,1,0,0,1,1-1h5v-5a1,1,0,0,1,1-1h6a1,1,0,0,1,1,1v5h5a1,1,0,0,1,1,1v6a1,1,0,0,1-1,1h-5v5a1,1,0,0,1-1,1Z"/>
      <g>
        <path class="cls-5" d="M55.48,48.66h-4v-4a2,2,0,0,0-2-2h-6a2,2,0,0,0-2,2v4h-4a2,2,0,0,0-2,2v6a2,2,0,0,0,2,2h4v4a2,2,0,0,0,2,2h6a2,2,0,0,0,2-2v-4h4a2,2,0,0,0,2-2v-6A2,2,0,0,0,55.48,48.66Zm0,8h-6v6h-6v-6h-6v-6h6v-6h6v6h6Z"/>
        <path class="cls-5" d="M69.89,28.35H58.08V26a5.59,5.59,0,0,0-5.59-5.59h-12A5.59,5.59,0,0,0,34.91,26v2.36H23.1A8.62,8.62,0,0,0,14.5,37V65a8.62,8.62,0,0,0,8.61,8.61H69.89A8.62,8.62,0,0,0,78.5,65V37A8.62,8.62,0,0,0,69.89,28.35ZM38.22,26a2.28,2.28,0,0,1,2.28-2.28h12A2.28,2.28,0,0,1,54.77,26v2.36H38.22ZM23.1,31.66H34.91v.76a1.65,1.65,0,0,0,3.31,0v-.76H54.77V32a1.65,1.65,0,1,0,3.31,0v-.36H69.89a5.3,5.3,0,0,1,5.26,4.94A5.93,5.93,0,0,0,72,35.14a2,2,0,0,0-2-1.94h-6a2,2,0,0,0-2,1.88H30.88a2,2,0,0,0-2-1.88h-6a2,2,0,0,0-2,1.94,5.93,5.93,0,0,0-3.12,1.46A5.3,5.3,0,0,1,23.1,31.66Zm46.95,3.53V37h-6V35.19Zm-41.15,0V37h-6V35.19ZM75.19,65a5.31,5.31,0,0,1-5.3,5.3H23.1a5.31,5.31,0,0,1-5.3-5.3V41A4,4,0,0,1,21,37.15a2,2,0,0,0,2,1.87h6a2,2,0,0,0,2-2H62.11a2,2,0,0,0,2,2h6a2,2,0,0,0,2-1.87A4,4,0,0,1,75.19,41Z"/>
      </g>
    </g>
  </g>
</svg>
