<svg xmlns="http://www.w3.org/2000/svg" viewBox="0 0 93 93.99">
  <defs>
    <style>
      .cls-1 {
        fill: #fffff6;
      }

      .cls-2 {
        fill: #ffffc3;
      }

      .cls-3 {
        fill: #00ce8c;
      }

      .cls-4 {
        opacity: 0.6;
      }

      .cls-5 {
        fill: #ff3246;
      }

      .cls-6 {
        fill: #64375a;
      }
    </style>
  </defs>
  <title>Prancheta 6 cópia 23</title>
  <g id="icons">
    <g>
      <path class="cls-1" d="M42.73,31.7,23.11,18.89h0a3.4,3.4,0,0,0-4.71,4.71h0L31.2,43.23l5.05,1.09,1.35,5.32,26,26L75.17,64.13l-26-26-5.32-1.35Z"/>
      <path class="cls-2" d="M18.82,19.32a3.4,3.4,0,0,0-.43,4.29h0L31.2,43.23l5.05,1.09,1.35,5.32,26,26L69.4,69.9Z"/>
      <path class="cls-3" d="M41,33.45,22.77,19.23h0c-1.23-1-2.63-1.23-3.31-.54S19,20.77,20,22h0L34.21,40.22l4.24,1.91,2.17,4.5,26,26,6.77-6.78-26-26-4.5-2.17Z"/>
      <g class="cls-4">
        <polygon class="cls-5" points="71.72 64.18 63.57 72.33 41.97 50.73 58.23 50.7 71.72 64.18"/>
      </g>
      <path class="cls-6" d="M77.52,61.78l-26-26A3.32,3.32,0,0,0,50,34.88L46.64,34,46,31a3.33,3.33,0,0,0-1.43-2.09L24.93,16.1l-.16-.1a6.73,6.73,0,0,0-9.27,9.24l.11.18L28.41,45.05a3.33,3.33,0,0,0,2.08,1.44l3,.66.84,3.32A3.32,3.32,0,0,0,35.25,52l26,26A3.33,3.33,0,0,0,66,78L77.52,66.49a3.33,3.33,0,0,0,0-4.71ZM63.63,75.67,38.47,50.5h0l7.21-7.21a1,1,0,1,0-1.41-1.41l-6.88,6.88-.76-3,4.58-4.59a1,1,0,0,0-1.41-1.41l-4.36,4.36-3.08-.66,6.76-6.76a1,1,0,1,0-1.41-1.41l-7.06,7.06L18.39,23.61h0a3.4,3.4,0,0,1,4.71-4.71h0L41.88,31.14l-1.17,1.17a1,1,0,0,0,1.41,1.41l.86-.86.66,3.08-.71.71a1,1,0,0,0,1.41,1.41l.93-.93,3,.76-1,1a1,1,0,1,0,1.41,1.41L50,39,75.17,64.13Z"/>
    </g>
  </g>
</svg>
