<svg xmlns="http://www.w3.org/2000/svg" viewBox="0 0 93 93.99">
  <defs>
    <style>
      .cls-1 {
        fill: #fffff6;
      }

      .cls-2 {
        fill: #ffffc3;
      }

      .cls-3 {
        fill: #00ce8c;
      }

      .cls-4 {
        opacity: 0.6;
      }

      .cls-5 {
        fill: #ff3246;
      }

      .cls-6 {
        fill: #64375a;
      }
    </style>
  </defs>
  <title>Prancheta 6 cópia 43</title>
  <g id="icons">
    <g>
      <path class="cls-1" d="M31.62,36.82,43.32,25.13a36.13,36.13,0,0,0-2.82-4.77L26.84,34C28.17,34.87,29.8,35.85,31.62,36.82Z"/>
      <path class="cls-1" d="M45.56,57.67,57.25,46A36.07,36.07,0,0,1,62,48.8L48.36,62.46C47.51,61.12,46.53,59.49,45.56,57.67Z"/>
      <path class="cls-1" d="M57.33,61.41,69,49.72a36.33,36.33,0,0,1,4.77,2.82L60.13,66.19C59.28,64.86,58.3,63.23,57.33,61.41Z"/>
      <path class="cls-1" d="M36.06,47.31,47.75,35.62a36,36,0,0,0-2.82-4.77L31.27,44.51C32.6,45.36,34.24,46.34,36.06,47.31Z"/>
      <rect class="cls-2" x="19.11" y="32.76" width="19.94" height="4.76" transform="translate(-16.33 30.86) rotate(-45.01)"/>
      <polygon class="cls-2" points="35.42 47.89 43.79 39.52 41.78 34.8 31.27 45.31 35.42 47.89"/>
      <path class="cls-3" d="M39.67,44.07,44,39.7a37.81,37.81,0,0,0-1.41-6.18L33.95,42.2A36.52,36.52,0,0,0,39.67,44.07Z"/>
      <path class="cls-3" d="M28.73,39.72,40.42,28a36.26,36.26,0,0,0-2.82-4.77L23.94,36.91C25.28,37.76,26.91,38.74,28.73,39.72Z"/>
      <g class="cls-4">
        <path class="cls-5" d="M38.54,45.2l5.75-5.75a38.34,38.34,0,0,0-.65-6.94L32.21,43.94A34.43,34.43,0,0,0,38.54,45.2Z"/>
      </g>
      <rect class="cls-2" x="48.39" y="62.05" width="19.94" height="4.76" transform="translate(-28.46 60.14) rotate(-45)"/>
      <polygon class="cls-2" points="45.61 58.09 53.99 49.72 58.71 51.73 48.2 62.24 45.61 58.09"/>
      <path class="cls-3" d="M49.43,53.84l4.37-4.37A37.77,37.77,0,0,1,60,50.88l-8.68,8.68A36.7,36.7,0,0,1,49.43,53.84Z"/>
      <g class="cls-4">
        <path class="cls-5" d="M48.31,55l5.75-5.75a38.5,38.5,0,0,1,6.94.65L49.57,61.29A34.34,34.34,0,0,1,48.31,55Z"/>
      </g>
      <path class="cls-3" d="M53.79,64.77,65.48,53.08a36.64,36.64,0,0,1,4.77,2.82L56.59,69.56C55.74,68.22,54.76,66.59,53.79,64.77Z"/>
      <path class="cls-6" d="M78.11,54.12c-9.61-9.61-19.86-9.54-29.84-8.91.58-9.93.6-20.12-9-29.73a1.67,1.67,0,1,0-2.36,2.36,31.34,31.34,0,0,1,2.23,2.47L19.71,39.73a31.72,31.72,0,0,1-2.47-2.22,1.67,1.67,0,1,0-2.36,2.36c9.61,9.61,19.86,9.54,29.84,8.92-.58,9.93-.59,20.12,9,29.72a1.67,1.67,0,1,0,2.36-2.36,31.75,31.75,0,0,1-2.21-2.46L73.3,54.27a31.39,31.39,0,0,1,2.46,2.21,1.67,1.67,0,1,0,2.36-2.36ZM48.78,63.5l14.3-14.3a25.66,25.66,0,0,1,3.69,1.18L50,67.18A25.67,25.67,0,0,1,48.78,63.5Zm-.89-6.71,8.46-8.46a37,37,0,0,1,4.37.39L48.3,61.15A37,37,0,0,1,47.89,56.8Zm0-2.79c0-1.8.11-3.61.22-5.44,1.84-.12,3.66-.22,5.47-.25ZM32.3,45.26,44.7,32.87a37.18,37.18,0,0,1,.41,4.35l-8.43,8.44A37.06,37.06,0,0,1,32.3,45.26Zm-6.05-1.64L43,26.83a25.72,25.72,0,0,1,1.19,3.68L29.94,44.8A25.64,25.64,0,0,1,26.25,43.62ZM45.14,40c0,1.79-.11,3.59-.22,5.42-1.83.12-3.65.22-5.44.25Zm-4.8-18.09a25.82,25.82,0,0,1,1.79,3L24.3,42.73a25.58,25.58,0,0,1-3-1.79ZM52.66,72.08a26,26,0,0,1-1.8-3L68.71,51.27a25.54,25.54,0,0,1,3,1.79Z"/>
    </g>
  </g>
</svg>
