<svg xmlns="http://www.w3.org/2000/svg" viewBox="0 0 93 93.99">
  <defs>
    <style>
      .cls-1 {
        fill: #fffff6;
      }

      .cls-2 {
        fill: #ffffc3;
      }

      .cls-3 {
        fill: #00ce8c;
      }

      .cls-4 {
        fill: #64375a;
      }

      .cls-5 {
        fill: #f38290;
      }
    </style>
  </defs>
  <title>Prancheta 6 cópia 53</title>
  <g id="icons">
    <g>
      <circle class="cls-1" cx="29.38" cy="59.46" r="7.63"/>
      <polygon class="cls-1" points="60.63 26.51 47.01 26.51 47.01 47.91 51.66 47.91 51.66 51.88 55.98 51.88 55.98 47.91 60.63 47.91 60.63 26.51"/>
      <polygon class="cls-2" points="53.82 51.88 53.82 26.51 46.04 26.51 46.04 47.91 51.35 47.91 51.35 51.88 53.82 51.88"/>
      <polygon class="cls-3" points="59.28 26.51 49.58 26.51 49.58 47.91 52.9 47.91 52.9 51.88 55.97 51.88 55.97 47.91 59.28 47.91 59.28 26.51"/>
      <path class="cls-2" d="M24.94,53.26a7.63,7.63,0,1,0,9.74,11.69C31.83,61.48,27.15,55.84,24.94,53.26Z"/>
      <ellipse class="cls-3" cx="29.92" cy="59.12" rx="4.03" ry="5.89" transform="translate(-26.72 24.73) rotate(-31.89)"/>
      <path class="cls-4" d="M29.39,60.18a1,1,0,0,1-1-1V55.7a1,1,0,0,1,2,0v3.46A1,1,0,0,1,29.39,60.18Z"/>
      <path class="cls-5" d="M35,39.73a5.67,5.67,0,1,1-11.33,0c0-3.28,5.66-13.22,5.66-13.22S35,36.45,35,39.73Z"/>
      <g>
        <path class="cls-4" d="M62.87,58.44H57.65a1,1,0,0,0,0,2h5.22a8.26,8.26,0,0,1,8,8.45,8,8,0,0,1-16.07,0V55.28H56a3.39,3.39,0,0,0,3.39-3.39v-.58h1.26A3.39,3.39,0,0,0,64,47.91V26.51a3.39,3.39,0,0,0-3.39-3.39h-6A10.27,10.27,0,0,0,44.77,15H38.44A10.08,10.08,0,0,0,28.37,25.07s0,.06,0,.09a1.65,1.65,0,0,0-.48.51C26.93,27.4,22,36.18,22,39.73a7.51,7.51,0,0,0,7.36,7.64,7.51,7.51,0,0,0,7.36-7.64c0-3.55-4.9-12.34-5.89-14.06a1.67,1.67,0,0,0-.47-.51,1,1,0,0,0,0-.09,8,8,0,0,1,8-8h6.33a8.27,8.27,0,0,1,7.82,6.09H47a3.4,3.4,0,0,0-3.39,3.39v21.4A3.4,3.4,0,0,0,47,51.31h1.26v.58a3.39,3.39,0,0,0,3.39,3.39H52.8V68.93a10.07,10.07,0,0,0,20.14,0A10.3,10.3,0,0,0,62.87,58.44ZM33.35,39.73a4.12,4.12,0,0,1-4,4.24,4.12,4.12,0,0,1-4-4.24c0-1.55,2-5.95,4-9.68C31.34,33.79,33.35,38.18,33.35,39.73ZM47,30.31h9.18a1,1,0,1,0,0-2H47V26.51H60.63v1.76H59.28a1,1,0,0,0,0,2h1.35V47.91H56v0H51.66v0H47Zm4.65,21.58V50H56v1.92Z"/>
        <path class="cls-4" d="M49.93,58.44H38.66a9.33,9.33,0,1,0,0,2H49.93a1,1,0,0,0,0-2Zm-20.54,7a5.94,5.94,0,1,1,5.94-5.94A5.94,5.94,0,0,1,29.39,65.39Z"/>
      </g>
    </g>
  </g>
</svg>
