<svg xmlns="http://www.w3.org/2000/svg" viewBox="0 0 93 93.99">
  <defs>
    <style>
      .cls-1 {
        fill: #fffff6;
      }

      .cls-2 {
        fill: #ffffc3;
      }

      .cls-3 {
        fill: #00ce8c;
      }

      .cls-4 {
        opacity: 0.6;
      }

      .cls-5 {
        fill: #ff3246;
      }

      .cls-6 {
        fill: #64375a;
      }
    </style>
  </defs>
  <title>Prancheta 6 cópia 74</title>
  <g id="icons">
    <g>
      <polygon class="cls-1" points="75.17 32.35 71.3 32.35 71.3 26.07 21.7 26.07 21.7 32.35 17.82 32.35 17.82 60.72 21.7 60.72 21.7 67.92 71.3 67.92 71.3 60.72 75.17 60.72 75.17 32.35"/>
      <rect class="cls-2" x="16.62" y="30.94" width="4.08" height="31.69"/>
      <rect class="cls-3" x="72.29" y="30.94" width="4.08" height="31.41"/>
      <rect class="cls-2" x="24.56" y="28.93" width="5.28" height="36.15"/>
      <rect class="cls-3" x="29.84" y="28.93" width="35.22" height="36.15"/>
      <g class="cls-4">
        <path class="cls-5" d="M57.06,47.25A10.56,10.56,0,1,1,46.5,36.7,10.56,10.56,0,0,1,57.06,47.25Z"/>
      </g>
      <g>
        <path class="cls-6" d="M32.27,45.95a1,1,0,0,0,0,2H44.84V51a1.66,1.66,0,0,0,3.32,0V47.95H60.73a1,1,0,0,0,0-2H48.16V43.86H60.73a1,1,0,0,0,0-2H48.16V39.76H58.28a1,1,0,0,0,0-2H48.16V35.67h7.59a1,1,0,0,0,0-2H48.14a1.65,1.65,0,0,0-3.27,0H37.25a1,1,0,0,0,0,2h7.59v2.09H34.72a1,1,0,0,0,0,2H44.84v2.09H32.27a1,1,0,0,0,0,2H44.84v2.09Z"/>
        <path class="cls-6" d="M32.27,52H42.8a1,1,0,0,0,0-2H32.27a1,1,0,0,0,0,2Z"/>
        <path class="cls-6" d="M41.3,54.14H33.77a1,1,0,0,0,0,2H41.3a1,1,0,0,0,0-2Z"/>
        <path class="cls-6" d="M39.56,58.23H35.51a1,1,0,0,0,0,2h4.05a1,1,0,0,0,0-2Z"/>
        <path class="cls-6" d="M60.73,50H50.2a1,1,0,0,0,0,2H60.73a1,1,0,0,0,0-2Z"/>
        <path class="cls-6" d="M59.23,54.14H51.7a1,1,0,0,0,0,2h7.53a1,1,0,0,0,0-2Z"/>
        <path class="cls-6" d="M57.49,58.23H53.44a1,1,0,0,0,0,2h4.05a1,1,0,0,0,0-2Z"/>
        <path class="cls-6" d="M75.18,29h-.55V26.07a3.32,3.32,0,0,0-3.32-3.32H21.7a3.32,3.32,0,0,0-3.32,3.32V29h-.55a3.33,3.33,0,0,0-3.32,3.32V60.72A3.33,3.33,0,0,0,17.82,64h.55v3.88a3.32,3.32,0,0,0,3.32,3.32H71.3a3.32,3.32,0,0,0,3.32-3.32V64h.55a3.33,3.33,0,0,0,3.32-3.32V32.35A3.33,3.33,0,0,0,75.18,29Zm0,31.7H73.29V38a1,1,0,1,0-2,0V67.92H21.71V38a1,1,0,1,0-2,0V60.72H17.82V32.35h1.89v2a1,1,0,1,0,2,0V26.07H71.29V34.3a1,1,0,1,0,2,0v-2h1.89Z"/>
        <path class="cls-6" d="M68.44,27.93H24.56a1,1,0,0,0-1,1V65.07a1,1,0,0,0,1,1H68.44a1,1,0,0,0,1-1V28.93A1,1,0,0,0,68.44,27.93Zm-1,36.15H25.55V29.92h41.9Z"/>
      </g>
    </g>
  </g>
</svg>
