<svg xmlns="http://www.w3.org/2000/svg" viewBox="0 0 93 93.99">
  <defs>
    <style>
      .cls-1 {
        fill: #fffff6;
      }

      .cls-2 {
        fill: #ffffc3;
      }

      .cls-3 {
        fill: #00ce8c;
      }

      .cls-4 {
        fill: #f38290;
      }

      .cls-5 {
        fill: #64375a;
      }
    </style>
  </defs>
  <title>Prancheta 6 cópia 66</title>
  <g id="icons">
    <g>
      <circle class="cls-1" cx="68.9" cy="71.73" r="5.6"/>
      <path class="cls-1" d="M56.37,35.92H37.44v-6H51.53C56.11,29.91,56.37,33.88,56.37,35.92Z"/>
      <path class="cls-1" d="M68.9,50.77H50.39v-6H64C69.12,44.76,68.9,48.63,68.9,50.77Z"/>
      <rect class="cls-2" x="38.93" y="29.91" width="4.38" height="6.01"/>
      <rect class="cls-3" x="49.25" y="44.76" width="15.54" height="6.01"/>
      <rect class="cls-3" x="43.32" y="29.91" width="8.76" height="6.01"/>
      <path class="cls-1" d="M37.44,39.16A18.94,18.94,0,1,0,56.37,58.1,18.94,18.94,0,0,0,37.44,39.16Zm0,33A14.09,14.09,0,1,1,51.53,58.1,14.1,14.1,0,0,1,37.44,72.19Z"/>
      <path class="cls-2" d="M37.44,72.19a14.09,14.09,0,1,1,0-28.19V39.16a18.94,18.94,0,0,0,0,37.87Z"/>
      <path class="cls-3" d="M38.28,39.16c-6.24,0-11.54,5.32-13.48,12.72A14.08,14.08,0,0,1,37.44,44l.48,0,.36,0a8.16,8.16,0,0,1,2.58.44,14.08,14.08,0,0,1,0,27.32,8.16,8.16,0,0,1-2.58.44l-.36,0-.48,0A14.08,14.08,0,0,1,24.8,64.31C26.74,71.72,32,77,38.28,77c7.88,0,14.27-8.48,14.27-18.94S46.16,39.16,38.28,39.16Z"/>
      <circle class="cls-4" cx="37.43" cy="58.1" r="6.49"/>
      <g>
        <path class="cls-5" d="M70.57,64.66V50.52c0-1.5,0-4-1.71-5.73A6.55,6.55,0,0,0,64,43.09H51.51a20.53,20.53,0,0,0-12.27-5.51H56.38a1.67,1.67,0,0,0,1.67-1.67,1.71,1.71,0,0,0,0-.22c-.09-6.48-4.1-7.45-6.51-7.45H38.71l-3.29-12A1.67,1.67,0,0,0,33.81,15H27.27a1.67,1.67,0,1,0,0,3.34h5.27l3.23,11.79v7.45A20.61,20.61,0,1,0,57.24,52.44h10V64.66a7.27,7.27,0,1,0,3.34,0ZM39.1,31.58H51.53c1.56,0,2.7.5,3.05,2.67H39.1ZM37.44,75.37A17.27,17.27,0,1,1,54.7,58.1,17.29,17.29,0,0,1,37.44,75.37ZM56,49.1a20.61,20.61,0,0,0-1.57-2.67H64a3.44,3.44,0,0,1,2.47.71,3.11,3.11,0,0,1,.7,2ZM68.9,75.66a3.92,3.92,0,0,1-1.67-7.47v3.54a1.67,1.67,0,0,0,3.34,0V68.18a3.92,3.92,0,0,1-1.67,7.47Z"/>
        <path class="cls-5" d="M37.44,43a15.1,15.1,0,1,0,15.1,15.1A15.11,15.11,0,0,0,37.44,43Zm9.93,23.61-1.29-1.29a1,1,0,0,0-1.42,1.42L45.95,68a13,13,0,0,1-17,0l1.28-1.28a1,1,0,1,0-1.42-1.42l-1.28,1.28a13,13,0,0,1,0-17l1.28,1.29a1,1,0,1,0,1.42-1.42l-1.28-1.29a13,13,0,0,1,17,0l-1.29,1.29a1,1,0,0,0,1.42,1.42l1.29-1.29a13,13,0,0,1,0,17Z"/>
        <path class="cls-5" d="M37.44,50.6a7.49,7.49,0,1,0,7.49,7.49A7.5,7.5,0,0,0,37.44,50.6Zm0,13a5.49,5.49,0,1,1,5.49-5.49A5.5,5.5,0,0,1,37.44,63.59Z"/>
      </g>
    </g>
  </g>
</svg>
