<svg xmlns="http://www.w3.org/2000/svg" viewBox="0 0 93 93.99">
  <defs>
    <style>
      .cls-1 {
        fill: #fffff6;
      }

      .cls-2 {
        fill: #00ce8c;
      }

      .cls-3 {
        fill: #ffffc3;
      }

      .cls-4 {
        opacity: 0.6;
      }

      .cls-5 {
        fill: #ff3246;
      }

      .cls-6 {
        fill: #64375a;
      }
    </style>
  </defs>
  <title>Prancheta 6 cópia 62</title>
  <g id="icons">
    <g>
      <rect class="cls-1" x="23.24" y="20.36" width="5.26" height="12.01" transform="translate(-11.07 26.02) rotate(-45)"/>
      <polygon class="cls-1" points="61.15 57.21 56.71 61.65 66.35 68.84 68.34 66.85 61.15 57.21"/>
      <rect class="cls-1" x="39.2" y="26.33" width="10.76" height="37.51" transform="translate(-18.82 44.74) rotate(-45.01)"/>
      <rect class="cls-2" x="43.41" y="26.1" width="3.43" height="39.04" transform="translate(-19.04 45.24) rotate(-44.98)"/>
      <rect class="cls-3" x="40.21" y="28.73" width="4.58" height="39.04" transform="translate(-21.67 44.2) rotate(-45.02)"/>
      <g class="cls-4">
        <rect class="cls-5" x="48.62" y="45.98" width="6.26" height="12.71" transform="translate(-21.85 51.92) rotate(-45)"/>
      </g>
      <path class="cls-6" d="M78.21,77.3l-9-9,.29-.29a1.66,1.66,0,0,0,.16-2.16l-6.26-8.39.58-.58a3.31,3.31,0,0,0,0-4.69L37.47,25.67l0,0,1-1a1.66,1.66,0,1,0-2.34-2.34L32,26.42l-6.15-6.15,2.44-2.44a1.66,1.66,0,1,0-2.34-2.34L20.45,21l-1.86,1.86h0L15,26.42a1.66,1.66,0,0,0,2.34,2.34l2.44-2.44,6.15,6.15-4.08,4.08a1.66,1.66,0,1,0,2.34,2.34l1-1,0,0L51.7,64.49a3.31,3.31,0,0,0,4.69,0l.58-.58,8.39,6.26A1.66,1.66,0,0,0,67.52,70l.29-.29,9,9a1,1,0,0,0,1.41-1.4ZM43.91,45.43,31.51,33l1-1,12.4,12.4ZM22.11,24l1.38-1.38,6.15,6.15-1.38,1.38Zm5.41,11.64,1.89-1.89h0l13.1,13.1-.43.43a1,1,0,0,0,1.41,1.41l1.13-1.13h0l.73-.73L48.17,44a1,1,0,0,0-1.41-1.4l-.43.43-13.1-13.1L35.12,28,61.65,54.54,60.5,55.68A1.68,1.68,0,0,0,60,56l-4.44,4.44a1.65,1.65,0,0,0-.35.53L54,62.15ZM59.34,61.54,61,59.83l5,6.72Z"/>
    </g>
  </g>
</svg>
