<svg xmlns="http://www.w3.org/2000/svg" viewBox="0 0 93 93.99">
  <defs>
    <style>
      .cls-1 {
        fill: #fff;
      }

      .cls-2 {
        fill: #ffffc3;
      }

      .cls-3 {
        fill: #00ce8c;
      }

      .cls-4 {
        fill: #64375a;
      }
    </style>
  </defs>
  <title>Prancheta 6 cópia 35</title>
  <g id="icons">
    <g>
      <path class="cls-1" d="M74.43,54.72,57.88,43.3h0a1.64,1.64,0,0,0-.28-.15h0l-.13,0-.2-.06h0a1.71,1.71,0,0,0-.34,0H44.09L28,33.27a1.72,1.72,0,1,0-1.78,2.94l16.48,10a1.72,1.72,0,0,0,.89.25H56.37L72.48,57.55a1.72,1.72,0,0,0,2-2.83Z"/>
      <polygon class="cls-1" points="49.32 65.94 49.32 54.82 38.97 54.82 38.97 65.94 31.13 65.94 31.13 68.88 57.16 68.88 57.16 65.94 49.32 65.94"/>
      <path class="cls-2" d="M23.15,28.61l-2.27-2.85A1.72,1.72,0,1,0,18.2,27.9l2.27,2.85a1.72,1.72,0,1,0,2.68-2.14Z"/>
      <polygon class="cls-2" points="44.14 54.82 38.97 54.82 38.97 65.94 31.13 65.94 31.13 68.88 44.14 68.88 44.14 54.82"/>
      <polygon class="cls-3" points="47.8 64.98 47.8 54.82 41.65 54.82 41.65 65.94 36.07 65.94 36.07 68.88 54.13 68.88 54.13 64.98 47.8 64.98"/>
      <path class="cls-3" d="M28,33.27a1.72,1.72,0,1,0-1.78,2.94l16.48,10a1.72,1.72,0,0,0,.89.25H56.37L51.82,43H44.09Z"/>
      <path class="cls-4" d="M78.41,55.23A5,5,0,0,0,76.32,52L59.77,40.56l-.13-.08a5.09,5.09,0,0,0-.56-.31h0l-.19-.09a3.61,3.61,0,0,0-.41-.15,4.21,4.21,0,0,0-.58-.16h0a5,5,0,0,0-.84-.09H55.57V37.52h.78a1.66,1.66,0,0,0,0-3.32H44.24a1.66,1.66,0,1,0,0,3.32H45v2.15h0L29.73,30.43a5.06,5.06,0,0,0-2.61-.73l-.3,0a5,5,0,0,0-1.07-3.19l-2.27-2.85A5,5,0,0,0,15.6,30l2.27,2.85a5,5,0,0,0,3.94,1.89l.3,0a5,5,0,0,0,2.41,4.36L41,49a5,5,0,0,0,1.35.56V51.5H39a3.32,3.32,0,0,0-3.32,3.32v7.8H31.12a3.32,3.32,0,0,0-3.32,3.32v2.93a3.32,3.32,0,0,0,3.32,3.32h26a3.32,3.32,0,0,0,3.32-3.32V65.95a3.32,3.32,0,0,0-3.32-3.32H52.64v-7.8a3.32,3.32,0,0,0-3.32-3.32H45.67V49.75h9.66L70.6,60.28a5,5,0,0,0,7.82-5.05ZM22.88,31a1.72,1.72,0,0,1-2.41-.27L18.2,27.9a1.72,1.72,0,1,1,2.68-2.14l2.27,2.85A1.72,1.72,0,0,1,22.88,31ZM49.32,64h-.95a1,1,0,0,0,0,2H56a1,1,0,0,0,.15,0h1v2.93h-26V65.95h.13a1,1,0,0,0,.15,0H45.1a1,1,0,0,0,0-2H39V54.82H49.32ZM47,37.52h6.56v2.15H47ZM74.87,57.11a1.72,1.72,0,0,1-2.39.44L56.37,46.43H43.61a1.72,1.72,0,0,1-.89-.25l-16.48-10A1.72,1.72,0,0,1,28,33.27L44.09,43H45v1.11a1,1,0,1,0,2,0V43h6.56v1.11a1,1,0,1,0,2,0V43h1.35a1.71,1.71,0,0,1,.34,0h0l.2.06.13,0h0a1.64,1.64,0,0,1,.28.15h0L74.43,54.72A1.72,1.72,0,0,1,74.87,57.11Z"/>
    </g>
  </g>
</svg>
