<svg xmlns="http://www.w3.org/2000/svg" viewBox="0 0 93 93.99">
  <defs>
    <style>
      .cls-1 {
        fill: #fffff6;
      }

      .cls-2 {
        fill: #ffffc3;
      }

      .cls-3 {
        fill: #00ce8c;
      }

      .cls-4 {
        opacity: 0.6;
      }

      .cls-5 {
        fill: #ff3246;
      }

      .cls-6 {
        fill: #64375a;
      }
    </style>
  </defs>
  <title>Prancheta 6 cópia 46</title>
  <g id="icons">
    <g>
      <path class="cls-1" d="M52.76,37.9V22.82h1.92V18.34H38.32v4.48h1.84V37.93a19.4,19.4,0,1,0,12.61,0Z"/>
      <path class="cls-2" d="M51,37.9V22.82h1.79V18.34H37.56v4.48h1.71V37.93C32.19,40.56,27.1,47.77,27.1,56.26c0,10.71,8.1,19.4,18.08,19.4S63.27,67,63.27,56.26C63.27,47.74,58.15,40.51,51,37.9Z"/>
      <path class="cls-3" d="M45.43,22.82V37.93c-5.26,2.63-9,9.84-9,18.33,0,9.84,5.08,18,11.66,19.22,8.59-1.26,15.22-9.38,15.22-19.22,0-8.52-5-15.75-11.88-18.36V22.82h1.73V18.34h-9v4.48Z"/>
      <g class="cls-4">
        <path class="cls-5" d="M30.13,59.34a16.75,16.75,0,0,0,32.92,0Z"/>
      </g>
      <g>
        <path class="cls-6" d="M49.88,50.42H43.17a1,1,0,1,0,0,2h6.71a1,1,0,0,0,0-2Z"/>
        <path class="cls-6" d="M49.83,55.26H43.12a1,1,0,1,0,0,2h6.71a1,1,0,1,0,0-2Z"/>
        <path class="cls-6" d="M49.83,60.1H43.12a1,1,0,1,0,0,2h6.71a1,1,0,1,0,0-2Z"/>
        <path class="cls-6" d="M49.83,64.94H43.12a1,1,0,1,0,0,2h6.71a1,1,0,1,0,0-2Z"/>
        <path class="cls-6" d="M56.1,35.65V25.84a3.34,3.34,0,0,0,1.92-3V18.34A3.34,3.34,0,0,0,54.68,15H38.32A3.34,3.34,0,0,0,35,18.34v4.48a3.34,3.34,0,0,0,1.84,3v9.88a22.74,22.74,0,1,0,19.29,0Zm-9.61,40A19.39,19.39,0,0,1,39,38.38h7.59a1,1,0,1,0,0-2H40.16v-12h6.44a1,1,0,0,0,0-2H38.32v-4H54.68v4.11H51.1a1,1,0,0,0,0,2h1.67v12H51.1a1,1,0,0,0,0,2h3.17A19.39,19.39,0,0,1,46.5,75.66Z"/>
      </g>
    </g>
  </g>
</svg>
