<svg xmlns="http://www.w3.org/2000/svg" viewBox="0 0 93 93.99">
  <defs>
    <style>
      .cls-1 {
        fill: #fffff6;
      }

      .cls-2 {
        fill: #ffffc3;
      }

      .cls-3 {
        fill: #00ce8c;
      }

      .cls-4 {
        fill: #f38290;
      }

      .cls-5 {
        fill: #64375a;
      }
    </style>
  </defs>
  <title>Prancheta 6 cópia 58</title>
  <g id="icons">
    <g>
      <polygon class="cls-1" points="34.81 25.56 25.06 35.3 57.8 73.43 60.03 75.65 75.16 60.52 72.93 58.3 34.81 25.56"/>
      <polygon class="cls-2" points="29.93 30.43 25.06 35.3 57.8 73.43 60.03 75.65 67.59 68.09 29.93 30.43"/>
      <polygon class="cls-3" points="33.73 26.63 27.99 32.38 61.83 69.39 64.06 71.61 72.97 62.7 70.74 60.48 33.73 26.63"/>
      <path class="cls-4" d="M24.69,31.83a1.67,1.67,0,0,1-1.21-.63l-6.95-8.8a1.67,1.67,0,0,1,.13-2.22l3-3A1.67,1.67,0,0,1,21.9,17L30.7,24a1.67,1.67,0,0,1,.15,2.49L26,31.34a1.67,1.67,0,0,1-1.18.49Z"/>
      <path class="cls-5" d="M77.52,58.16l-2.23-2.23-.19-.17L37,23a3.34,3.34,0,0,0-4.54.17l-.11.11a3.29,3.29,0,0,0-.6-.64l-8.8-6.95A3.34,3.34,0,0,0,18.5,16l-3,3a3.34,3.34,0,0,0-.26,4.44l6.95,8.8a3.29,3.29,0,0,0,.64.6l-.11.11a3.34,3.34,0,0,0-.17,4.54L55.26,75.6l.17.19L57.66,78a3.34,3.34,0,0,0,4.73,0L77.52,62.89a3.34,3.34,0,0,0,0-4.73ZM60.12,47.3l-8.39,8.39L40.88,44.84l7.57-7.57ZM26.07,25.72a1,1,0,0,0-1.42,0L22.8,27.58l-5-6.22,3-3,6.24,4.93-.27.27A1,1,0,0,0,28.25,25l.44-.44L30,25.59l-4.92,4.92-1.08-1.35,2-2A1,1,0,0,0,26.07,25.72ZM60,75.65l-1.52-1.52,9.67-9.67A1,1,0,1,0,66.76,63l-9.62,9.62L25.06,35.3l9.75-9.75L46.92,36l-8.17,8.17a1,1,0,0,0,0,1.42L51,57.82a1,1,0,0,0,1.42,0l9.21-9.21,10.51,9L69.61,60.2A1,1,0,0,0,71,61.62L73.64,59l1.52,1.52Z"/>
    </g>
  </g>
</svg>
