<svg xmlns="http://www.w3.org/2000/svg" viewBox="0 0 93 93.99">
  <defs>
    <style>
      .cls-1 {
        fill: #fffff6;
      }

      .cls-2 {
        fill: #ffffc3;
      }

      .cls-3 {
        fill: #00ce8c;
      }

      .cls-4 {
        fill: #f38290;
      }

      .cls-5 {
        fill: #64375a;
      }
    </style>
  </defs>
  <title>Prancheta 6 cópia 5</title>
  <g id="icons">
    <g>
      <path class="cls-1" d="M22.65,29.93V67.34a3.22,3.22,0,0,1-3.22,3.22H73.59a3.22,3.22,0,0,0,3.22-3.22V29.93Z"/>
      <rect class="cls-2" x="16.97" y="24.25" width="12.63" height="46.31"/>
      <path class="cls-3" d="M29.59,24.25V67.34c0,1.78-1.16,3.22-2.58,3.22H70.46c1.43,0,2.58-1.44,2.58-3.22V29.93H40.28l-.74-5.68Z"/>
      <path class="cls-4" d="M46.61,58.82a1,1,0,0,1-1-1V52.68H40.47a1,1,0,0,1-1-1V45.43a1,1,0,0,1,1-1h5.12V39.3a1,1,0,0,1,1-1h6.23a1,1,0,0,1,1,1v5.12H59a1,1,0,0,1,1,1v6.23a1,1,0,0,1-1,1H53.85V57.8a1,1,0,0,1-1,1Z"/>
      <g>
        <path class="cls-5" d="M59,43.41H54.86V39.3a2,2,0,0,0-2-2H46.61a2,2,0,0,0-2,2v4.11H40.47a2,2,0,0,0-2,2v6.23a2,2,0,0,0,2,2h4.11V57.8a2,2,0,0,0,2,2h6.23a2,2,0,0,0,2-2V53.69H59a2,2,0,0,0,2-2V45.43A2,2,0,0,0,59,43.41Zm0,8.26H52.84V57.8H46.61V51.67H40.47V45.43h6.14V39.3h6.23v6.14H59Z"/>
        <path class="cls-5" d="M76.81,28.24H43.06c-.52-4.1-3.14-6.5-7.22-6.5H16.19a1.69,1.69,0,0,0-1.69,1.69V67.34a4.91,4.91,0,0,0,4.91,4.91H73.59a4.91,4.91,0,0,0,4.91-4.91V29.93A1.69,1.69,0,0,0,76.81,28.24ZM21,29.93V67.34a1.53,1.53,0,0,1-1.53,1.53h0a1.53,1.53,0,0,1-1.53-1.53V25.12h18a3.46,3.46,0,0,1,3.79,3.11h-17A1.69,1.69,0,0,0,21,29.93ZM73.59,68.87H24.09a4.87,4.87,0,0,0,.24-1.51h43.4a1,1,0,1,0,0-2H24.34V31.62H75.12V65.33H71.68a1,1,0,0,0,0,2h3.44A1.53,1.53,0,0,1,73.59,68.87Z"/>
      </g>
    </g>
  </g>
</svg>
