<svg xmlns="http://www.w3.org/2000/svg" viewBox="0 0 93 93.99">
  <defs>
    <style>
      .cls-1 {
        fill: #fffff6;
      }

      .cls-2 {
        fill: #ffffc3;
      }

      .cls-3 {
        fill: #00ce8c;
      }

      .cls-4 {
        fill: #f38290;
      }

      .cls-5 {
        fill: #64375a;
      }
    </style>
  </defs>
  <title>Prancheta 6 cópia 8</title>
  <g id="icons">
    <g>
      <path class="cls-1" d="M46.5,16.66A24.25,24.25,0,0,0,22.24,40.91c0,18.75,24.25,36.42,24.25,36.42S70.75,59.66,70.75,40.91A24.25,24.25,0,0,0,46.5,16.66Zm0,42.75a18.51,18.51,0,1,1,12-32.56q.67.57,1.28,1.2A18.5,18.5,0,0,1,46.5,59.41Z"/>
      <path class="cls-2" d="M46.5,59.41a18.5,18.5,0,1,1,0-37V16.66A24.25,24.25,0,0,0,22.24,40.91c0,18.75,24.25,36.42,24.25,36.42Z"/>
      <g>
        <path class="cls-3" d="M46.5,22.42l.73,0,.7,0a9.25,9.25,0,0,1,3.28.62,18.29,18.29,0,0,1,7.31,3.82q.67.57,1.28,1.2a18.47,18.47,0,0,1,4.8,9c-1.47-11.78-9.48-21.66-17.91-21.66-6.19,0-11.06,5.32-13.64,12.81A18.44,18.44,0,0,1,46.5,22.42Z"/>
        <path class="cls-3" d="M51.21,58.81a9.26,9.26,0,0,1-3.28.61l-.59,0-.84,0a18.44,18.44,0,0,1-13.18-5.53,68,68,0,0,0,13.36,22.2S62.31,61.93,64.56,44.91A18.52,18.52,0,0,1,51.21,58.81Z"/>
      </g>
      <path class="cls-4" d="M43.54,50.68a1,1,0,0,1-1-1V44.87H37.73a1,1,0,0,1-1-1V38a1,1,0,0,1,1-1h4.82V32.14a1,1,0,0,1,1-1h5.91a1,1,0,0,1,1,1V37h4.82a1,1,0,0,1,1,1v5.91a1,1,0,0,1-1,1H50.45v4.82a1,1,0,0,1-1,1Z"/>
      <g>
        <path class="cls-5" d="M46.5,15A26,26,0,0,0,20.58,40.91c0,19.37,23.92,37,24.94,37.76a1.66,1.66,0,0,0,2,0c1-.74,24.94-18.39,24.94-37.76A26,26,0,0,0,46.5,15Zm0,60.24C42,71.73,23.91,56.51,23.91,40.91a22.59,22.59,0,1,1,45.18,0C69.09,56.49,51,71.72,46.5,75.23Z"/>
        <path class="cls-5" d="M60.52,27.36c-.42-.44-.88-.87-1.35-1.27a19.91,19.91,0,0,0-1.77-1.35,19.51,19.51,0,1,0,3.12,2.62Zm-14,31.05a17.5,17.5,0,1,1,9.78-32,17.83,17.83,0,0,1,1.59,1.21c.42.36.83.75,1.21,1.14A17.5,17.5,0,0,1,46.5,58.42Z"/>
        <path class="cls-5" d="M55.27,36H51.45V32.14a2,2,0,0,0-2-2H43.54a2,2,0,0,0-2,2V36H37.73a2,2,0,0,0-2,2v5.91a2,2,0,0,0,2,2h3.82v3.82a2,2,0,0,0,2,2h5.91a2,2,0,0,0,2-2V45.86h3.82a2,2,0,0,0,2-2V38A2,2,0,0,0,55.27,36Zm0,7.9H49.45v5.82H43.54V43.87H37.73V38h5.82V32.14h5.91V38h5.82Z"/>
      </g>
    </g>
  </g>
</svg>
