<svg xmlns="http://www.w3.org/2000/svg" viewBox="0 0 93 93.99">
  <defs>
    <style>
      .cls-1 {
        fill: #fffff6;
      }

      .cls-2 {
        fill: #ffffc3;
      }

      .cls-3 {
        fill: #00ce8c;
      }

      .cls-4 {
        fill: #64375a;
      }

      .cls-5 {
        opacity: 0.6;
      }

      .cls-6 {
        fill: #ff3246;
      }
    </style>
  </defs>
  <title>Prancheta 6 cópia 69</title>
  <g id="icons">
    <g>
      <path class="cls-1" d="M71.77,32a14.08,14.08,0,0,0-7.65-12.56c-3.27-2.24-10.48-.22-10.48-.22a22.23,22.23,0,0,1-7.15,1.47,22.23,22.23,0,0,1-7.15-1.47s-7.2-2-10.48.22A14.08,14.08,0,0,0,21.22,32S19.37,44.39,28,63.22c0,0,5,11.1,11.35,12.42,0,0,2.95.43,2.51-3.58-.39-3.56-2.67-12.05-.13-14.35A6,6,0,0,1,46.44,56h.11a6,6,0,0,1,4.72,1.66c2.54,2.3.26,10.79-.13,14.35-.44,4,2.51,3.58,2.51,3.58C60,74.32,65,63.22,65,63.22,73.62,44.39,71.77,32,71.77,32Z"/>
      <path class="cls-2" d="M46.44,56h.06V20.64a22.23,22.23,0,0,1-7.15-1.47s-7.2-2-10.48.22A14.08,14.08,0,0,0,21.22,32S19.37,44.39,28,63.22c0,0,5,11.1,11.35,12.42,0,0,2.95.43,2.51-3.58-.39-3.56-2.67-12.05-.13-14.35A6,6,0,0,1,46.44,56Z"/>
      <path class="cls-3" d="M67.6,32.36c-.09-9.29-5.91-12.69-5.91-12.69-2.53-2.26-9.51-.22-9.51-.22-2.3,1-2.49-.84-4.1-.84s-3.22,1.84-5.52.84c0,0-5.56-2-8.09.22,0,0-5.82,3.4-5.91,12.69,0,0-1.43,12.57,5.23,31.58,0,0,3.87,11.22,8.77,12.55,0,0,2.28.43,1.94-3.61-.3-3.6-3.13-12.17-1.16-14.5.74-.88,1.69-.53,3.64-.46a1.28,1.28,0,0,0,1.11-1.22h0c2-.07,1.84.8,2.58,1.68,2,2.32.2,10.9-.1,14.5-.34,4,3,3.61,3,3.61,4.9-1.33,8.77-12.55,8.77-12.55C69,44.92,67.6,32.36,67.6,32.36Z"/>
      <g>
        <path class="cls-4" d="M75.11,31.71a17.39,17.39,0,0,0-9.33-15.23A11.44,11.44,0,0,0,59.63,15a28.86,28.86,0,0,0-6.88,1l-.15,0a19.31,19.31,0,0,1-6.06,1.3h-.05A19.3,19.3,0,0,1,40.4,16l-.15,0a28.87,28.87,0,0,0-6.88-1,11.44,11.44,0,0,0-6.15,1.49,17.39,17.39,0,0,0-9.33,15.23c-.23,2-1.3,14.62,7.07,32.9.58,1.28,5.93,12.68,13.71,14.3l.2,0a5.21,5.21,0,0,0,.72,0,5.56,5.56,0,0,0,4.15-1.8,6.79,6.79,0,0,0,1.44-5.49c-.1-.88-.28-1.91-.48-3.11-.34-2-1.23-7.12-.61-8.5a2.66,2.66,0,0,1,2.09-.7h.64a2.66,2.66,0,0,1,2.09.7c.61,1.39-.28,6.54-.61,8.5-.21,1.2-.39,2.23-.48,3.11a6.78,6.78,0,0,0,1.44,5.49A5.56,5.56,0,0,0,53.41,79a5.22,5.22,0,0,0,.72,0l.2,0c7.78-1.62,13.13-13,13.72-14.32C76.41,46.33,75.34,33.68,75.11,31.71ZM65,63.22s-5,11.1-11.35,12.42h-.24c-.69,0-2.63-.29-2.27-3.59.39-3.56,2.67-12.05.13-14.35A6,6,0,0,0,46.82,56h-.64a6,6,0,0,0-4.45,1.67c-2.54,2.3-.26,10.79.13,14.35.36,3.3-1.57,3.59-2.27,3.59h-.24C33,74.32,28,63.22,28,63.22,19.37,44.39,21.22,32,21.22,32a14.08,14.08,0,0,1,7.65-12.56,8.14,8.14,0,0,1,4.5-1.05,25.39,25.39,0,0,1,6,.84,22.36,22.36,0,0,0,7.11,1.47h.08a22.36,22.36,0,0,0,7.11-1.47,25.39,25.39,0,0,1,6-.84,8.16,8.16,0,0,1,4.5,1.05A14.08,14.08,0,0,1,71.77,32S73.62,44.39,65,63.22Z"/>
        <path class="cls-4" d="M35.07,20.49a12.49,12.49,0,0,0-3.84.07,1,1,0,0,0,.19,2l.2,0a10.5,10.5,0,0,1,3.21,0,1,1,0,1,0,.23-2Z"/>
        <path class="cls-4" d="M53.56,21.29a22,22,0,0,1-7,1.46h-.08a22,22,0,0,1-7-1.46,1,1,0,0,0-.63,1.9,24.3,24.3,0,0,0,7.64,1.56h.09a24.3,24.3,0,0,0,7.65-1.56,1,1,0,0,0-.63-1.9Z"/>
      </g>
      <g class="cls-5">
        <path class="cls-6" d="M24.52,45a76.37,76.37,0,0,0,5.62,17c1.23,2.71,5.24,9.79,9.36,10.93a3.77,3.77,0,0,0,0-.52c-.07-.68-.25-1.67-.43-2.72-.86-5-1.94-11.24,1.17-14.06a8.17,8.17,0,0,1,6-2.27h.64a8.17,8.17,0,0,1,6,2.27c3.12,2.82,2,9.05,1.17,14.06-.18,1-.35,2-.43,2.72a3.9,3.9,0,0,0,0,.52c4.12-1.15,8.13-8.23,9.35-10.92a76.45,76.45,0,0,0,5.62-17Z"/>
      </g>
    </g>
  </g>
</svg>
