<svg xmlns="http://www.w3.org/2000/svg" viewBox="0 0 93 93.99">
  <defs>
    <style>
      .cls-1 {
        fill: #fffff6;
      }

      .cls-2 {
        fill: #00ce8c;
      }

      .cls-3 {
        fill: #ffffc3;
      }

      .cls-4 {
        fill: #f38290;
      }

      .cls-5 {
        fill: #64375a;
      }
    </style>
  </defs>
  <title>Prancheta 6 cópia 31</title>
  <g id="icons">
    <g>
      <path class="cls-1" d="M56.86,31.37h-3.8v-3.8H39.84v3.8h-3.7a6,6,0,0,0-5.95,5.95v19a6,6,0,0,0,5.95,5.95h3.7v4.05H53.06V62.29h3.8a6,6,0,0,0,5.95-5.95v-19A6,6,0,0,0,56.86,31.37Z"/>
      <rect class="cls-2" x="40.33" y="16.66" width="12.43" height="9.17"/>
      <rect class="cls-2" x="40.33" y="68.16" width="12.43" height="9.17"/>
      <path class="cls-3" d="M46.5,66.34V27.57H39.84v3.8h-3.7a6,6,0,0,0-5.95,5.95v19a6,6,0,0,0,5.95,5.95h3.7v4.05Z"/>
      <path class="cls-2" d="M55.91,31.37H53.1v-3.8h-9.8v3.8H40.55c-2.43,0-4.41,2.68-4.41,5.95v19c0,3.27,2,5.95,4.41,5.95h2.74v4.05h9.8V62.29h2.82c2.43,0,4.41-2.68,4.41-5.95v-19C60.33,34,58.34,31.37,55.91,31.37Z"/>
      <rect class="cls-1" x="35.37" y="35.77" width="22.26" height="16.16"/>
      <rect class="cls-4" x="34.55" y="43.85" width="24.02" height="9"/>
      <g>
        <path class="cls-5" d="M56.86,28h-.47v-.47a3.32,3.32,0,0,0-2-3V16.66A1.67,1.67,0,0,0,52.77,15H40.33a1.66,1.66,0,0,0-1.66,1.66v7.8a3.32,3.32,0,0,0-2.16,3.11V28h-.37a9.29,9.29,0,0,0-9.28,9.28v19a9.29,9.29,0,0,0,9.28,9.28h.37v.72a3.32,3.32,0,0,0,2.16,3.11v7.89A1.66,1.66,0,0,0,40.33,79H52.77a1.66,1.66,0,0,0,1.67-1.66v-8a3.32,3.32,0,0,0,2-3v-.72h.47a9.29,9.29,0,0,0,9.28-9.28v-19A9.29,9.29,0,0,0,56.86,28ZM42,18.32H51.1v5.91H42ZM51.1,75.67H42v-6H51.1ZM62.8,56.34a6,6,0,0,1-5.95,5.95H51.78a1,1,0,1,0,0,2h1.28v2.06H39.84V64.28h8.06a1,1,0,1,0,0-2H36.14a6,6,0,0,1-5.95-5.95v-19a6,6,0,0,1,5.95-5.95H47.89a1,1,0,1,0,0-2H39.84V27.57H53.06v1.81H51.78a1,1,0,1,0,0,2h5.08a6,6,0,0,1,5.95,5.95Z"/>
        <path class="cls-5" d="M42.91,55.24a2.88,2.88,0,1,0,2.88,2.88A2.88,2.88,0,0,0,42.91,55.24Zm0,3.76a.88.88,0,1,1,.88-.88A.88.88,0,0,1,42.91,59Z"/>
        <path class="cls-5" d="M50.09,55.24A2.88,2.88,0,1,0,53,58.12,2.88,2.88,0,0,0,50.09,55.24Zm0,3.76a.88.88,0,1,1,.88-.88A.88.88,0,0,1,50.09,59Z"/>
        <path class="cls-5" d="M37.58,44.7h5.14l1,3a1,1,0,0,0,.95.69h0a1,1,0,0,0,.94-.72l1.11-3.86,1.37,5.36a1,1,0,0,0,1,.75h0a1,1,0,0,0,1-.74l1.21-4.49h4.1a1,1,0,1,0,0-2H50.45a1,1,0,0,0-1,.74L49.07,45l-1.34-5.24a1,1,0,0,0-1-.75h0a1,1,0,0,0-1,.72L44.58,44l-.19-.58a1,1,0,0,0-.95-.69H37.58a1,1,0,0,0,0,2Z"/>
        <path class="cls-5" d="M57.63,33.78H35.37a2,2,0,0,0-2,2V51.93a2,2,0,0,0,2,2H57.63a2,2,0,0,0,2-2V35.77A2,2,0,0,0,57.63,33.78Zm0,18.15H35.37V35.77H57.63Z"/>
      </g>
    </g>
  </g>
</svg>
