<svg xmlns="http://www.w3.org/2000/svg" viewBox="0 0 93 93.99">
  <defs>
    <style>
      .cls-1 {
        fill: #fffff6;
      }

      .cls-2 {
        fill: #ffffc3;
      }

      .cls-3 {
        fill: #00ce8c;
      }

      .cls-4 {
        fill: #64375a;
      }

      .cls-5 {
        opacity: 0.6;
      }

      .cls-6 {
        fill: #ff3246;
      }
    </style>
  </defs>
  <title>Prancheta 6 cópia 36</title>
  <g id="icons">
    <g>
      <path class="cls-1" d="M75.32,18.34h-24v7.76H62.09l-9.8,9.8a21.88,21.88,0,1,0,5.43,5.54l9.86-9.86V42.31h7.76v-24ZM39.58,68.07A14.33,14.33,0,1,1,53.91,53.74,14.33,14.33,0,0,1,39.58,68.07Z"/>
      <path class="cls-2" d="M29.23,63.64a14.32,14.32,0,0,1,20.5-20L73.14,20.35,51.35,21.46v4.64H62.09l-9.8,9.8a21.91,21.91,0,0,0-28.48,33Z"/>
      <path class="cls-3" d="M27.87,42.08c-8.56,8.56-9.89,21.13-3,28s19.49,5.6,28.05-3c7.63-7.63,9.51-18.42,4.94-25.58L70.17,29.3l0,13.62,3,.58,0-23.15H71.23L54.45,37.14C47.28,32.57,35.5,34.45,27.87,42.08ZM49.69,63.9c-5.6,5.6-14.54,5-19.07.51s-5.09-13.47.51-19.07,14.54-5,19.07-.51S55.29,58.3,49.69,63.9Z"/>
      <path class="cls-4" d="M75.32,18.34h0v24H67.57V31.58l-9.86,9.86a22,22,0,1,1-5.43-5.54l9.8-9.8H51.35V18.34h24M39.58,68.07A14.33,14.33,0,1,0,25.25,53.74,14.33,14.33,0,0,0,39.58,68.07M75.32,15h-24A3.34,3.34,0,0,0,48,18.34v7.76a3.34,3.34,0,0,0,3.34,3.34H54l-2.21,2.21A25.23,25.23,0,1,0,61.92,42l2.31-2.31v2.67a3.34,3.34,0,0,0,3.34,3.34h7.76a3.34,3.34,0,0,0,3.34-3.34v-24A3.36,3.36,0,0,0,75.32,15ZM39.58,64.73a11,11,0,1,1,11-11,11,11,0,0,1-11,11Z"/>
      <g class="cls-5">
        <path class="cls-6" d="M54,20.72v3.21H67.51l-15,15a19.84,19.84,0,0,0-32.86,15h3.23a16.63,16.63,0,0,1,33.25,0h3.23a19.77,19.77,0,0,0-4.61-12.71L69.93,26V39.66h3.21V20.72Z"/>
      </g>
    </g>
  </g>
</svg>
