<svg xmlns="http://www.w3.org/2000/svg" viewBox="0 0 93 93.99">
  <defs>
    <style>
      .cls-1 {
        fill: #fffff6;
      }

      .cls-2 {
        fill: #ffffc3;
      }

      .cls-3 {
        fill: #00ce8c;
      }

      .cls-4 {
        opacity: 0.6;
      }

      .cls-5 {
        fill: #ff3246;
      }

      .cls-6 {
        fill: #64375a;
      }
    </style>
  </defs>
  <title>Prancheta 6 cópia 48</title>
  <g id="icons">
    <g>
      <polygon class="cls-1" points="61.18 36.16 54.97 29.8 38.02 29.8 31.82 36.16 31.82 73.29 34.23 75.65 58.76 75.65 61.18 73.29 61.18 36.16"/>
      <rect class="cls-1" x="37.19" y="18.34" width="18.46" height="8.08"/>
      <polygon class="cls-2" points="50.87 30.49 50.87 18.34 34.96 18.34 34.96 30.66 30.33 36.16 30.33 73.29 32.41 75.65 53.56 75.65 55.64 73.29 55.64 36.16 50.87 30.49"/>
      <polygon class="cls-3" points="54.02 30.49 54.02 18.34 42.66 18.34 42.66 30.66 39.36 36.16 39.36 73.29 40.85 75.65 55.94 75.65 57.42 73.29 57.42 36.16 54.02 30.49"/>
      <g class="cls-4">
        <rect class="cls-5" x="34.57" y="51.54" width="23.8" height="21.65"/>
      </g>
      <path class="cls-6" d="M63.57,33.83l-5.27-5.4a3.32,3.32,0,0,0,.68-2V18.34A3.34,3.34,0,0,0,55.64,15H37.19a3.34,3.34,0,0,0-3.34,3.35v8.08a3.32,3.32,0,0,0,.76,2.1l-5.17,5.3a3.35,3.35,0,0,0-1,2.34V73.29a3.35,3.35,0,0,0,1,2.39L31.89,78a3.34,3.34,0,0,0,2.34,1H58.76a3.35,3.35,0,0,0,2.34-1l2.41-2.36a3.35,3.35,0,0,0,1-2.39V36.16A3.35,3.35,0,0,0,63.57,33.83ZM37.19,18.34H55.64v8.08H37.19ZM31.82,48.06H51.34V66.57H31.82Zm2.41,27.59L32.75,74.2h18a1,1,0,0,0,0-2h-19V68.58H52.34a1,1,0,0,0,1-1V47.06a1,1,0,0,0-1-1H31.82V37.16h19a1,1,0,1,0,0-2h-18L38,29.8H55l5.23,5.36h-4a1,1,0,1,0,0,2h5v35h-5a1,1,0,0,0,0,2h4l-1.48,1.45Z"/>
    </g>
  </g>
</svg>
