<svg xmlns="http://www.w3.org/2000/svg" viewBox="0 0 93 93.99">
  <defs>
    <style>
      .cls-1 {
        fill: #fffff6;
      }

      .cls-2 {
        fill: #ffffc3;
      }

      .cls-3 {
        fill: #00ce8c;
      }

      .cls-4 {
        fill: #64375a;
      }

      .cls-5 {
        opacity: 0.6;
      }

      .cls-6 {
        fill: #ff3246;
      }
    </style>
  </defs>
  <title>Prancheta 6 cópia 42</title>
  <g id="icons">
    <g>
      <path class="cls-1" d="M68.72,56.19a22.2,22.2,0,1,0-33.93-3l-5.59,5.59-5.81-5.81L17.83,58.5l5.81,5.81-5.85,5.85,5.56,5.56,5.85-5.85L35,75.67l5.56-5.56-5.81-5.81,5.59-5.6A22.21,22.21,0,0,0,68.72,56.19Zm-26-26a14.52,14.52,0,1,1,0,20.53A14.52,14.52,0,0,1,42.75,30.22Z"/>
      <path class="cls-2" d="M20.57,72.93,42.75,50.75A14.52,14.52,0,0,1,63.28,30.22l5.43-5.43A22.2,22.2,0,0,0,34.79,53.16l-5.59,5.59-5.81-5.81L17.83,58.5l5.81,5.81-5.85,5.85Z"/>
      <path class="cls-3" d="M66,53.49c8.67-8.67,10.18-21.23,3.36-28s-19.37-5.31-28,3.36c-7.72,7.72-9.76,18.52-5.3,25.6L30.46,60l-4.57-4.57L20.33,61l4.56,4.56-5.85,5.85,4.37,4.37,5.85-5.85,4.57,4.56,5.56-5.56-4.57-4.57,5.59-5.59C47.5,63.24,58.3,61.21,66,53.49ZM45.61,33.09c5.67-5.67,13.88-6.65,18.33-2.2s3.47,12.66-2.2,18.33-13.88,6.65-18.33,2.2S39.94,38.76,45.61,33.09Z"/>
      <path class="cls-4" d="M53,18.28A22.2,22.2,0,1,1,40.34,58.71l-5.59,5.6,5.81,5.81L35,75.67l-5.81-5.81-5.85,5.85-5.56-5.56,5.85-5.85L17.83,58.5l5.56-5.56,5.81,5.81,5.59-5.59A22.2,22.2,0,0,1,53,18.28M53,55a14.52,14.52,0,1,0-10.26-4.25A14.48,14.48,0,0,0,53,55m0-40A25.49,25.49,0,0,0,30.63,52.67L29.19,54.1l-3.49-3.48a3.28,3.28,0,0,0-2.32-1h0a3.29,3.29,0,0,0-2.32,1L15.5,56.18a3.29,3.29,0,0,0,0,4.65L19,64.31l-3.52,3.52a3.28,3.28,0,0,0,0,4.65L21,78a3.28,3.28,0,0,0,4.65,0l3.52-3.52L32.68,78a3.29,3.29,0,0,0,4.65,0l5.56-5.56a3.29,3.29,0,0,0,0-4.65L39.4,64.31l1.43-1.43A25.49,25.49,0,1,0,53,15Zm0,36.72A11.23,11.23,0,1,1,61,48.43,11.16,11.16,0,0,1,53,51.72Z"/>
      <g class="cls-5">
        <path class="cls-6" d="M69.82,40.54h0a16.75,16.75,0,0,1-33.49,0H33.07a19.91,19.91,0,0,0,4.75,12.92l-8.69,8.69-5.94-5.94L21,58.44l5.94,5.94-5.5,5.5,2.23,2.23,5.5-5.5,5.94,5.94,2.23-2.23-5.94-5.94L40,55.69a20,20,0,0,0,33-15.15Z"/>
      </g>
    </g>
  </g>
</svg>
