<svg xmlns="http://www.w3.org/2000/svg" viewBox="0 0 93 93.99">
  <defs>
    <style>
      .cls-1 {
        fill: #fffff6;
      }

      .cls-2 {
        fill: #ffffc3;
      }

      .cls-3 {
        fill: #00ce8c;
      }

      .cls-4 {
        fill: #64375a;
      }

      .cls-5 {
        opacity: 0.6;
      }

      .cls-6 {
        fill: #ff3246;
      }
    </style>
  </defs>
  <title>Prancheta 6 cópia 45</title>
  <g id="icons">
    <g>
      <path class="cls-1" d="M70.08,48.65,44.86,23.43c-.16-.17-.3-.35-.47-.52a15.54,15.54,0,0,0-22,22L49.34,71.8l0,0a15.52,15.52,0,0,0,21.9-21.9h0l-.21-.21c-.16-.17-.3-.35-.47-.52S70.25,48.81,70.08,48.65Z"/>
      <g>
        <path class="cls-2" d="M23.43,22c-.35.29-.69.59-1,.91a15.54,15.54,0,0,0,0,22L49.34,71.8l0,0a15.52,15.52,0,0,0,21.22-.68c.32-.32.63-.66.92-1Z"/>
        <path class="cls-3" d="M66.45,52.28,41.23,27.06l-.48-.51c-6.07-6.07-13.62-8.35-16.86-5.11S22.92,32.24,29,38.3L55.92,65.23l0,0c5.93,5.54,13,7.54,16.13,4.42s1.12-10.2-4.42-16.13h0l-.21-.21c-.16-.17-.31-.34-.48-.51Z"/>
        <path class="cls-4" d="M74,47.91a3.35,3.35,0,0,0-.36-.43l-.15-.15-.07-.08c-.12-.14-.27-.31-.46-.5s-.37-.35-.51-.47l-.08-.07L47.3,21.12,47.22,21c-.12-.14-.27-.31-.46-.5A18.9,18.9,0,0,0,20,47.26L47,74.18a3.36,3.36,0,0,0,.68.53A18.88,18.88,0,0,0,74,47.91ZM70.6,71.09a15.52,15.52,0,0,1-21.22.68l0,0L36,58.48l14-14a1,1,0,1,0-1.43-1.43l-14,14L22.42,44.88a15.54,15.54,0,0,1,22-22c.17.17.31.35.47.52L56.53,35.11,52.9,38.74a1,1,0,0,0,1.43,1.43L58,36.53,70.08,48.65c.17.16.35.3.52.47s.31.35.47.52l.21.21h0A15.52,15.52,0,0,1,70.6,71.09Z"/>
        <g class="cls-5">
          <path class="cls-6" d="M58.05,42.15,41.64,58.56,52,68.9l0,0A11.61,11.61,0,0,0,68.38,52.49h0l-.16-.16c-.12-.13-.23-.26-.35-.39s-.26-.23-.39-.35Z"/>
        </g>
      </g>
    </g>
  </g>
</svg>
