<svg xmlns="http://www.w3.org/2000/svg" viewBox="0 0 93 93.99">
  <defs>
    <style>
      .cls-1 {
        opacity: 0.6;
      }

      .cls-2 {
        fill: #ff3246;
      }

      .cls-3 {
        fill: #ffffc3;
      }

      .cls-4 {
        fill: #00ce8c;
      }

      .cls-5 {
        fill: #64375a;
      }
    </style>
  </defs>
  <title>Prancheta 6 cópia 30</title>
  <g id="icons">
    <g>
      <g class="cls-1">
        <rect class="cls-2" x="20.79" y="17.03" width="7.67" height="16.35" transform="translate(-10.61 24.79) rotate(-45)"/>
      </g>
      <path class="cls-3" d="M75.32,70.19a3.94,3.94,0,0,1,.33.3h0a3.95,3.95,0,1,1-5.58,5.58h0L35.58,41.57l2-2Z"/>
      <path class="cls-4" d="M75.32,70.19a3.94,3.94,0,0,1,.33.3h0a4,4,0,0,1,.09,5.66c-1.54,1.54.57,2.32-1,.73L74.64,75,37.81,41.5l-.18-2Z"/>
      <path class="cls-5" d="M76.81,69.34a5.68,5.68,0,0,0-.46-.41L38.66,38.27a1.63,1.63,0,0,0-2.18.11l-.89.89L30,33.69l4.26-4.26a1.63,1.63,0,0,0,0-2.3L22.7,15.56a1.63,1.63,0,0,0-2.3,0L15,21a1.63,1.63,0,0,0,0,2.3L26.54,34.84l.07.06,7.82,7.82h0L68.92,77.22A5.72,5.72,0,0,0,73,78.91a5.48,5.48,0,0,0,3.91-1.61A5.64,5.64,0,0,0,76.81,69.34ZM73.75,71l-3.21,3.21-1-1L39.33,43ZM27.69,31.38l-.75-.76L30,27.52l.75.75Zm-3.27-9.49L21.31,25l-.74-.74,3.11-3.11ZM26.55,24l-3.11,3.11-.74-.74,3.11-3.11Zm2.12,2.12-3.11,3.11-.74-.74,3.11-3.11ZM21.55,19l.75.76-3.11,3.11-.76-.76Zm53,56a2.24,2.24,0,0,1-1.6.65,2.44,2.44,0,0,1-.93-.19l3-3A2.31,2.31,0,0,1,74.59,75Z"/>
    </g>
  </g>
</svg>
