<svg xmlns="http://www.w3.org/2000/svg" viewBox="0 0 93 93.99">
  <defs>
    <style>
      .cls-1 {
        fill: #fffff6;
      }

      .cls-2 {
        fill: #ffffc3;
      }

      .cls-3 {
        fill: #00ce8c;
      }

      .cls-4 {
        fill: #64375a;
      }

      .cls-5 {
        opacity: 0.6;
      }

      .cls-6 {
        fill: #ff3246;
      }
    </style>
  </defs>
  <title>Prancheta 6 cópia 37</title>
  <g id="icons">
    <g>
      <polygon class="cls-1" points="50.21 73.66 49.09 61.32 42.54 61.32 41.42 73.66 38.45 73.66 38.45 75.65 53.19 75.65 53.19 73.66 50.21 73.66"/>
      <g>
        <line class="cls-1" x1="31.46" y1="19.77" x2="29.59" y2="21.64"/>
        <line class="cls-1" x1="51.98" y1="39.72" x2="49.79" y2="41.92"/>
        <polygon class="cls-1" points="28.19 26.25 28.2 24.12 25.44 21.36 28.46 18.35 31.22 21.1 33.34 21.09 51.48 39.22 50.41 40.29 52.97 42.85 49.95 45.87 47.39 43.31 46.32 44.38 28.19 26.25"/>
      </g>
      <g>
        <line class="cls-2" x1="26.83" y1="24.39" x2="28.7" y2="22.52"/>
        <line class="cls-2" x1="46.79" y1="44.91" x2="48.98" y2="42.72"/>
        <polygon class="cls-2" points="27.54 19.26 25.41 21.4 28.16 24.15 28.16 26.28 46.29 44.41 47.36 43.34 49.92 45.91 52.05 43.77 27.54 19.26"/>
      </g>
      <polygon class="cls-3" points="32.39 22.04 30.51 21.8 27.76 19.05 26.38 20.43 29.13 23.18 29.87 24.57 48 42.7 48.29 42.41 50.85 44.98 52.22 43.61 49.65 41.05 50.52 40.17 32.39 22.04"/>
      <polygon class="cls-2" points="45.31 61.32 49.13 61.32 50.27 73.66 53.28 73.66 53.28 75.65 45.31 75.65 45.31 61.32"/>
      <polygon class="cls-3" points="48.12 72.71 47.51 61.32 45.41 61.32 44.75 73.66 42 73.66 42 75.65 50.62 75.65 50.62 73.66 48.12 72.71"/>
      <path class="cls-3" d="M52.25,59.1A15.17,15.17,0,0,1,38.71,39.44l-3.95-3.37c-.22.51-.42,1-.59,1.56a20,20,0,0,0,22.3,26.1Z"/>
      <circle class="cls-1" cx="34.26" cy="41.35" r="4.52"/>
      <circle class="cls-3" cx="33.6" cy="41.79" r="2.56"/>
      <polygon class="cls-3" points="52.64 55.69 53.9 54.43 62.9 45.43 64.87 47.41 55.4 56.87 61.45 62.92 59.45 64.92 51.43 56.9 52.64 55.69"/>
      <path class="cls-4" d="M70.41,52.53a1.67,1.67,0,0,0-2.37,0l-6.12,6.12-1.78-1.78,7.1-7.1a3.35,3.35,0,0,0,0-4.74l-2-2a3.35,3.35,0,0,0-4.74,0l-9,9-1.26,1.26-1.21,1.21a3.33,3.33,0,0,0-.94,1.91,13.4,13.4,0,0,1-8.4-12.18,6.18,6.18,0,0,0,.5-1.26L44,46.74a3.35,3.35,0,0,0,2.37,1,3.3,3.3,0,0,0,.68-.07l.59.59a3.35,3.35,0,0,0,4.74,0l3-3a3.35,3.35,0,0,0,0-4.74l-.59-.59a3.35,3.35,0,0,0-.91-3L35.71,18.72a3.35,3.35,0,0,0-2.37-1H32.6L30.83,16a3.35,3.35,0,0,0-4.74,0l-3,3a3.35,3.35,0,0,0,0,4.73l1.77,1.77v.73a3.34,3.34,0,0,0,1,2.38l6.77,6.77A6.19,6.19,0,0,0,31.7,47a21.6,21.6,0,0,0,6.14,12.32c.46.46.94.89,1.44,1.3a3.24,3.24,0,0,0-.07.4l-.84,9.3a3.35,3.35,0,0,0-3.26,3.35v2A3.35,3.35,0,0,0,38.45,79H53.19a3.35,3.35,0,0,0,3.35-3.35v-2a3.35,3.35,0,0,0-3.27-3.35l-.42-4.66.35,0c.72,0,1.43,0,2.15-.12l1.74,1.73a3.35,3.35,0,0,0,4.74,0l2-2a3.34,3.34,0,0,0,.42-4.22l6.17-6.17A1.67,1.67,0,0,0,70.41,52.53ZM28.19,26.25V24.12l-2.75-2.75,3-3,1.5,1.5-1.08,1.08a1,1,0,1,0,1.42,1.42l1.25-1.25h1.79L51.27,39h0l-2.19,2.19a1,1,0,0,0,1.42,1.42l1.12-1.12L53,42.86l-3,3-2.57-2.56-1.07,1.07Zm3.22,15.11a2.85,2.85,0,1,1,2.85,2.85A2.85,2.85,0,0,1,31.41,41.35Zm3.76,6.12a6,6,0,0,0,1.48-.41A16.79,16.79,0,0,0,50.34,60.55l1.72,1.72A18.3,18.3,0,0,1,35.17,47.47ZM50,71.71H45.41a1,1,0,0,0,0,2h7.77v1.93H38.45V73.72h3.42a1,1,0,0,0,0-2H41.6l.81-8.92a21.43,21.43,0,0,0,7,2.54Zm9.41-6.79-8-8,1.21-1.21,1.26-1.26,9-9,2,2L55.4,56.87l6,6Z"/>
      <g class="cls-5">
        <rect class="cls-6" x="37.47" y="20.93" width="3.93" height="22.81" transform="translate(-11.31 37.34) rotate(-44.99)"/>
      </g>
    </g>
  </g>
</svg>
