<svg xmlns="http://www.w3.org/2000/svg" viewBox="0 0 93 93.99">
  <defs>
    <style>
      .cls-1 {
        fill: #fffff6;
      }

      .cls-2 {
        fill: #ffffc3;
      }

      .cls-3 {
        fill: #00ce8c;
      }

      .cls-4 {
        fill: #64375a;
      }
    </style>
  </defs>
  <title>Prancheta 6 cópia 65</title>
  <g id="icons">
    <g>
      <path class="cls-1" d="M62.28,43.41a8.27,8.27,0,0,1-7.7,6H53.24v.9h0a2.84,2.84,0,0,1-5.69,0h0v-.9H46.15a8.27,8.27,0,0,1-7.7-6Z"/>
      <path class="cls-2" d="M50.2,43.41H38.45a8.27,8.27,0,0,0,7.7,6h1.35v.9h0a2.84,2.84,0,0,0,2.68,2.83Z"/>
      <path class="cls-3" d="M57.23,43.41c-.44,3.37-2.12,6-3.87,6h-.68v.9h0c0,1.57-.64,2.84-1.43,2.84a3.18,3.18,0,0,1-2.49-2.84h0v-.9h.38c-1.76,0-3.43-2.66-3.87-6Z"/>
      <rect class="cls-2" x="27.39" y="54.18" width="2.9" height="12.28"/>
      <polygon class="cls-3" points="35.38 57.07 33.45 57.07 32.1 54.18 32.1 54.18 30.29 54.18 30.29 65.64 32.1 65.64 32.1 65.64 33.45 62.76 35.38 62.76 35.38 57.07"/>
      <path class="cls-4" d="M62.42,44.41h-.14a1,1,0,0,1,0-2h.14a1,1,0,0,1,0,2Z"/>
      <path class="cls-4" d="M38.45,44.41H38a1,1,0,0,1,0-2h.47a1,1,0,0,1,0,2Z"/>
      <g>
        <path class="cls-4" d="M59.14,59h-5.2a1,1,0,0,0,0,2h5.2a8,8,0,0,1,7.8,8.2,7.81,7.81,0,0,1-7.8,7.8h0a7.81,7.81,0,0,1-7.79-7.8V54.73a4.51,4.51,0,0,0,3.47-3.63,9.92,9.92,0,0,0,9.08-7.27v0c.07-.25.12-.51.16-.76l3-18.35a7.21,7.21,0,0,0-7.29-8.59,1.67,1.67,0,0,0,0,3.33,3.89,3.89,0,0,1,4,4.71L60.9,41.74H39.83L36.95,24.17a3.89,3.89,0,0,1,4-4.71,1.67,1.67,0,0,0,0-3.33,7.21,7.21,0,0,0-7.29,8.59l3,18.34c0,.25.1.51.16.76v0a9.93,9.93,0,0,0,9.08,7.27,4.51,4.51,0,0,0,3.43,3.62V69.2A9.81,9.81,0,0,0,59.14,79h0a9.81,9.81,0,0,0,9.8-9.8A10,10,0,0,0,59.14,59ZM45.39,47.71a6.67,6.67,0,0,1-4.32-2.64H59.66a6.66,6.66,0,0,1-4.32,2.64Zm5,3.8a1.18,1.18,0,0,1-1.18-1.18,1.6,1.6,0,0,0,0-.29v-.33h2.41V50a1.63,1.63,0,0,0,0,.3A1.18,1.18,0,0,1,50.37,51.52Z"/>
        <path class="cls-4" d="M46.76,59H36.54V57.07a3.34,3.34,0,0,0-.95-2.33l-2.82-2.89a3.33,3.33,0,0,0-2.38-1h-3a3.33,3.33,0,0,0-3.33,3.33V65.64A3.33,3.33,0,0,0,27.39,69h3a3.33,3.33,0,0,0,2.38-1l2.82-2.89a3.34,3.34,0,0,0,.95-2.33V61H46.76a1,1,0,0,0,0-2ZM33.21,62.76l-1.92,2v-5.9a1,1,0,0,0-2,0v6.82h-1.9V54.18h1.9V56a1,1,0,0,0,2,0v-.88l1.92,2Z"/>
        <path class="cls-4" d="M45.54,20.58a1.67,1.67,0,0,0,1.67-1.67V16.66a1.67,1.67,0,0,0-3.33,0v2.25A1.67,1.67,0,0,0,45.54,20.58Z"/>
        <path class="cls-4" d="M55.29,20.58A1.67,1.67,0,0,0,57,18.91V16.66a1.67,1.67,0,0,0-3.33,0v2.25A1.67,1.67,0,0,0,55.29,20.58Z"/>
      </g>
    </g>
  </g>
</svg>
