<svg xmlns="http://www.w3.org/2000/svg" viewBox="0 0 93 93.99">
  <defs>
    <style>
      .cls-1 {
        fill: #fffff6;
      }

      .cls-2 {
        fill: #ffffc3;
      }

      .cls-3 {
        fill: #00ce8c;
      }

      .cls-4 {
        opacity: 0.6;
      }

      .cls-5 {
        fill: #ff3246;
      }

      .cls-6 {
        fill: #64375a;
      }
    </style>
  </defs>
  <title>Prancheta 6 cópia 51</title>
  <g id="icons">
    <g>
      <polygon class="cls-1" points="25.54 18.32 17.82 26.04 56.43 64.64 62.36 64.63 73.4 75.67 75.17 73.9 64.13 62.85 64.14 56.93 25.54 18.32"/>
      <polygon class="cls-2" points="74.28 74.78 21.68 22.18 17.82 26.04 56.43 64.64 62.36 64.63 73.4 75.67 74.28 74.78"/>
      <polygon class="cls-3" points="24.28 19.58 20.13 23.73 58.74 62.33 63.29 63.69 74.33 74.73 75.29 73.78 64.25 62.74 62.89 58.18 24.28 19.58"/>
      <g class="cls-4">
        <rect class="cls-5" x="29.33" y="20.34" width="6.22" height="25.34" transform="translate(-13.84 32.62) rotate(-45.01)"/>
      </g>
      <g>
        <path class="cls-6" d="M77.52,71.54,67.46,61.48V56.93a3.33,3.33,0,0,0-1-2.36L27.89,16a3.33,3.33,0,0,0-4.71,0l-7.71,7.71a3.33,3.33,0,0,0,0,4.71L54.08,67a3.32,3.32,0,0,0,2.35,1H61L71,78a3.33,3.33,0,0,0,4.7,0l1.77-1.77A3.33,3.33,0,0,0,77.52,71.54ZM62.36,64.63H56.43L17.82,26l7.71-7.71,3.13,3.13-.87.87a1,1,0,0,0,1.41,1.41l.87-.87L34,26.76l-.87.87A1,1,0,1,0,34.51,29l.87-.87,3.89,3.89-.87.87a1,1,0,1,0,1.41,1.41l.87-.87,3.89,3.89-.87.87a1,1,0,0,0,0,1.41,1,1,0,0,0,1.41,0l.87-.87,3.89,3.89-.87.87A1,1,0,1,0,50.43,45l.87-.87L55.2,48l-.87.87a1,1,0,1,0,1.41,1.41l.87-.87,3.89,3.89-.87.87A1,1,0,1,0,61,55.57l.87-.87,2.23,2.23v5.93l5.67,5.67L68,70.3Zm11,11-4-4,1.77-1.77,4,4Z"/>
        <path class="cls-6" d="M26.22,25.31a1,1,0,1,0-1.41,1.41L57.59,59.5A1,1,0,1,0,59,58.09Z"/>
      </g>
    </g>
  </g>
</svg>
