<svg xmlns="http://www.w3.org/2000/svg" viewBox="0 0 93 93.99">
  <defs>
    <style>
      .cls-1 {
        fill: #fffff6;
      }

      .cls-2 {
        fill: #00ce8c;
      }

      .cls-3 {
        fill: #ffffc3;
      }

      .cls-4 {
        opacity: 0.6;
      }

      .cls-5 {
        fill: #ff3246;
      }

      .cls-6 {
        fill: #64375a;
      }
    </style>
  </defs>
  <title>Prancheta 6 cópia 50</title>
  <g id="icons">
    <g>
      <rect class="cls-1" x="45.37" y="31.69" width="8.9" height="37.15" transform="translate(-20.95 49.95) rotate(-45)"/>
      <rect class="cls-2" x="48.45" y="30.97" width="3.38" height="39.26" transform="translate(-21.09 50.29) rotate(-45.01)"/>
      <rect class="cls-3" x="44.92" y="32.65" width="4.51" height="40.33" transform="translate(-23.53 48.85) rotate(-45.02)"/>
      <g class="cls-4">
        <rect class="cls-5" x="54.37" y="51.16" width="5.09" height="12.59" transform="translate(-23.96 57.05) rotate(-44.98)"/>
      </g>
      <path class="cls-6" d="M78.21,77.27,66,65l2.45-2.45a3.28,3.28,0,0,0,0-4.64L44.75,34.27l.07-.07a1,1,0,0,0-1.39-1.39l-.07.07-1.21-1.21,0,0,1.55-1.55a1.64,1.64,0,1,0-2.32-2.32l-5.86,5.86-5.7-5.7a8.38,8.38,0,1,0-2.3,2.34l5.68,5.68L27.31,41.8a1.64,1.64,0,0,0,2.32,2.32l1.55-1.55,0,0,1.21,1.21-.11.11a1,1,0,1,0,1.39,1.39l.11-.11L57.49,68.87a3.28,3.28,0,0,0,4.64,0l2.45-2.45L76.82,78.66a1,1,0,0,0,1.39-1.39ZM19.25,27a5.08,5.08,0,0,1,3.62-8.63,5,5,0,0,1,5,5,5.09,5.09,0,0,1-5.08,5.07A5,5,0,0,1,19.25,27ZM33.53,40.28l6.3-6.3L41,35.2l-6.3,6.29Zm8.9-3.69,2.75,2.74-6.3,6.3-2.75-2.75Zm17.37,30L40.27,47l2-2,6.24,6.23-.76.76a1,1,0,1,0,1.39,1.39L53,49.58a1,1,0,0,0-1.39-1.39l-.76.76-6.24-6.23,2-2L66.1,60.26Z"/>
    </g>
  </g>
</svg>
