<svg xmlns="http://www.w3.org/2000/svg" viewBox="0 0 93 93.99">
  <defs>
    <style>
      .cls-1 {
        fill: #fffff6;
      }

      .cls-2 {
        fill: #ffffc3;
      }

      .cls-3 {
        fill: #00ce8c;
      }

      .cls-4 {
        opacity: 0.6;
      }

      .cls-5 {
        fill: #ff3246;
      }

      .cls-6 {
        fill: #64375a;
      }
    </style>
  </defs>
  <title>Prancheta 6 cópia 7</title>
  <g id="icons">
    <g>
      <path class="cls-1" d="M67.18,59.32l-1-33.12h0c0-1.37-9.12-3.65-19.91-3.65s-19.53,2.28-19.53,3.65l-1,33.12-8,5.16v7H75.14v-7Z"/>
      <path class="cls-2" d="M46.54,22.55h-.23c-10.79,0-19.53,2.28-19.53,3.65l-1,33.12-8,5.16v7H46.54Z"/>
      <path class="cls-3" d="M64.07,59.32l-2.52-1-.64-32.15h0c0-1.37-7.24-5-14.6-5S34,24.83,34,26.19l-.64,32.15-2.52,1-6.38,5.16v7h46v-7Z"/>
      <g class="cls-4">
        <circle class="cls-5" cx="46.5" cy="39.9" r="14.26"/>
      </g>
      <path class="cls-1" d="M44,48.43a1,1,0,0,1-1-1v-4H39a1,1,0,0,1-1-1V37.37a1,1,0,0,1,1-1h4v-4a1,1,0,0,1,1-1H49a1,1,0,0,1,1,1v4h4a1,1,0,0,1,1,1v5.06a1,1,0,0,1-1,1H50v4a1,1,0,0,1-1,1Z"/>
      <g>
        <path class="cls-6" d="M77,61.66l-6.47-4.2-.92-31.33c0-3.17-3.47-4.52-8.59-5.57a75.8,75.8,0,0,0-14.67-1.38,73.1,73.1,0,0,0-14.5,1.38c-5,1-8.35,2.4-8.39,5.56L22.5,57.46,16,61.66a3.36,3.36,0,0,0-1.53,2.82v7a3.36,3.36,0,0,0,3.36,3.36H75.14a3.36,3.36,0,0,0,3.36-3.36v-7A3.36,3.36,0,0,0,77,61.66ZM26.78,26.19c0-1.37,8.75-3.65,19.53-3.65s19.91,2.28,19.91,3.65l.91,31.14H25.87ZM75.14,71.45H17.86V65.52H58.32a1,1,0,1,0,0-2h-39l6.4-4.16H67.23l6.4,4.16h-7.7a1,1,0,0,0,0,2h9.2Z"/>
        <path class="cls-6" d="M54,35.35H51v-3a2,2,0,0,0-2-2H44a2,2,0,0,0-2,2v3H39a2,2,0,0,0-2,2v5.06a2,2,0,0,0,2,2h3v3a2,2,0,0,0,2,2H49a2,2,0,0,0,2-2v-3h3a2,2,0,0,0,2-2V37.37A2,2,0,0,0,54,35.35Zm0,7.08H49v5H44v-5H39V37.37h5v-5H49v5h5Z"/>
      </g>
    </g>
  </g>
</svg>
