<svg id="Camada_1" data-name="Camada 1" xmlns="http://www.w3.org/2000/svg" viewBox="0 0 77 77">
  <defs>
    <style>
      .cls-1 {
        fill: #fffff6;
      }

      .cls-2 {
        fill: #ffffc3;
      }

      .cls-3 {
        fill: #00ce8c;
      }

      .cls-4 {
        fill: #f38290;
      }

      .cls-5 {
        fill: #64375a;
      }
    </style>
  </defs>
  <title>Prancheta 2</title>
  <g>
    <rect class="cls-1" x="21.68" y="9.85" width="33.64" height="57.3" rx="5.25" ry="5.25"/>
    <path class="cls-2" d="M37.38,9.85H26.93a5.27,5.27,0,0,0-5.25,5.25V61.9a5.27,5.27,0,0,0,5.25,5.25H37.38Z"/>
    <path class="cls-3" d="M49.06,9.85h-18C28.87,9.85,27,12.21,27,15.1V61.9c0,2.89,1.83,5.25,4.07,5.25h18c2.24,0,4.07-2.36,4.07-5.25V15.1C53.13,12.21,51.3,9.85,49.06,9.85Z"/>
    <rect class="cls-1" x="25.75" y="20.37" width="25.49" height="33.85"/>
    <path class="cls-4" d="M35.89,46.3a1,1,0,0,1-1-1V41.16H30.75a1,1,0,0,1-1-1V34.93a1,1,0,0,1,1-1h4.14V29.79a1,1,0,0,1,1-1h5.22a1,1,0,0,1,1,1v4.14h4.14a1,1,0,0,1,1,1v5.22a1,1,0,0,1-1,1H42.12V45.3a1,1,0,0,1-1,1Z"/>
    <g>
      <path class="cls-5" d="M50.07,6.5H26.93a8.61,8.61,0,0,0-8.6,8.6V61.9a8.61,8.61,0,0,0,8.6,8.6H50.07a8.61,8.61,0,0,0,8.6-8.6V15.1A8.61,8.61,0,0,0,50.07,6.5Zm5.25,55.4a5.27,5.27,0,0,1-5.25,5.25H26.93a5.27,5.27,0,0,1-5.25-5.25V15.1a5.27,5.27,0,0,1,5.25-5.25H50.07a5.27,5.27,0,0,1,5.25,5.25Z"/>
      <path class="cls-5" d="M51.25,18.36H25.75a2,2,0,0,0-2,2V54.22a2,2,0,0,0,2,2H51.25a2,2,0,0,0,2-2V20.37A2,2,0,0,0,51.25,18.36Zm0,35.86H25.75V20.37H51.25Z"/>
      <path class="cls-5" d="M38.5,58a3.74,3.74,0,1,0,3.74,3.74A3.74,3.74,0,0,0,38.5,58Zm0,5.47a1.73,1.73,0,1,1,1.73-1.73A1.73,1.73,0,0,1,38.5,63.45Z"/>
      <path class="cls-5" d="M34.34,15.5h8.32a1,1,0,1,0,0-2H34.34a1,1,0,1,0,0,2Z"/>
      <circle class="cls-5" cx="30.21" cy="14.5" r="1.18"/>
      <path class="cls-5" d="M30.75,42.16h3.14V45.3a2,2,0,0,0,2,2h5.22a2,2,0,0,0,2-2V42.16h3.13a2,2,0,0,0,2-2V34.93a2,2,0,0,0-2-2H43.12V29.79a2,2,0,0,0-2-2H35.89a2,2,0,0,0-2,2v3.14H30.75a2,2,0,0,0-2,2v5.22A2,2,0,0,0,30.75,42.16Zm0-7.23h5.14V29.79h5.22v5.15h5.14v5.22H41.11V45.3H35.89V40.15H30.75Z"/>
    </g>
  </g>
</svg>
