<svg xmlns="http://www.w3.org/2000/svg" viewBox="0 0 93 93.99">
  <defs>
    <style>
      .cls-1 {
        fill: #fffff6;
      }

      .cls-2 {
        fill: #ffffc3;
      }

      .cls-3 {
        fill: #00ce8c;
      }

      .cls-4 {
        fill: #64375a;
      }

      .cls-5 {
        opacity: 0.6;
      }

      .cls-6 {
        fill: #ff3246;
      }
    </style>
  </defs>
  <title>Prancheta 6 cópia 24</title>
  <g id="icons">
    <g>
      <path class="cls-1" d="M33.42,19.61l-4.08,4.09-1-1-6.15,6.15,1,1L19.1,33.93a3.67,3.67,0,0,0-.4,5.15,3.67,3.67,0,0,0,5.14-.4l4.09-4.09,1,1,6.15-6.15-1-1,4.08-4.08a3.67,3.67,0,0,0,.4-5.14A3.67,3.67,0,0,0,33.42,19.61Z"/>
      <path class="cls-2" d="M53.91,56.5l16,18.26a3.06,3.06,0,0,0,4.32-4.32L56,54.41Z"/>
      <path class="cls-1" d="M55.12,55.29,74.27,74.76a3.06,3.06,0,0,0,0-4.31L56,54.41Z"/>
      <path class="cls-3" d="M54.51,55.9,71.07,73.65c1.19,1.19,2.67,1.65,3.31,1s.18-2.11-1-3.3L55.62,54.79Z"/>
      <path class="cls-2" d="M30.11,22.91l-.78.78-1-1-6.15,6.15,1,1L19.1,33.93a3.67,3.67,0,0,0-.4,5.15,3.67,3.67,0,0,0,5.14-.4l4.09-4.09,1,1,6.15-6.15-1-1,.78-.78a3.67,3.67,0,0,0,.4-5.14A3.67,3.67,0,0,0,30.11,22.91Z"/>
      <path class="cls-3" d="M32.55,20.48l-3.16,3.16-1-1-6.21,6.21,1,1-1.71,1.71a3.37,3.37,0,0,0,4.75,4.75l1.71-1.71,1,1,6.21-6.21-1-1,3.16-3.16a3.37,3.37,0,0,0-4.75-4.74Z"/>
      <rect class="cls-2" x="24.29" y="26.76" width="3.65" height="9.68" transform="translate(-14.7 27.7) rotate(-44.97)"/>
      <rect class="cls-1" x="30.57" y="21.21" width="2.04" height="9.9" transform="translate(-9.25 29.98) rotate(-44.98)"/>
      <path class="cls-4" d="M76.62,68.09l-.16-.15-18.26-16a3.31,3.31,0,0,0-4.39,0L36,34.09a1.67,1.67,0,0,0-.46-.32l2-2a3.33,3.33,0,0,0,.92-3l2.14-2.14A7.59,7.59,0,0,0,42.76,22a6.48,6.48,0,0,0-1.83-5.11A6.39,6.39,0,0,0,36.36,15a7.58,7.58,0,0,0-5.29,2.25l-2.14,2.14a3.41,3.41,0,0,0-.61-.06,3.32,3.32,0,0,0-2.36,1l-1.88,1.88-.33-.34a1.67,1.67,0,0,0-2.36,2.36l.34.34-1.91,1.91a3.33,3.33,0,0,0-.92,3l-2.14,2.14a7,7,0,0,0-.4,9.86,6.39,6.39,0,0,0,4.56,1.85A7.57,7.57,0,0,0,26.2,41l2.14-2.14a3.4,3.4,0,0,0,.61.06,3.32,3.32,0,0,0,2.36-1l2-2a1.63,1.63,0,0,0,.32.46L51.45,54.28a3.32,3.32,0,0,0,0,4.43L67.44,77l.15.16a6.39,6.39,0,1,0,9-9ZM29,35.59l0,0-3.2-3.2a1,1,0,1,0-1.41,1.41L26.54,36l-2.7,2.7a4.21,4.21,0,0,1-2.94,1.28,3.08,3.08,0,0,1-2.21-.87,3.67,3.67,0,0,1,.4-5.15l4.09-4.08-1-1,6.15-6.15,1,1,4.08-4.09a4.22,4.22,0,0,1,2.94-1.28,3.07,3.07,0,0,1,2.21.88,3.67,3.67,0,0,1-.4,5.14l-2.7,2.71L33.3,24.9a1,1,0,1,0-1.42,1.41l3.18,3.19ZM74.27,74.77a3,3,0,0,1-3.34.66L72.37,74A1,1,0,1,0,71,72.57l-1.57,1.57L53.91,56.5,56,54.41,73.63,69.89l-.32.32a1,1,0,1,0,1.41,1.41l.19-.19A3.05,3.05,0,0,1,74.27,74.77Z"/>
      <g class="cls-5">
        <path class="cls-6" d="M34.34,20.52l-1.8,1.8,2.92,2.91,1.8-1.8a2.25,2.25,0,0,0,.24-3.16A2.26,2.26,0,0,0,34.34,20.52Z"/>
      </g>
      <g class="cls-5">
        <path class="cls-6" d="M20,34.88l1.8-1.8L24.69,36l-1.8,1.8a2.26,2.26,0,0,1-3.16.24A2.26,2.26,0,0,1,20,34.88Z"/>
      </g>
    </g>
  </g>
</svg>
