<svg xmlns="http://www.w3.org/2000/svg" viewBox="0 0 93 93.99">
  <defs>
    <style>
      .cls-1 {
        fill: #ffffc3;
      }

      .cls-2 {
        fill: #00ce8c;
      }

      .cls-3 {
        fill: #fffff6;
      }

      .cls-4 {
        fill: #64375a;
      }

      .cls-5 {
        opacity: 0.6;
      }

      .cls-6 {
        fill: #ff3246;
      }
    </style>
  </defs>
  <title>Prancheta 6 cópia 15</title>
  <g id="icons">
    <g>
      <polygon class="cls-1" points="75.17 41.67 17.82 41.67 17.82 34.34 31.6 38.41 75.17 38.41 75.17 41.67"/>
      <polygon class="cls-2" points="75.17 41.67 24.13 41.67 24.13 34.34 36.4 38.41 75.17 38.41 75.17 41.67"/>
      <circle class="cls-3" cx="19.83" cy="62.58" r="3.41"/>
      <path class="cls-4" d="M19.83,67.64a5.07,5.07,0,1,1,5.07-5.07A5.07,5.07,0,0,1,19.83,67.64Zm0-6.81a1.74,1.74,0,1,0,1.74,1.74A1.75,1.75,0,0,0,19.83,60.84Z"/>
      <circle class="cls-3" cx="71.05" cy="62.58" r="3.4"/>
      <path class="cls-4" d="M71,67.64a5.07,5.07,0,1,1,5.07-5.07A5.07,5.07,0,0,1,71,67.64Zm0-6.81a1.74,1.74,0,1,0,1.74,1.74A1.75,1.75,0,0,0,71,60.84Z"/>
      <rect class="cls-3" x="31.66" y="36.8" width="39.86" height="8.58"/>
      <g class="cls-5">
        <rect class="cls-6" x="32.27" y="36.8" width="38.77" height="8.58"/>
      </g>
      <g>
        <path class="cls-4" d="M76.84,26.73a1.66,1.66,0,0,0-1.66,1.66v6.7H32.08L18.76,31.15a3.31,3.31,0,0,0-.91-.13V28.39a1.66,1.66,0,1,0-3.32,0v5.69c0,.09,0,.17,0,.26v7.34c0,.1,0,.2,0,.3h0a1.66,1.66,0,0,0,0,.34A3.32,3.32,0,0,0,17.82,45h3.31L40.3,48.79,20.53,52.69h-.7a1.66,1.66,0,1,0,0,3.32h51a1.66,1.66,0,0,0,0-3.32h-.45L50.58,48.79l12.17-2.4h8.78a1,1,0,0,0,1-1V45h2.66a3.31,3.31,0,0,0,3.13-2.26A1.66,1.66,0,0,0,78.5,42V28.39A1.66,1.66,0,0,0,76.84,26.73Zm-59,7.62,12.81,3.78v3.54H17.85ZM60.07,52.69H30.81L45.44,49.8ZM45.44,47.77l-7-1.39H52.47Zm25.09-7.65H65.6a1,1,0,0,0,0,2h4.93v2.27H32.66V42.11H61.39a1,1,0,0,0,0-2H32.66V38.41H70.52Zm4.65,1.55H72.52V38.41h2.66Z"/>
        <path class="cls-4" d="M21,29.6l9.74,2.85a1.65,1.65,0,0,0,.47.07,1.66,1.66,0,0,0,.47-3.25l-9.73-2.85A1.66,1.66,0,0,0,21,29.6Z"/>
      </g>
    </g>
  </g>
</svg>
