<svg xmlns="http://www.w3.org/2000/svg" viewBox="0 0 93 93.99">
  <defs>
    <style>
      .cls-1 {
        fill: #fffff6;
      }

      .cls-2 {
        fill: #ffffc3;
      }

      .cls-3 {
        fill: #00ce8c;
      }

      .cls-4 {
        fill: #64375a;
      }

      .cls-5 {
        opacity: 0.6;
      }

      .cls-6 {
        fill: #ff3246;
      }
    </style>
  </defs>
  <title>Prancheta 6 cópia 13</title>
  <g id="icons">
    <g>
      <path class="cls-1" d="M58.19,44.83h0c-3.95-3.24-9.51-6.23-9.51-11.73h0a2.14,2.14,0,1,0-4.28,0h0c0,5.08-5.17,7.74-8.61,11a17.65,17.65,0,1,0,22.45.77Z"/>
      <path class="cls-2" d="M46.5,31a2.14,2.14,0,0,0-2.14,2.14h0c0,5.08-5.17,7.74-8.61,11A17.65,17.65,0,0,0,46.5,75.69Z"/>
      <path class="cls-3" d="M56.69,44.83h0c-3-3.24-7.12-6.23-7.12-11.73h0c0-1.18-2.16-2.14-3-2.14V33.1h0c0,5.08-4,7.74-6.62,11a20.16,20.16,0,0,0-5.16,14c0,9.75,5.92,17.65,13.21,17.65S61.15,67.79,61.15,58A20.57,20.57,0,0,0,56.69,44.83Z"/>
      <circle class="cls-1" cx="46.5" cy="20.03" r="3.38"/>
      <g>
        <path class="cls-4" d="M60.38,42.35l-.09-.08c-.76-.62-1.57-1.23-2.35-1.82-3.6-2.71-6-4.69-6-7.36a3.31,3.31,0,0,0-.11-.85,5.44,5.44,0,0,0-10.79.34,3.3,3.3,0,0,0,0,.51c0,2.18-1.82,3.81-4.82,6.23-.87.71-1.78,1.43-2.62,2.21a21,21,0,1,0,26.78.81ZM46.5,75.69h0A17.65,17.65,0,0,1,35.74,44.06c3.44-3.22,8.61-5.87,8.61-11h0a2.14,2.14,0,1,1,4.28,0h0c0,5.5,5.56,8.49,9.51,11.73h0A17.65,17.65,0,0,1,46.5,75.69Z"/>
        <path class="cls-4" d="M46.5,25.07a5,5,0,1,0-5-5A5,5,0,0,0,46.5,25.07Zm0-6.77A1.73,1.73,0,1,1,44.76,20,1.74,1.74,0,0,1,46.5,18.3Z"/>
      </g>
      <g class="cls-5">
        <path class="cls-6" d="M31.51,58.43a15,15,0,0,0,30,0Z"/>
      </g>
    </g>
  </g>
</svg>
