<svg xmlns="http://www.w3.org/2000/svg" viewBox="0 0 93 93.99">
  <defs>
    <style>
      .cls-1 {
        fill: #fffff6;
      }

      .cls-2 {
        fill: #ffffc3;
      }

      .cls-3 {
        fill: #00ce8c;
      }

      .cls-4 {
        fill: #64375a;
      }

      .cls-5 {
        opacity: 0.6;
      }

      .cls-6 {
        fill: #ff3246;
      }
    </style>
  </defs>
  <title>Prancheta 6 cópia 25</title>
  <g id="icons">
    <g>
      <path class="cls-1" d="M48.46,23.57A17.88,17.88,0,1,0,36.91,54.06h0a17.85,17.85,0,0,1,14.41,5.15l7.45-7.45a17.83,17.83,0,0,1-5.22-13.24A17.85,17.85,0,0,0,48.46,23.57Z"/>
      <polygon class="cls-1" points="75.06 75.37 74.77 75.66 56.41 59.18 58.71 56.88 75.06 75.37"/>
      <path class="cls-2" d="M23.17,23.57A17.88,17.88,0,0,0,36.91,54.06h0a17.85,17.85,0,0,1,14.41,5.15l3.75-3.75Z"/>
      <path class="cls-3" d="M45.77,26.26c-7-7-16.41-8.88-21.05-4.24S22,36.08,29,43.07A22.59,22.59,0,0,0,41.27,49.7h0c4.2.44,8.92,2.76,12.86,6.71l4.95-4.95a22.8,22.8,0,0,1-6.57-11.89C52.19,35.25,49.85,30.34,45.77,26.26Z"/>
      <path class="cls-4" d="M77.56,73.16,61.21,54.67a3.38,3.38,0,0,0-.33-.3l.25-.25a3.33,3.33,0,0,0,0-4.71,14.4,14.4,0,0,1-4.25-10.63A21.22,21.22,0,1,0,35.81,57.43c.43,0,.87,0,1.3,0h.12c.48,0,1-.07,1.44-.07A14.45,14.45,0,0,1,49,61.57a3.33,3.33,0,0,0,4.71,0l.22-.22a3.22,3.22,0,0,0,.29.31L72.54,78.14A3.33,3.33,0,0,0,77.12,78l.3-.29A3.33,3.33,0,0,0,77.56,73.16ZM38.68,54q-.88,0-1.77.09h0c-.37,0-.73,0-1.1,0A17.88,17.88,0,1,1,53.55,38.53a17.83,17.83,0,0,0,5.22,13.24l-7.45,7.45A17.83,17.83,0,0,0,38.68,54ZM74.77,75.66,56.42,59.18l2.3-2.3L75.06,75.37Z"/>
      <g class="cls-5">
        <path class="cls-6" d="M21.51,41.39a15.17,15.17,0,0,0,14.3,10l.89,0c.65-.06,1.32-.1,2-.1A20.41,20.41,0,0,1,51.2,55.56l3.92-3.92A20.65,20.65,0,0,1,51,41.39Z"/>
      </g>
    </g>
  </g>
</svg>
