<svg xmlns="http://www.w3.org/2000/svg" viewBox="0 0 93 93.99">
  <defs>
    <style>
      .cls-1 {
        fill: #fffff6;
      }

      .cls-2 {
        fill: #ffffc3;
      }

      .cls-3 {
        fill: #00ce8c;
      }

      .cls-4 {
        opacity: 0.6;
      }

      .cls-5 {
        fill: #ff3246;
      }

      .cls-6 {
        fill: #64375a;
      }
    </style>
  </defs>
  <title>Prancheta 6 cópia 63</title>
  <g id="icons">
    <g>
      <path class="cls-1" d="M30.78,20.54A7.58,7.58,0,0,0,20.07,31.25l-.07.07L31.61,42.93l1.46-1.46L60,68.37l6,0,7.32,7.32,1.81-1.81-7.32-7.31,0-6L40.93,33.6l1.46-1.46Z"/>
      <path class="cls-2" d="M74.25,74.72,20.1,20.56a7.56,7.56,0,0,0,0,10.69l-.07.07L31.61,42.93l1.46-1.46L60,68.37l6,0,7.32,7.32Z"/>
      <path class="cls-3" d="M28.86,22.46c-2.94-2.94-6.66-4-8.31-2.35s-.6,5.37,2.35,8.31l0,0L34.47,40.06l.81-.81,26.9,26.9,4.69,1.31,7.31,7.32,1-1-7.31-7.31-1.32-4.69-26.9-26.9.81-.81Z"/>
      <g class="cls-4">
        <polygon class="cls-5" points="65.42 60.85 65.42 65.89 60.38 65.89 44.69 50.19 54.85 50.21 65.42 60.85"/>
      </g>
      <g>
        <path class="cls-6" d="M77.48,71.49l-6.33-6.33,0-4.64a3.34,3.34,0,0,0-1-2.38L45.63,33.58l2-2a1.67,1.67,0,0,0-2.36-2.36l-.56.56L33.14,18.17a10.89,10.89,0,0,0-15.41,0,10.91,10.91,0,0,0-.68,14.7,3.32,3.32,0,0,0,.58.78L29.22,45.26l-.56.56A1.67,1.67,0,0,0,31,48.19l2-2L57.61,70.73a3.34,3.34,0,0,0,2.36,1h0l4.64,0L70.95,78a3.34,3.34,0,0,0,4.72,0l1.81-1.81a3.34,3.34,0,0,0,0-4.72Zm-47.31-30,6-6a1,1,0,0,0-1.42-1.42l-6,6L20,31.32l.07-.07A7.58,7.58,0,0,1,30.78,20.54l8.76,8.76L38.3,30.53A1,1,0,0,0,39.72,32L41,30.71l1.41,1.4L31.58,42.9ZM73.31,75.66,66,68.34l-6,0L35.4,43.8l7.87-7.87L67.83,60.51l0,6,7.32,7.31Z"/>
        <path class="cls-6" d="M52.18,48.82a1,1,0,0,0-1.42,0l-2.41,2.41a1,1,0,0,0,1.42,1.42l2.41-2.41A1,1,0,0,0,52.18,48.82Z"/>
        <path class="cls-6" d="M56.42,53.06a1,1,0,0,0-1.42,0l-2.41,2.41A1,1,0,0,0,54,56.88l2.41-2.41A1,1,0,0,0,56.42,53.06Z"/>
        <path class="cls-6" d="M47.93,44.58a1,1,0,0,0-1.42,0L44.11,47a1,1,0,0,0,1.42,1.42L47.93,46A1,1,0,0,0,47.93,44.58Z"/>
        <path class="cls-6" d="M59.24,57.3l-2.41,2.41a1,1,0,1,0,1.42,1.42l2.41-2.41a1,1,0,1,0-1.42-1.42Z"/>
      </g>
    </g>
  </g>
</svg>
