<svg xmlns="http://www.w3.org/2000/svg" viewBox="0 0 93 93.99">
  <defs>
    <style>
      .cls-1 {
        fill: #00ce8c;
      }

      .cls-2 {
        fill: #ffffc3;
      }

      .cls-3 {
        fill: #f38290;
      }

      .cls-4 {
        fill: #64375a;
      }
    </style>
  </defs>
  <title>Prancheta 6 cópia 67</title>
  <g id="icons">
    <g>
      <path class="cls-1" d="M60.37,75.61l-14-25.4L32,75.37c-.56.91-2.41.81-3.33.25s-1.87-2.15-1.31-3.07L44.09,46.48,34.8,31.2a1.94,1.94,0,0,1-.28-1.12,11.81,11.81,0,0,1,23.61-.29,1.89,1.89,0,0,1-.22,1.41L49,45.93,65.67,72.39Zm-22-45.93L46.69,42.2l7.57-12.44a7.93,7.93,0,0,0-15.84-.09Z"/>
      <path class="cls-2" d="M63.2,74.29,36.59,30.52a1.93,1.93,0,0,1-.28-1.12,11.82,11.82,0,0,1,6.78-10.55,11.83,11.83,0,0,0-8.57,11.23,1.94,1.94,0,0,0,.28,1.12L60.37,75.61c.37.6,2.05.29,2.71.29a1.93,1.93,0,0,0,1-.28,14.15,14.15,0,0,0,1.42-1C65,74.54,63.51,74.8,63.2,74.29Z"/>
      <polygon class="cls-3" points="43.32 47.58 27.33 72.56 31.96 75.37 45.77 51.41 43.32 47.58"/>
      <path class="cls-3" d="M58.13,29.79a11.82,11.82,0,0,0-11.77-11.4h0c4.22,0,7.67,7.21,7.89,11.38L47,41.7l2.25,3.76L57.92,31.2A1.89,1.89,0,0,0,58.13,29.79Z"/>
      <path class="cls-4" d="M68.49,70.53,52.63,46.4,60.81,33a5.24,5.24,0,0,0,.7-3.55A15.19,15.19,0,0,0,31.14,30a5.31,5.31,0,0,0,.77,3L40.1,46.43,24.48,70.72a3.38,3.38,0,0,0,1.09,4.72l4.64,2.81A3.39,3.39,0,0,0,34.9,77l11.4-19.93L57.4,77.25a3.38,3.38,0,0,0,4.72,1.26l5.3-3.22a3.38,3.38,0,0,0,1.07-4.75ZM32,75.37l-4.64-2.81,15.4-24,2.33,3.85Zm28.4.24L34.8,31.2a1.94,1.94,0,0,1-.28-1.12,11.81,11.81,0,0,1,23.61-.29,1.89,1.89,0,0,1-.22,1.41l-8,13.18-2.28-3.71,6.64-10.9a7.93,7.93,0,0,0-15.84-.09L65.67,72.39Zm-14-39.38L41.95,29a4.55,4.55,0,0,1,8.79.06Z"/>
    </g>
  </g>
</svg>
