<svg xmlns="http://www.w3.org/2000/svg" viewBox="0 0 93 93.99">
  <defs>
    <style>
      .cls-1 {
        fill: #fffff6;
      }

      .cls-2 {
        fill: #ffffc3;
      }

      .cls-3 {
        fill: #00ce8c;
      }

      .cls-4 {
        opacity: 0.6;
      }

      .cls-5 {
        fill: #ff3246;
      }

      .cls-6 {
        fill: #64375a;
      }
    </style>
  </defs>
  <title>Prancheta 6 cópia 18</title>
  <g id="icons">
    <g>
      <path class="cls-1" d="M54.68,22.82V18.34H38.31v4.48h1.84V69.19s0,.08,0,.12a6.35,6.35,0,1,0,12.7,0s0,.33,0,0V22.84Z"/>
      <path class="cls-2" d="M51.85,22.82V18.34H38.31v4.48h1.52V69.19s0,.08,0,.12c0,3.51,2.35,6.35,5.25,6.35s5.25-2.84,5.25-6.35c0,0,0,.33,0,0V22.84Z"/>
      <path class="cls-3" d="M52.18,22.82V18.34H43.75v4.48h.95V69.19s0,.08,0,.12c0,3.51,1.46,6.35,3.27,6.35s3.27-2.84,3.27-6.35c0,0,0,.33,0,0V22.84Z"/>
      <g class="cls-4">
        <path class="cls-5" d="M42.51,42.68V69s0,0,0,.07a4,4,0,0,0,8,0s0,.21,0,0V42.68Z"/>
      </g>
      <g>
        <path class="cls-6" d="M48.38,50.52H44.54a1,1,0,0,0,0,2h3.84a1,1,0,0,0,0-2Z"/>
        <path class="cls-6" d="M48.35,55.36H44.51a1,1,0,1,0,0,2h3.84a1,1,0,1,0,0-2Z"/>
        <path class="cls-6" d="M48.35,60.2H44.51a1,1,0,1,0,0,2h3.84a1,1,0,1,0,0-2Z"/>
        <path class="cls-6" d="M48.35,65H44.51a1,1,0,1,0,0,2h3.84a1,1,0,1,0,0-2Z"/>
        <path class="cls-6" d="M54.68,15H38.31A3.34,3.34,0,0,0,35,18.34v4.48a3.34,3.34,0,0,0,1.84,3V69.09c0,.07,0,.14,0,.21a9.69,9.69,0,0,0,19.37.59,3.89,3.89,0,0,0,0-.88V25.81a3.34,3.34,0,0,0,1.83-3V18.34A3.34,3.34,0,0,0,54.68,15ZM52.85,69.35a6.35,6.35,0,0,1-12.7-.05s0-.08,0-.12V24.34h6.44a1,1,0,0,0,0-2H38.31v-4H54.68v4.11H51.1a1,1,0,0,0,0,2h1.75v44.9s0,0,0-.05l0,.14Z"/>
      </g>
    </g>
  </g>
</svg>
