<svg xmlns="http://www.w3.org/2000/svg" viewBox="0 0 93 93.99">
  <defs>
    <style>
      .cls-1 {
        fill: #fffff6;
      }

      .cls-2 {
        fill: #ffffc3;
      }

      .cls-3 {
        fill: #00ce8c;
      }

      .cls-4 {
        opacity: 0.6;
      }

      .cls-5 {
        fill: #ff3246;
      }

      .cls-6 {
        fill: #64375a;
      }
    </style>
  </defs>
  <title>Prancheta 6 cópia 21</title>
  <g id="icons">
    <g>
      <path class="cls-1" d="M21.11,18.33V41.38h0a6.19,6.19,0,0,0,2.94,5.27V50.5h6.51V46.66a6.19,6.19,0,0,0,2.94-5.27V18.33Z"/>
      <path class="cls-1" d="M59.51,18.33V41.38h0a6.19,6.19,0,0,0,2.94,5.27V50.5H69V46.66a6.19,6.19,0,0,0,2.94-5.27V18.33Z"/>
      <path class="cls-2" d="M27.47,50.5V18.33H21.11V41.38h0a6.19,6.19,0,0,0,2.94,5.27V50.5Z"/>
      <path class="cls-3" d="M24.5,18.33V41.38h0A8.43,8.43,0,0,0,26,46.66v4.62h3.42V46.66A8.43,8.43,0,0,0,31,41.39V18.33Z"/>
      <rect class="cls-1" x="16.21" y="23.78" width="22.17" height="5.3" rx="1.67" ry="1.67"/>
      <g class="cls-4">
        <path class="cls-5" d="M23.13,32.91v8.6h0a4.18,4.18,0,0,0,2,3.55,2.07,2.07,0,0,0,.67.27v3.38h3v-3.3c.61-.14.74-.35.74-.35a4.18,4.18,0,0,0,2-3.55V32.91Z"/>
      </g>
      <path class="cls-2" d="M65.87,50.5V18.33H59.51V41.38h0a6.19,6.19,0,0,0,2.94,5.27V50.5Z"/>
      <path class="cls-3" d="M62.9,18.33V41.38h0a8.42,8.42,0,0,0,1.55,5.27V50.5h3.42V46.66a8.42,8.42,0,0,0,1.55-5.27V18.33Z"/>
      <rect class="cls-1" x="54.61" y="23.78" width="22.17" height="5.3" rx="1.67" ry="1.67"/>
      <path class="cls-6" d="M75.24,22.12V18.33A3.33,3.33,0,0,0,71.9,15H59.51a3.33,3.33,0,0,0-3.33,3.33v3.79A3.33,3.33,0,0,0,53,24.76H48.14v-.54a1.67,1.67,0,1,0-3.33,0v.54H40a3.33,3.33,0,0,0-3.14-2.64V18.33A3.33,3.33,0,0,0,33.5,15H21.11a3.33,3.33,0,0,0-3.33,3.33v3.79a3.33,3.33,0,0,0-3.23,3.32v2a3.33,3.33,0,0,0,3.23,3.32V41.38a9.46,9.46,0,0,0,2.94,6.89V50.5a3.33,3.33,0,0,0,3.33,3.33H25.8V61a1.66,1.66,0,0,0,.67,1.33V77.91a1,1,0,1,0,2,0V62.32A1.66,1.66,0,0,0,29.13,61V53.83h1.43A3.33,3.33,0,0,0,33.9,50.5V48.27a9.45,9.45,0,0,0,2.94-6.88V30.73A3.33,3.33,0,0,0,40,28.1h4.83V77.33a1.67,1.67,0,0,0,3.33,0V28.1H53a3.33,3.33,0,0,0,3.16,2.64V41.3s0,.06,0,.09a9.45,9.45,0,0,0,2.94,6.88V50.5a3.33,3.33,0,0,0,3.33,3.33H64.2V61a1.66,1.66,0,0,0,.67,1.33V77.91a1,1,0,1,0,2,0V62.32A1.66,1.66,0,0,0,67.53,61V53.83H69A3.33,3.33,0,0,0,72.3,50.5V48.27a9.45,9.45,0,0,0,2.94-6.88V30.73a3.33,3.33,0,0,0,3.21-3.32v-2A3.33,3.33,0,0,0,75.24,22.12ZM36.71,27.41H17.88v-2H36.71ZM33.5,18.33v3.78H21.11V18.33ZM30.56,46.66V50.5H24.05V46.66a6.19,6.19,0,0,1-2.94-5.27V30.74H33.5V41.39A6.19,6.19,0,0,1,30.56,46.66ZM75.11,27.41H56.28v-2H75.11ZM71.9,18.33v3.78H59.51V18.33ZM69,46.66V50.5H62.45V46.66a6.19,6.19,0,0,1-2.94-5.27h0V30.74H71.9V41.39A6.19,6.19,0,0,1,69,46.66Z"/>
      <g class="cls-4">
        <path class="cls-5" d="M61.52,32.91v8.6h0a4.18,4.18,0,0,0,2,3.55,2.07,2.07,0,0,0,.67.27v3.38h3v-3.3c.61-.14.74-.35.74-.35a4.18,4.18,0,0,0,2-3.55V32.91Z"/>
      </g>
    </g>
  </g>
</svg>
