<svg xmlns="http://www.w3.org/2000/svg" viewBox="0 0 93 93.99">
  <defs>
    <style>
      .cls-1 {
        fill: #fffff6;
      }

      .cls-2 {
        opacity: 0.6;
      }

      .cls-3 {
        fill: #ff3246;
      }

      .cls-4 {
        fill: #ffffc3;
      }

      .cls-5 {
        fill: #00ce8c;
      }

      .cls-6 {
        fill: #f38290;
      }

      .cls-7 {
        fill: #64375a;
      }
    </style>
  </defs>
  <title>Prancheta 6 cópia 3</title>
  <g id="icons">
    <g>
      <polygon class="cls-1" points="73.8 57.37 73.8 47.31 64.67 32.82 19.22 32.82 19.22 57.37 17.85 57.37 17.85 60.8 75.15 60.8 75.15 57.37 73.8 57.37"/>
      <g class="cls-2">
        <path class="cls-3" d="M58.07,26.74a2.92,2.92,0,0,0-2.92,2.92H61A2.92,2.92,0,0,0,58.07,26.74Z"/>
      </g>
      <polygon class="cls-4" points="59.23 57.37 59.23 42.54 54.56 32.82 18.86 32.82 18.86 57.37 17.85 57.37 17.85 60.8 60.23 60.8 60.23 57.37 59.23 57.37"/>
      <polygon class="cls-5" points="72.05 56.42 72.05 48.07 62.16 32.82 24.74 32.82 24.74 56.42 20.61 56.42 20.61 60.8 73.45 60.8 73.45 56.42 72.05 56.42"/>
      <polyline class="cls-1" points="75.51 47.31 55.15 47.31 55.15 35.72 67.88 35.72 75.51 47.31"/>
      <polygon class="cls-1" points="45.27 42.04 41.14 42.04 41.14 37.91 36.94 37.91 36.94 42.04 32.81 42.04 32.81 46.24 36.94 46.24 36.94 50.37 41.14 50.37 41.14 46.24 45.27 46.24 45.27 42.04"/>
      <polygon class="cls-6" points="45.27 42.04 41.14 42.04 41.14 37.91 36.94 37.91 36.94 42.04 32.81 42.04 32.81 46.24 36.94 46.24 36.94 50.37 41.14 50.37 41.14 46.24 45.27 46.24 45.27 42.04"/>
      <path class="cls-6" d="M22,55.41H19.22V43.62A2.72,2.72,0,0,1,22,46.44Z"/>
      <circle class="cls-1" cx="28.32" cy="62.22" r="4.36"/>
      <circle class="cls-1" cx="64.68" cy="62.22" r="4.36"/>
      <g>
        <path class="cls-7" d="M57.6,55.42H35.4a1,1,0,0,0,0,2H57.6a1,1,0,1,0,0-2Z"/>
        <path class="cls-7" d="M34.93,50.37a2,2,0,0,0,2,2h4.2a2,2,0,0,0,2-2V48.25h2.12a2,2,0,0,0,2-2V42a2,2,0,0,0-2-2H43.15V37.91a2,2,0,0,0-2-2h-4.2a2,2,0,0,0-2,2V40H32.81a2,2,0,0,0-2,2v4.2a2,2,0,0,0,2,2h2.12Zm-2.12-4.13V42h4.13V37.91h4.2V42h4.13v4.2H41.14v4.13h-4.2V46.24Z"/>
        <path class="cls-7" d="M77.15,54.68V47.31a3.35,3.35,0,0,0-.51-1.79L67.51,31a3.35,3.35,0,0,0-2.84-1.57H62a3.91,3.91,0,0,0-7.81,0H19.22a3.35,3.35,0,0,0-3.35,3.35V54.67a3.35,3.35,0,0,0-1.37,2.71V60.8a3.35,3.35,0,0,0,3.35,3.35h4.76a6,6,0,0,0,11.42,0H59a6,6,0,0,0,11.42,0h4.76A3.35,3.35,0,0,0,78.5,60.8V57.37A3.34,3.34,0,0,0,77.15,54.68Zm-4-8.38h-17V36.72h11ZM58.07,27.75A1.91,1.91,0,0,1,60,29.47H56.18A1.91,1.91,0,0,1,58.07,27.75ZM28.32,64.9A2.68,2.68,0,1,1,31,62.22,2.68,2.68,0,0,1,28.32,64.9Zm36.36,0a2.68,2.68,0,1,1,2.68-2.68A2.68,2.68,0,0,1,64.68,64.9Zm5.85-4.1a6,6,0,0,0-11.71,0H34.17a6,6,0,0,0-11.71,0H17.85V57.43H22a1,1,0,1,0,0-2H19.22V32.82H64.68l1.19,1.89H55.15a1,1,0,0,0-1,1v11.6a1,1,0,0,0,1,1H73.8v7.1H71a1,1,0,1,0,0,2h4.13V60.8Z"/>
      </g>
    </g>
  </g>
</svg>
