<svg xmlns="http://www.w3.org/2000/svg" viewBox="0 0 93 93.99">
  <defs>
    <style>
      .cls-1 {
        fill: #fffff6;
      }

      .cls-2 {
        fill: #00ce8c;
      }

      .cls-3 {
        fill: #ffffc3;
      }

      .cls-4 {
        opacity: 0.6;
      }

      .cls-5 {
        fill: #ff3246;
      }

      .cls-6 {
        fill: #64375a;
      }
    </style>
  </defs>
  <title>Prancheta 6 cópia 44</title>
  <g id="icons">
    <g>
      <polygon class="cls-1" points="52.82 45.6 52.82 22.85 54.75 22.85 54.75 18.35 38.32 18.35 38.32 22.85 40.17 22.85 40.17 45.6 24.51 71.83 27.6 75.64 65.39 75.64 68.48 71.83 52.82 45.6"/>
      <polygon class="cls-2" points="50.8 45.6 50.8 22.85 52.59 22.85 52.59 18.35 37.34 18.35 37.34 22.85 39.05 22.85 39.05 45.6 24.51 71.83 27.38 75.64 59.94 75.64 62.81 71.83 50.8 45.6"/>
      <polygon class="cls-3" points="45.43 45.6 45.43 22.85 43.58 22.85 43.58 18.35 38.32 18.35 38.32 22.85 40.17 22.85 40.17 45.6 24.51 71.83 27.6 75.64 38.77 75.64 35.69 71.83 45.43 45.6"/>
      <g class="cls-4">
        <polygon class="cls-5" points="35.1 58.84 27.64 71.83 62.81 71.83 56.87 58.84 35.1 58.84"/>
      </g>
      <g>
        <path class="cls-6" d="M71.36,70.11,56.18,44.67V25.88a3.35,3.35,0,0,0,1.92-3v-4.5A3.35,3.35,0,0,0,54.75,15H38.32A3.35,3.35,0,0,0,35,18.35v4.5a3.35,3.35,0,0,0,1.85,3V44.67L21.63,70.11a3.35,3.35,0,0,0,.27,3.83L25,77.75A3.36,3.36,0,0,0,27.6,79H65.39A3.35,3.35,0,0,0,68,77.75l3.09-3.82A3.35,3.35,0,0,0,71.36,70.11ZM27.6,75.64l-2.28-2.81H53a1,1,0,1,0,0-2H25.11L39.9,46.05h6.6a1,1,0,1,0,0-2H40.17V24.37H46.5a1,1,0,1,0,0-2H38.32v-4H54.75v4.12H51a1,1,0,1,0,0,2h1.8V44.16H51a1,1,0,1,0,0,2h2.14L67.88,70.82H59.33a1,1,0,0,0,0,2h8.33l-2.28,2.81Z"/>
        <path class="cls-6" d="M49.87,50.55H43.13a1,1,0,0,0,0,2h6.74a1,1,0,1,0,0-2Z"/>
        <path class="cls-6" d="M49.82,55.41H43.08a1,1,0,0,0,0,2h6.74a1,1,0,0,0,0-2Z"/>
        <path class="cls-6" d="M49.82,60.26H43.08a1,1,0,0,0,0,2h6.74a1,1,0,0,0,0-2Z"/>
        <path class="cls-6" d="M49.82,65.12H43.08a1,1,0,0,0,0,2h6.74a1,1,0,0,0,0-2Z"/>
      </g>
    </g>
  </g>
</svg>
