<svg xmlns="http://www.w3.org/2000/svg" viewBox="0 0 93 93.99">
  <defs>
    <style>
      .cls-1 {
        fill: #fffff6;
      }

      .cls-2 {
        fill: #ffffc3;
      }

      .cls-3 {
        fill: #00ce8c;
      }

      .cls-4 {
        fill: #f38290;
      }

      .cls-5 {
        fill: #64375a;
      }
    </style>
  </defs>
  <title>Prancheta 6 cópia 71</title>
  <g id="icons">
    <g>
      <rect class="cls-1" x="29.68" y="18.34" width="33.64" height="57.3" rx="5.25" ry="5.25"/>
      <path class="cls-2" d="M45.37,18.34H34.93a5.27,5.27,0,0,0-5.25,5.25v46.8a5.27,5.27,0,0,0,5.25,5.25H45.37Z"/>
      <path class="cls-3" d="M57.06,18.34h-18c-2.24,0-4.07,2.36-4.07,5.25v46.8c0,2.89,1.83,5.25,4.07,5.25h18c2.24,0,4.07-2.36,4.07-5.25V23.6C61.13,20.71,59.3,18.34,57.06,18.34Z"/>
      <rect class="cls-1" x="33.75" y="28.87" width="25.49" height="33.85"/>
      <path class="cls-4" d="M43.89,54.8a1,1,0,0,1-1-1V49.65H38.74a1,1,0,0,1-1-1V43.43a1,1,0,0,1,1-1h4.14V38.28a1,1,0,0,1,1-1h5.22a1,1,0,0,1,1,1v4.14h4.14a1,1,0,0,1,1,1v5.22a1,1,0,0,1-1,1H50.11v4.14a1,1,0,0,1-1,1Z"/>
      <g>
        <path class="cls-5" d="M58.07,15H34.93a8.61,8.61,0,0,0-8.6,8.6v46.8a8.61,8.61,0,0,0,8.6,8.6H58.07a8.61,8.61,0,0,0,8.6-8.6V23.6A8.61,8.61,0,0,0,58.07,15Zm5.25,55.4a5.27,5.27,0,0,1-5.25,5.25H34.93a5.27,5.27,0,0,1-5.25-5.25V23.6a5.27,5.27,0,0,1,5.25-5.25H58.07a5.27,5.27,0,0,1,5.25,5.25Z"/>
        <path class="cls-5" d="M59.24,26.86H33.75a2,2,0,0,0-2,2V62.72a2,2,0,0,0,2,2H59.24a2,2,0,0,0,2-2V28.87A2,2,0,0,0,59.24,26.86Zm0,35.86H33.75V28.87H59.24Z"/>
        <path class="cls-5" d="M46.5,66.48a3.74,3.74,0,1,0,3.74,3.74A3.74,3.74,0,0,0,46.5,66.48Zm0,5.47a1.73,1.73,0,1,1,1.73-1.73A1.73,1.73,0,0,1,46.5,71.95Z"/>
        <path class="cls-5" d="M42.34,24h8.32a1,1,0,1,0,0-2H42.34a1,1,0,1,0,0,2Z"/>
        <circle class="cls-5" cx="38.21" cy="22.99" r="1.18"/>
        <path class="cls-5" d="M38.74,50.66h3.14v3.14a2,2,0,0,0,2,2h5.22a2,2,0,0,0,2-2V50.66h3.13a2,2,0,0,0,2-2V43.43a2,2,0,0,0-2-2H51.12V38.28a2,2,0,0,0-2-2H43.89a2,2,0,0,0-2,2v3.14H38.74a2,2,0,0,0-2,2v5.22A2,2,0,0,0,38.74,50.66Zm0-7.23h5.14V38.28h5.22v5.15h5.14v5.22H49.11v5.14H43.89V48.65H38.74Z"/>
      </g>
    </g>
  </g>
</svg>
