<svg xmlns="http://www.w3.org/2000/svg" viewBox="0 0 93 93.99">
  <defs>
    <style>
      .cls-1 {
        fill: #00ce8c;
      }

      .cls-2 {
        fill: #f38290;
      }

      .cls-3 {
        fill: #64375a;
      }
    </style>
  </defs>
  <title>Prancheta 6 cópia 29</title>
  <g id="icons">
    <g>
      <rect class="cls-1" x="60.67" y="47.03" width="2.75" height="33.22" transform="translate(-26.83 62.51) rotate(-45)"/>
      <rect class="cls-2" x="40.87" y="36.6" width="5.43" height="17.14" transform="translate(-19.18 44.05) rotate(-45.01)"/>
      <path class="cls-3" d="M76.42,72.07,54.14,49.79a3.34,3.34,0,0,0-1-2.82l-11.4-11.4a3.35,3.35,0,0,0-2.37-1h0a3.35,3.35,0,0,0-2.37,1l-.35.35-8-8a1.66,1.66,0,0,0-1.3-.48,1.67,1.67,0,0,0-1.43.48A4,4,0,0,1,23,29.11h0A4.08,4.08,0,0,1,18.94,25V16.67a1.68,1.68,0,1,0-3.35,0V25A7.44,7.44,0,0,0,23,32.46h0a7.36,7.36,0,0,0,4.18-1.29l7.12,7.12-.36.36a3.35,3.35,0,0,0,0,4.74l11.4,11.4a3.35,3.35,0,0,0,2.37,1,3.52,3.52,0,0,0,.46,0L70.48,78a3.35,3.35,0,0,0,4.74,0l1.21-1.21a3.35,3.35,0,0,0,0-4.74ZM36.34,41l3.08-3.08,11.4,11.4-.94.94h0l-1.2,1.21h0l-.94.94ZM72.85,75.65,50.11,52.91l1.21-1.2L74.05,74.44Z"/>
    </g>
  </g>
</svg>
