<svg xmlns="http://www.w3.org/2000/svg" viewBox="0 0 93 93.99">
  <defs>
    <style>
      .cls-1 {
        fill: #fffff6;
      }

      .cls-2 {
        fill: #00ce8c;
      }

      .cls-3 {
        fill: #ffffc3;
      }

      .cls-4 {
        fill: #64375a;
      }

      .cls-5 {
        opacity: 0.6;
      }

      .cls-6 {
        fill: #ff3246;
      }
    </style>
  </defs>
  <title>Prancheta 6 cópia 55</title>
  <g id="icons">
    <g>
      <path class="cls-1" d="M59.17,18.34H57.36v1.6a8.79,8.79,0,1,0,0,17.58v1.6h1.81Z"/>
      <path class="cls-1" d="M47.85,45.85V42.19h-9.1v3.66a9.47,9.47,0,0,0-4.92,8.3v21.5H52.76V54.15A9.47,9.47,0,0,0,47.85,45.85Z"/>
      <rect class="cls-2" x="39.83" y="32.04" width="6.92" height="8.12"/>
      <path class="cls-3" d="M37.79,25.66a3.06,3.06,0,0,0,0,6.13h9V25.66Z"/>
      <path class="cls-2" d="M56.5,19.94c-4.38,0-7.93,3.94-7.93,8.79s3.55,8.79,7.93,8.79Z"/>
      <path class="cls-3" d="M43.29,42.19H38.74v3.66a9.47,9.47,0,0,0-4.92,8.3v21.5h9.47Z"/>
      <path class="cls-2" d="M47.82,45.85V42.19H41.57v3.66c-2,1.61-3.38,4.72-3.38,8.3v21.5h13V54.15C51.2,50.57,49.84,47.46,47.82,45.85Z"/>
      <path class="cls-4" d="M59.17,15H57.36a3.34,3.34,0,0,0-3.06,2,12.18,12.18,0,0,0-8.11,7H37.79a4.73,4.73,0,1,0,0,9.46h.37v5.45a3.34,3.34,0,0,0-2.76,3.28v1.87a12.82,12.82,0,0,0-4.92,10.09v21.5A3.34,3.34,0,0,0,33.82,79H52.76a3.34,3.34,0,0,0,3.34-3.34V54.15a12.82,12.82,0,0,0-4.92-10.09V42.19a3.34,3.34,0,0,0-2.76-3.28v-2a12.14,12.14,0,0,0,5.88,3.55,3.34,3.34,0,0,0,3.06,2h1.81a3.34,3.34,0,0,0,3.34-3.34V18.34A3.34,3.34,0,0,0,59.17,15ZM36.4,28.72a1.39,1.39,0,0,1,1.39-1.39h7.3v2.78h-7.3A1.39,1.39,0,0,1,36.4,28.72Zm8.69,9.76H41.5V33.71h3.58Zm7.68,15.66v21.5H33.82V54.15a9.47,9.47,0,0,1,4.92-8.3h4.55a1,1,0,1,0,0-2H38.74V42.19h9.1v1.64h-1a1,1,0,0,0,0,2h1A9.47,9.47,0,0,1,52.76,54.15Zm6.41-15H57.5V25.66a1,1,0,0,0-2,0V37.31a8.79,8.79,0,0,1,0-17.18V22a1,1,0,0,0,2,0V18.34h1.67Z"/>
      <g class="cls-5">
        <rect class="cls-6" x="36.2" y="58.92" width="14.18" height="14.37"/>
      </g>
    </g>
  </g>
</svg>
