<svg xmlns="http://www.w3.org/2000/svg" viewBox="0 0 93 93.99">
  <defs>
    <style>
      .cls-1 {
        fill: #fffff6;
      }

      .cls-2 {
        fill: #00ce8c;
      }

      .cls-3 {
        fill: #ffffc3;
      }

      .cls-4 {
        opacity: 0.6;
      }

      .cls-5 {
        fill: #ff3246;
      }

      .cls-6 {
        fill: #64375a;
      }
    </style>
  </defs>
  <title>Prancheta 6 cópia 22</title>
  <g id="icons">
    <g>
      <rect class="cls-1" x="39.26" y="28.25" width="14.75" height="37.67" transform="translate(-19.64 46.76) rotate(-44.99)"/>
      <rect class="cls-1" x="61.48" y="62.39" width="3.39" height="2.48" transform="translate(-26.49 63.31) rotate(-45)"/>
      <rect class="cls-2" x="42.61" y="27.51" width="8.72" height="39.81" transform="translate(-19.77 47.11) rotate(-45.01)"/>
      <rect class="cls-3" x="39.38" y="31.38" width="4.83" height="40.89" transform="translate(-24.4 44.73) rotate(-45)"/>
      <g class="cls-4">
        <rect class="cls-5" x="46.94" y="48.57" width="10.99" height="8.83" transform="translate(-22.11 52.61) rotate(-45.01)"/>
      </g>
      <path class="cls-6" d="M78.21,77.25l-11.1-11.1.49-.49a3.33,3.33,0,0,0,0-4.7L65.86,59.2l1.66-1.66a3.33,3.33,0,0,0,0-4.71l-23.6-23.6a7.09,7.09,0,1,0-7.6-3.16l-.14.12-4,4L27.7,25.8a7.14,7.14,0,1,0-2.33,2.38l4.41,4.41-4,4a3.14,3.14,0,0,0-.21.26,7.1,7.1,0,1,0,3.19,7.42L52.38,68a3.33,3.33,0,0,0,4.71,0l1.66-1.66,1.74,1.75a3.33,3.33,0,0,0,4.71,0l.5-.5,11.1,11.1a1,1,0,0,0,1.41-1.41ZM18.93,24.84a3.74,3.74,0,0,1-1.1-2.67,3.77,3.77,0,1,1,3.76,3.77A3.74,3.74,0,0,1,18.93,24.84Zm12,17L35,37.76a1.69,1.69,0,0,0,.18.22L45.29,48.1l-2.44,2.45A1,1,0,0,0,44.26,52l7.24-7.24a1,1,0,0,0-1.41-1.41l-2.45,2.45L37.53,35.62a1.66,1.66,0,0,0-.22-.18l4.06-4.06L62.23,52.25,51.8,62.68Zm8.75-22.18a3.78,3.78,0,1,1-1.12,2.68A3.77,3.77,0,0,1,39.69,19.64Zm-1.16,8.91L40,30,29.53,40.41,28.1,39Zm-14.11,17a3.78,3.78,0,0,1-2.69,1.12A3.76,3.76,0,0,1,18,42.93a3.81,3.81,0,0,1,3.8-3.8,3.76,3.76,0,0,1,3.76,3.77A3.78,3.78,0,0,1,24.42,45.58Zm30.32,20L53.21,64.1,63.64,53.67l1.52,1.52-3.93,3.93-.1.08-2.4,2.4-.08.09ZM61.1,64l2.4-2.4,1.74,1.74-2.4,2.4Z"/>
    </g>
  </g>
</svg>
