<svg xmlns="http://www.w3.org/2000/svg" viewBox="0 0 93 93.99">
  <defs>
    <style>
      .cls-1 {
        fill: #fffff6;
      }

      .cls-2 {
        fill: #ffffc3;
      }

      .cls-3 {
        fill: #00ce8c;
      }

      .cls-4 {
        opacity: 0.6;
      }

      .cls-5 {
        fill: #ff3246;
      }

      .cls-6 {
        fill: #64375a;
      }
    </style>
  </defs>
  <title>Prancheta 6 cópia 49</title>
  <g id="icons">
    <g>
      <path class="cls-1" d="M35,18.34V41a11.44,11.44,0,0,0,5.44,9.74v3.68h12V50.77A11.44,11.44,0,0,0,58,41V18.34Z"/>
      <path class="cls-2" d="M46.79,54.45V18.34H35V41a11.44,11.44,0,0,0,5.44,9.74v3.68Z"/>
      <path class="cls-3" d="M41.31,18.34V41c0,4.12,1.29,7.72,3.23,9.74v3.68h7.13V50.77c1.93-2,3.22-5.62,3.22-9.74V18.34Z"/>
      <path class="cls-1" d="M42.64,65.4A1.67,1.67,0,0,1,41,63.73V61.45H38.64A1.67,1.67,0,0,1,37,59.78v-2a1.67,1.67,0,0,1,1.67-1.67H54.36A1.67,1.67,0,0,1,56,57.77v2a1.67,1.67,0,0,1-1.67,1.67H52v2.28a1.67,1.67,0,0,1-1.67,1.67Z"/>
      <g class="cls-4">
        <path class="cls-5" d="M37.31,37.09v3.42a9.17,9.17,0,0,0,4.36,7.81h9.65a9.17,9.17,0,0,0,4.36-7.81V37.09Z"/>
      </g>
      <g>
        <path class="cls-6" d="M55.86,52.49A14.69,14.69,0,0,0,61.3,41V18.34A3.34,3.34,0,0,0,58,15H35a3.34,3.34,0,0,0-3.34,3.34v22.6s0,.06,0,.09a14.69,14.69,0,0,0,5.44,11.45v2a3.12,3.12,0,0,0,0,.33,3.34,3.34,0,0,0-1.87,3v2a3.34,3.34,0,0,0,3.34,3.34h.66v.61a3.34,3.34,0,0,0,3.34,3.34h2.19V77.32a1.67,1.67,0,1,0,3.34,0V67.07h2.18a3.34,3.34,0,0,0,3.34-3.34v-.61h.66a3.34,3.34,0,0,0,3.34-3.34v-2a3.34,3.34,0,0,0-1.87-3,3.1,3.1,0,0,0,0-.33ZM42.64,63.73v-2h2.89a1,1,0,1,0,0-2H38.64v-2h1.64l.2,0h12l.2,0h1.64v2H49.88a1,1,0,1,0,0,2h.47v2ZM52.9,50.5H51a1,1,0,0,0,0,2h1.5v1.92h-12V52.51h6.31a1,1,0,0,0,0-2H40.1A11.41,11.41,0,0,1,35,41V18.34H58V41A11.41,11.41,0,0,1,52.9,50.5Z"/>
        <path class="cls-6" d="M50.41,38.83H43.17a1,1,0,1,0,0,2h7.24a1,1,0,1,0,0-2Z"/>
        <path class="cls-6" d="M50.41,32.22H43.17a1,1,0,1,0,0,2h7.24a1,1,0,1,0,0-2Z"/>
        <path class="cls-6" d="M50.41,25.61H43.17a1,1,0,1,0,0,2h7.24a1,1,0,1,0,0-2Z"/>
      </g>
    </g>
  </g>
</svg>
