<svg id="Camada_1" data-name="Camada 1" xmlns="http://www.w3.org/2000/svg" viewBox="0 0 77 77">
  <defs>
    <style>
      .cls-1 {
        fill: #fffff6;
      }

      .cls-2 {
        fill: #ffffc3;
      }

      .cls-3 {
        fill: #00ce8c;
      }

      .cls-4 {
        fill: #f38290;
      }

      .cls-5 {
        fill: #64375a;
      }
    </style>
  </defs>
  <title>Prancheta 5</title>
  <g>
    <rect class="cls-1" x="18.96" y="17.49" width="39.07" height="49.67"/>
    <rect class="cls-2" x="18.96" y="17.49" width="18.62" height="49.67"/>
    <rect class="cls-3" x="22.51" y="17.49" width="33.48" height="49.67"/>
    <rect class="cls-1" x="23.11" y="16.48" width="30.79" height="45.13" rx="1" ry="1"/>
    <path class="cls-1" d="M30.07,20.8a1.67,1.67,0,0,1-1.67-1.67V14a1.67,1.67,0,0,1,1.67-1.67h2.84a5.84,5.84,0,0,1,11.19,0h2.84A1.67,1.67,0,0,1,48.6,14v5.12a1.67,1.67,0,0,1-1.67,1.67Z"/>
    <path class="cls-4" d="M42.67,14a4.17,4.17,0,0,0-8.34,0H30.07v5.12H46.93V14Z"/>
    <g>
      <path class="cls-5" d="M29.65,26h-1.4a1,1,0,0,0,0,2h1.4a1,1,0,1,0,0-2Z"/>
      <path class="cls-5" d="M32.76,28h5.3a1,1,0,1,0,0-2h-5.3a1,1,0,1,0,0,2Z"/>
      <path class="cls-5" d="M29.65,30.93h-1.4a1,1,0,0,0,0,2h1.4a1,1,0,1,0,0-2Z"/>
      <path class="cls-5" d="M32.76,32.94h10a1,1,0,1,0,0-2h-10a1,1,0,1,0,0,2Z"/>
      <path class="cls-5" d="M29.65,35.82h-1.4a1,1,0,0,0,0,2h1.4a1,1,0,1,0,0-2Z"/>
      <path class="cls-5" d="M32.76,37.83h4.08a1,1,0,1,0,0-2H32.76a1,1,0,1,0,0,2Z"/>
      <path class="cls-5" d="M29.65,40.71h-1.4a1,1,0,0,0,0,2h1.4a1,1,0,1,0,0-2Z"/>
      <path class="cls-5" d="M32.76,42.72H49.29a1,1,0,1,0,0-2H32.76a1,1,0,0,0,0,2Z"/>
      <path class="cls-5" d="M29.65,45.61h-1.4a1,1,0,0,0,0,2h1.4a1,1,0,1,0,0-2Z"/>
      <path class="cls-5" d="M32.76,47.61h5.3a1,1,0,1,0,0-2h-5.3a1,1,0,1,0,0,2Z"/>
      <path class="cls-5" d="M29.65,50.5h-1.4a1,1,0,0,0,0,2h1.4a1,1,0,1,0,0-2Z"/>
      <path class="cls-5" d="M41.61,51.5a1,1,0,0,0-1-1H32.76a1,1,0,1,0,0,2h7.84A1,1,0,0,0,41.61,51.5Z"/>
      <path class="cls-5" d="M49.55,55.8h-1a1,1,0,0,0,0,2h1a1,1,0,1,0,0-2Z"/>
      <path class="cls-5" d="M45.28,55.8H40.61a1,1,0,0,0,0,2h4.67a1,1,0,1,0,0-2Z"/>
      <path class="cls-5" d="M58,14.15H50.27V14a3.34,3.34,0,0,0-3.34-3.34H45.22a7.51,7.51,0,0,0-13.45,0H30.07A3.34,3.34,0,0,0,26.73,14v.14H19a3.34,3.34,0,0,0-3.34,3.34V67.16A3.34,3.34,0,0,0,19,70.5H58a3.34,3.34,0,0,0,3.34-3.34V17.49A3.34,3.34,0,0,0,58,14.15Zm-28-.14h4.26a4.17,4.17,0,0,1,8.34,0h4.26v5.12H30.07Zm-6,3.48h2.62v1.64a3.34,3.34,0,0,0,3.34,3.34H46.93a3.34,3.34,0,0,0,3.34-3.34V17.49h2.62V60.62H24.11ZM58,67.16H19V17.49H22.1V60.62a2,2,0,0,0,2,2H52.89a2,2,0,0,0,2-2V17.49H58Z"/>
      <circle class="cls-5" cx="38.5" cy="14.22" r="1.75"/>
    </g>
  </g>
</svg>
