<svg xmlns="http://www.w3.org/2000/svg" viewBox="0 0 93 93.99">
  <defs>
    <style>
      .cls-1 {
        fill: #fffff6;
      }

      .cls-2 {
        fill: #ffffc3;
      }

      .cls-3 {
        fill: #00ce8c;
      }

      .cls-4 {
        opacity: 0.6;
      }

      .cls-5 {
        fill: #ff3246;
      }

      .cls-6 {
        fill: #64375a;
      }
    </style>
  </defs>
  <title>Prancheta 6 cópia 73</title>
  <g id="icons">
    <g>
      <path class="cls-1" d="M71.78,24.45H21.21a3.37,3.37,0,0,0-3.36,3.36V62.26a3.37,3.37,0,0,0,3.36,3.36h.42v3.93H71.36V65.61h.42a3.37,3.37,0,0,0,3.36-3.36V27.81A3.37,3.37,0,0,0,71.78,24.45Z"/>
      <path class="cls-2" d="M39.07,69.54V24.45H21.21a3.37,3.37,0,0,0-3.36,3.36V62.26a3.37,3.37,0,0,0,3.36,3.36h.42v3.93Z"/>
      <path class="cls-3" d="M70.31,24.45H25.67a3.2,3.2,0,0,0-3,3.36l-1.05.34V54.49l1.05,1v6.81a3.2,3.2,0,0,0,3,3.36H26v3.93h43.6V65.61h.95c1.64,0,2.7-1.51,2.7-3.36V27.81A3.19,3.19,0,0,0,70.31,24.45Z"/>
      <rect class="cls-1" x="48.68" y="59.1" width="5.28" height="3.86"/>
      <rect class="cls-1" x="57.84" y="59.1" width="5.28" height="3.86"/>
      <rect class="cls-1" x="67" y="59.1" width="5.28" height="3.86"/>
      <rect class="cls-1" x="21.63" y="28.14" width="49.73" height="26.35"/>
      <g class="cls-4">
        <rect class="cls-5" x="21.63" y="41.32" width="49.73" height="13.17"/>
      </g>
      <g>
        <path class="cls-6" d="M71.78,21.09H21.21a6.72,6.72,0,0,0-6.71,6.71V62.26a6.72,6.72,0,0,0,3.78,6v1.25a3.36,3.36,0,0,0,3.36,3.36H71.36a3.36,3.36,0,0,0,3.36-3.36V68.29a6.72,6.72,0,0,0,3.78-6V27.81A6.72,6.72,0,0,0,71.78,21.09Zm-.5,44.53H68V60.11h3.27ZM17.86,62.26V27.81a3.37,3.37,0,0,1,3.36-3.36H71.78a3.37,3.37,0,0,1,3.36,3.36V62.26a3.35,3.35,0,0,1-1.85,3V59.1a1,1,0,0,0-1-1H67a1,1,0,0,0-1,1v6.53H64.13V59.1a1,1,0,0,0-1-1H57.84a1,1,0,0,0-1,1v6.53H55V59.1a1,1,0,0,0-1-1H48.68a1,1,0,0,0-1,1v6.53H21.21A3.37,3.37,0,0,1,17.86,62.26Zm44.26,3.37H58.85V60.11h3.27Zm-9.16,0H49.69V60.11H53ZM21.63,69.54v-1.9H71.36v1.9Z"/>
        <path class="cls-6" d="M71.36,56.51a2,2,0,0,0,2-2V28.14a2,2,0,0,0-2-2H21.63a2,2,0,0,0-2,2V54.49a2,2,0,0,0,2,2Zm-49.73-2V42.07H27l2.29,4.59a1,1,0,0,0,1.84-.09l3.51-9.22,4,13.32a1,1,0,0,0,1,.71,1.05,1.05,0,0,0,1-.7l2.8-8.62H49l2.29,4.59a1,1,0,0,0,1.84-.09l3.51-9.22,4,13.32a1,1,0,0,0,1,.71h0a1,1,0,0,0,1-.69l2.79-8.37h6V54.49ZM71.36,28.14V40.31H64.62a1,1,0,0,0-1,.69l-2,6.06-4-13.11a1,1,0,0,0-.93-.71,1,1,0,0,0-1,.65L52,43.71l-1.55-3.1a1,1,0,0,0-.9-.56H42.69a1,1,0,0,0-1,.7l-2,6.26-4-13.07a1,1,0,0,0-.93-.71,1,1,0,0,0-1,.65l-3.74,9.83-1.55-3.1a1,1,0,0,0-.9-.56h-6V28.14Z"/>
        <circle class="cls-6" cx="24.39" cy="61.22" r="1.7"/>
        <circle class="cls-6" cx="30.78" cy="61.22" r="1.7"/>
        <circle class="cls-6" cx="37.17" cy="61.22" r="1.7"/>
      </g>
    </g>
  </g>
</svg>
