<svg xmlns="http://www.w3.org/2000/svg" viewBox="0 0 93 93.99">
  <defs>
    <style>
      .cls-1 {
        fill: #fffff6;
      }

      .cls-2 {
        fill: #ffffc3;
      }

      .cls-3 {
        fill: #00ce8c;
      }

      .cls-4 {
        fill: #f38290;
      }

      .cls-5 {
        fill: #64375a;
      }
    </style>
  </defs>
  <title>Prancheta 6 cópia 4</title>
  <g id="icons">
    <g>
      <rect class="cls-1" x="22.27" y="30.04" width="48.4" height="40.27"/>
      <rect class="cls-2" x="22.65" y="30.04" width="6.11" height="40.27"/>
      <rect class="cls-3" x="27.78" y="30.04" width="39.31" height="40.27"/>
      <rect class="cls-1" x="28.76" y="46.32" width="7.41" height="16.44"/>
      <rect class="cls-1" x="42.77" y="46.32" width="7.41" height="16.44"/>
      <rect class="cls-1" x="56.78" y="46.32" width="7.41" height="16.44"/>
      <g>
        <path class="cls-4" d="M43.91,40.22a1,1,0,0,1-1-1v-4h-4a1,1,0,0,1-1-1V29.06a1,1,0,0,1,1-1h4V24a1,1,0,0,1,1-1H49a1,1,0,0,1,1,1v4h4a1,1,0,0,1,1,1v5.12a1,1,0,0,1-1,1H50v4a1,1,0,0,1-1,1Z"/>
        <path class="cls-5" d="M49,24v5h5v5.12H49v5H43.91v-5h-5V29.06h5V24H49m0-2H43.91a2,2,0,0,0-2,2v3.05H38.86a2,2,0,0,0-2,2v5.12a2,2,0,0,0,2,2h3.05v3.05a2,2,0,0,0,2,2H49a2,2,0,0,0,2-2V36.17h3.05a2,2,0,0,0,2-2V29.06a2,2,0,0,0-2-2H51V24a2,2,0,0,0-2-2Z"/>
      </g>
      <path class="cls-4" d="M43.91,40.22a1,1,0,0,1-1-1v-4h-4a1,1,0,0,1-1-1V29.06a1,1,0,0,1,1-1h4V24a1,1,0,0,1,1-1H49a1,1,0,0,1,1,1v4h4a1,1,0,0,1,1,1v5.12a1,1,0,0,1-1,1H50v4a1,1,0,0,1-1,1Z"/>
      <path class="cls-5" d="M49,24v5h5v5.12H49v5H43.91v-5h-5V29.06h5V24H49m0-2H43.91a2,2,0,0,0-2,2v3.05H38.86a2,2,0,0,0-2,2v5.12a2,2,0,0,0,2,2h3.05v3.05a2,2,0,0,0,2,2H49a2,2,0,0,0,2-2V36.17h3.05a2,2,0,0,0,2-2V29.06a2,2,0,0,0-2-2H51V24a2,2,0,0,0-2-2Z"/>
      <path class="cls-4" d="M43.91,40.22a1,1,0,0,1-1-1v-4h-4a1,1,0,0,1-1-1V29.06a1,1,0,0,1,1-1h4V24a1,1,0,0,1,1-1H49a1,1,0,0,1,1,1v4h4a1,1,0,0,1,1,1v5.12a1,1,0,0,1-1,1H50v4a1,1,0,0,1-1,1Z"/>
      <path class="cls-5" d="M76.84,68.65H72.33V30a1.66,1.66,0,0,0-1.66-1.66H55.94a2,2,0,0,0-1.87-1.32H51V24a2,2,0,0,0-2-2H43.91a2,2,0,0,0-2,2v3.05H38.86A2,2,0,0,0,37,28.38H22.27A1.66,1.66,0,0,0,20.61,30V68.65H16.16a1.66,1.66,0,1,0,0,3.32H76.84a1.66,1.66,0,0,0,0-3.32ZM56.07,34.18V31.71H69v2.48H56.07Zm-17.2-5.12h5V24H49v5h5v5.12H49v5H43.91v-5h-5ZM23.93,31.71H36.87v2.47H23.93Zm14.29,4.47a2.93,2.93,0,0,1,.64,0h3.05v3.05a2,2,0,0,0,2,2H49a2,2,0,0,0,2-2V36.17H69V58.94H65.18V46.32a1,1,0,0,0-1-1H56.78a1,1,0,0,0-1,1V58.94H51.17V46.32a1,1,0,0,0-1-1H42.77a1,1,0,0,0-1,1V58.94H37.16V46.32a1,1,0,0,0-1-1H28.76a1,1,0,0,0-1,1V58.94H23.93V36.18Zm19.55,15h2a1,1,0,1,0,0-2h-2V47.31h5.41v1.87h-.38a1,1,0,1,0,0,2h.38V61.76H57.77Zm-14,0h2a1,1,0,1,0,0-2h-2V47.31h5.41v1.87H48.8a1,1,0,1,0,0,2h.38V61.76H43.76Zm-14,0h2a1,1,0,1,0,0-2h-2V47.31h5.41v1.87h-.38a1,1,0,1,0,0,2h.38V61.76H29.75ZM23.93,68.65V60.93h3.83v1.83a1,1,0,0,0,1,1h7.41a1,1,0,0,0,1-1V60.93h4.61v1.83a1,1,0,0,0,1,1h7.41a1,1,0,0,0,1-1V60.93h4.61v1.83a1,1,0,0,0,1,1h7.41a1,1,0,0,0,1-1V60.93H69v7.72Z"/>
    </g>
  </g>
</svg>
